<svg width="37" height="30" viewBox="0 0 37 30" fill="none" xmlns="http://www.w3.org/2000/svg">
<rect y="14.4425" width="23" height="2.54445" transform="rotate(-38 0 14.4425)" fill="#46271C"/>
<rect x="18.2464" width="23" height="2.54445" transform="rotate(38 18.2464 0)" fill="#46271C"/>
<rect x="31.6799" y="11" width="19" height="3" transform="rotate(90 31.6799 11)" fill="#46271C"/>
<rect x="8.67987" y="11" width="19" height="3" transform="rotate(90 8.67987 11)" fill="#46271C"/>
<rect x="30.6799" y="6" width="4" height="3" transform="rotate(90 30.6799 6)" fill="#46271C"/>
<rect x="7.67987" y="27" width="22" height="3" fill="#46271C"/>
<path d="M27.95 2.16952C27.8425 2.13204 27.7218 2.14136 27.6331 2.21267C27.4609 2.35108 27.3189 2.53732 27.2192 2.75759C27.0923 3.03792 27.0394 3.36078 27.0674 3.68532C27.0953 4.00987 27.2028 4.32153 27.3762 4.5809C27.4414 4.67843 27.5148 4.76691 27.5949 4.84504C27.7989 5.04406 28.104 4.89531 28.1739 4.61901L28.1849 4.5753C28.2357 4.37429 28.1166 4.16761 28.0013 3.99526V3.99526C27.9304 3.88917 27.8864 3.76169 27.875 3.62894C27.8663 3.52815 27.8767 3.42777 27.9049 3.33508C27.9225 3.27722 27.9596 3.2277 28.0026 3.1852C28.0562 3.13228 28.1062 3.08212 28.1528 3.03472C28.3831 2.80054 28.2601 2.27764 27.95 2.16952V2.16952Z" fill="#46271C"/>
<path d="M27.9314 2.16303C27.8351 2.12946 27.7292 2.13759 27.6484 2.20056C27.4693 2.34013 27.3219 2.53083 27.2192 2.75759C27.0923 3.03792 27.0394 3.36078 27.0674 3.68532C27.0953 4.00987 27.2028 4.32153 27.3762 4.5809C27.4495 4.69054 27.5332 4.78876 27.6251 4.87369C27.8241 5.05764 28.0999 4.9116 28.1677 4.64335L28.1828 4.58377C28.2341 4.38069 28.1171 4.16847 28.0013 3.99526C27.9304 3.88917 27.8864 3.76169 27.875 3.62894C27.8663 3.52716 27.8769 3.42579 27.9058 3.33235C27.9231 3.27617 27.9583 3.22898 27.9988 3.18901C28.0456 3.1428 28.0897 3.09867 28.1312 3.05665C28.3608 2.82411 28.236 2.26925 27.9314 2.16303Z" fill="#46271C"/>
<path d="M29.4247 3.72825C29.5386 3.75192 29.6585 3.7343 29.7528 3.6663C30.0147 3.47749 30.2263 3.22598 30.3675 2.9337C30.5349 2.58706 30.5956 2.19864 30.5421 1.81757C30.4885 1.43649 30.3231 1.07988 30.0667 0.792822C29.9387 0.64958 29.7909 0.526869 29.6287 0.427902C29.3577 0.262627 29.0369 0.453831 28.9573 0.761092L28.9307 0.864111C28.8657 1.11482 29.0353 1.36551 29.2079 1.55865V1.55865C29.3128 1.67607 29.3804 1.82193 29.4023 1.9778C29.4194 2.0995 29.408 2.22302 29.3696 2.33881C29.3482 2.4035 29.305 2.4582 29.2552 2.50475C29.2045 2.55213 29.1562 2.59778 29.1101 2.64172C28.8004 2.93696 29.0058 3.64117 29.4247 3.72825V3.72825Z" fill="#46271C"/>
<path d="M29.3859 3.72018C29.5235 3.74879 29.6729 3.7269 29.7845 3.64299C30.0318 3.45699 30.232 3.21411 30.3675 2.9337C30.5349 2.58706 30.5956 2.19864 30.5421 1.81757C30.4885 1.43649 30.3231 1.07988 30.0667 0.792822C29.9583 0.671467 29.8356 0.564848 29.702 0.474919C29.4126 0.280122 29.0289 0.484988 28.9445 0.810471L28.9258 0.882774C28.862 1.12919 29.0366 1.36694 29.2079 1.55865C29.3128 1.67607 29.3804 1.82193 29.4023 1.9778C29.4191 2.09731 29.4084 2.21858 29.3717 2.33257C29.3495 2.40111 29.3019 2.46105 29.2463 2.51307C29.182 2.57322 29.1216 2.63057 29.0647 2.68513C28.75 2.98707 28.9505 3.62966 29.3859 3.72018Z" fill="#46271C"/>
</svg>
