<svg width="27" height="35" viewBox="0 0 27 35" fill="none" xmlns="http://www.w3.org/2000/svg">
<rect y="7" width="3" height="28" rx="1" fill="#46271C"/>
<rect x="24" y="7" width="3" height="28" rx="1" fill="#46271C"/>
<rect x="1" y="10" width="3" height="25" transform="rotate(-90 1 10)" fill="#46271C"/>
<rect x="1" y="35" width="3" height="25" transform="rotate(-90 1 35)" fill="#46271C"/>
<path d="M20 6C20 4.4087 19.3679 2.88258 18.2426 1.75736C17.1174 0.632141 15.5913 1.2014e-07 14 0C12.4087 -1.2014e-07 10.8826 0.632141 9.75736 1.75736C8.63214 2.88258 8 4.4087 8 6L10.135 6C10.135 4.97494 10.5422 3.99187 11.267 3.26704C11.9919 2.54222 12.9749 2.13501 14 2.13501C15.0251 2.13501 16.0081 2.54222 16.733 3.26704C17.4578 3.99187 17.865 4.97494 17.865 6H20Z" fill="#46271C"/>
<path d="M8.01312 8.02619C8.01659 9.61749 8.65206 11.1422 9.77973 12.265C10.9074 13.3878 12.4349 14.0166 14.0262 14.0131C15.6175 14.0096 17.1422 13.3741 18.265 12.2465C19.3878 11.1188 20.0166 9.59131 20.0131 8.00001L17.8781 8.00467C17.8803 9.02973 17.4753 10.0137 16.752 10.7401C16.0288 11.4665 15.0466 11.8758 14.0215 11.8781C12.9965 11.8803 12.0125 11.4753 11.2861 10.752C10.5597 10.0288 10.1504 9.04659 10.1481 8.02154L8.01312 8.02619Z" fill="#46271C"/>
</svg>
