<svg width="32" height="32" viewBox="0 0 32 32" fill="none" xmlns="http://www.w3.org/2000/svg">
<path d="M5.59513 25.952C4.87286 25.9583 4.15644 25.8235 3.48676 25.5554C2.81708 25.2872 2.20726 24.8909 1.69213 24.3891C1.17699 23.8873 0.766618 23.2898 0.484447 22.6307C0.202275 21.9717 0.0538271 21.2639 0.0475791 20.548L2.98954 20.5223C2.99245 20.8553 3.06149 21.1845 3.19273 21.491C3.32396 21.7975 3.51482 22.0754 3.75441 22.3088C3.994 22.5422 4.27762 22.7265 4.58908 22.8512C4.90055 22.9759 5.23375 23.0386 5.56968 23.0357L5.59513 25.952Z" fill="#46271C"/>
<path d="M19.5 25.952C20.2222 25.9583 20.9387 25.8235 21.6083 25.5554C22.278 25.2872 22.8878 24.8909 23.403 24.3891C23.9181 23.8873 24.3285 23.2898 24.6106 22.6307C24.8928 21.9717 25.0413 21.2639 25.0475 20.548L21.9925 20.5213C21.9897 20.8396 21.9237 21.1542 21.7983 21.4472C21.6729 21.7402 21.4904 22.0058 21.2614 22.2288C21.0324 22.4519 20.7613 22.6281 20.4636 22.7473C20.166 22.8665 19.8475 22.9264 19.5264 22.9236L19.5 25.952Z" fill="#46271C"/>
<rect x="3" y="26" width="3.14" height="19" rx="1.57" transform="rotate(-90 3 26)" fill="#46271C"/>
<rect x="28" y="29" width="3" height="28" transform="rotate(90 28 29)" fill="#46271C"/>
<rect y="3" width="3" height="29" transform="rotate(-90 0 3)" fill="#46271C"/>
<rect y="1" width="3" height="21" rx="1.5" fill="#46271C"/>
<rect x="22" y="1" width="3.05" height="20" fill="#46271C"/>
<rect x="29" y="0.0252686" width="2.8954" height="11.9996" rx="1" transform="rotate(-0.5 29 0.0252686)" fill="#46271C"/>
<rect x="31.5" width="3" height="31.5" rx="1.5" transform="rotate(90 31.5 0)" fill="#46271C"/>
<rect x="31.5" y="9" width="3" height="8.5" rx="1.5" transform="rotate(90 31.5 9)" fill="#46271C"/>
</svg>
