<svg width="34" height="32" viewBox="0 0 34 32" fill="none" xmlns="http://www.w3.org/2000/svg">
<path d="M24 7C24 10.866 20.866 14 17 14C13.134 14 10 10.866 10 7C10 3.13401 13.134 0 17 0C20.866 0 24 3.13401 24 7ZM13.5 7C13.5 8.933 15.067 10.5 17 10.5C18.933 10.5 20.5 8.933 20.5 7C20.5 5.067 18.933 3.5 17 3.5C15.067 3.5 13.5 5.067 13.5 7Z" fill="#46271C"/>
<path d="M14 25C14 28.866 10.866 32 7 32C3.13401 32 0 28.866 0 25C0 21.134 3.13401 18 7 18C10.866 18 14 21.134 14 25ZM3.5 25C3.5 26.933 5.067 28.5 7 28.5C8.933 28.5 10.5 26.933 10.5 25C10.5 23.067 8.933 21.5 7 21.5C5.067 21.5 3.5 23.067 3.5 25Z" fill="#46271C"/>
<path d="M34 25C34 28.866 30.866 32 27 32C23.134 32 20 28.866 20 25C20 21.134 23.134 18 27 18C30.866 18 34 21.134 34 25ZM23.5 25C23.5 26.933 25.067 28.5 27 28.5C28.933 28.5 30.5 26.933 30.5 25C30.5 23.067 28.933 21.5 27 21.5C25.067 21.5 23.5 23.067 23.5 25Z" fill="#46271C"/>
</svg>
