<svg width="21" height="27" viewBox="0 0 21 27" fill="none" xmlns="http://www.w3.org/2000/svg">
<g filter="url(#filter0_f_2_2469)">
<path d="M10.0238 5.07154C10.0238 6.76143 8.65391 8.13133 6.96406 8.13133C5.2742 8.13133 3.90427 6.76139 3.90427 5.07154C3.90427 3.38169 5.2742 2.01175 6.96406 2.01175C8.65391 2.01175 10.0238 3.38169 10.0238 5.07154V5.07154Z" fill="#FFCC00"/>
<path d="M7.11426 0.371948C7.11426 0.371948 6.53418 0.85447 6.86628 1.33274C7.05266 1.60116 6.07003 1.53676 6.50146 2.40424C6.58662 2.57548 7.43578 3.14969 7.13783 2.70824C6.83989 2.26679 8.27862 1.71838 7.29036 1.1953C6.76141 0.915329 7.32804 0.393622 7.11426 0.371976L7.11426 0.371948Z" fill="#FFCC00"/>
<path d="M8.82948 0.736206C8.82948 0.736206 8.11122 0.967214 8.2407 1.53491C8.31337 1.85351 7.42585 1.42686 7.50216 2.39269C7.51722 2.58333 8.09054 3.43311 7.97897 2.91232C7.86741 2.39152 9.40686 2.42003 8.68543 1.56575C8.29929 1.10853 9.01973 0.836124 8.8295 0.736206H8.82948Z" fill="#FFCC00"/>
<path d="M10.2793 1.70936C10.2793 1.70936 9.52659 1.65669 9.43566 2.2318C9.38464 2.55459 8.71945 1.82848 8.4311 2.7534C8.37419 2.93597 8.59036 3.938 8.68049 3.41307C8.77061 2.88814 10.1891 3.48708 9.83701 2.42578C9.6486 1.85775 10.4187 1.87281 10.2793 1.70932L10.2793 1.70936Z" fill="#FFCC00"/>
<path d="M11.2793 3.19006C11.2793 3.19006 10.6032 2.85512 10.3004 3.35247C10.1304 3.6316 9.79133 2.7071 9.1729 3.45289C9.05084 3.6001 8.86973 4.60906 9.15269 4.15786C9.43566 3.70666 10.5198 4.79998 10.5978 3.68453C10.6395 3.08752 11.346 3.3943 11.2792 3.19004L11.2793 3.19006Z" fill="#FFCC00"/>
<path d="M11.6415 4.96392C11.6415 4.96392 11.1466 4.39445 10.6756 4.7368C10.4112 4.92895 10.4544 3.94517 9.59643 4.39526C9.42709 4.4841 8.87138 5.34548 9.30628 5.03806C9.74117 4.73063 10.3206 6.15716 10.8222 5.1578C11.0907 4.62291 11.6245 5.17812 11.6415 4.96392H11.6415Z" fill="#FFCC00"/>
<path d="M11.2985 6.72653C11.2985 6.72653 11.0587 6.01112 10.4927 6.14759C10.175 6.22416 10.5907 5.33149 9.62589 5.41965C9.43544 5.43704 8.59277 6.02072 9.11216 5.90281C9.63155 5.7849 9.62195 7.32455 10.4673 6.59268C10.9197 6.20096 11.2009 6.91801 11.2985 6.72657V6.72653Z" fill="#FFCC00"/>
<path d="M10.3106 8.22169C10.3106 8.22169 10.3617 7.46889 9.78638 7.37922C9.46349 7.32887 10.1882 6.66216 9.26265 6.37574C9.07996 6.3192 8.07837 6.53748 8.60351 6.6265C9.12864 6.71553 8.53265 8.13524 9.59321 7.78098C10.1608 7.59138 10.1474 8.3615 10.3106 8.2217V8.22169Z" fill="#FFCC00"/>
<path d="M8.73954 9.26306C8.73954 9.26306 9.08766 8.59363 8.59634 8.28118C8.32059 8.10581 9.25155 7.78489 8.51802 7.15201C8.37323 7.02708 7.368 6.82624 7.81357 7.11799C8.25915 7.40974 7.14479 8.47223 8.25851 8.57206C8.85456 8.6255 8.53403 9.32583 8.73954 9.2631L8.73954 9.26306Z" fill="#FFCC00"/>
<path d="M7.03234 9.59116C7.03234 9.59116 7.60357 9.09823 7.26291 8.62603C7.07171 8.36102 8.05535 8.40765 7.60831 7.5481C7.52007 7.37843 6.66069 6.81964 6.96655 7.25565C7.27241 7.69166 5.84384 8.26595 6.84139 8.77113C7.37532 9.04149 6.8182 9.57336 7.03234 9.59115V9.59116Z" fill="#FFCC00"/>
<path d="M5.33477 9.26746C5.33477 9.26746 6.04741 9.01957 5.90456 8.4551C5.8244 8.1383 6.72174 8.54389 6.62266 7.58014C6.60311 7.3899 6.0099 6.55389 6.13372 7.07191C6.25753 7.58994 4.71784 7.59777 5.45927 8.43478C5.85609 8.88277 5.14227 9.17208 5.33481 9.2675L5.33477 9.26746Z" fill="#FFCC00"/>
<path d="M3.90666 8.37029C3.90666 8.37029 4.66075 8.39526 4.73047 7.81717C4.76959 7.49273 5.46102 8.19388 5.71515 7.25898C5.76531 7.07444 5.51244 6.08105 5.44167 6.60891C5.37091 7.13678 3.93142 6.59042 4.32221 7.63806C4.53138 8.19877 3.7613 8.21202 3.90664 8.37029H3.90666Z" fill="#FFCC00"/>
<path d="M5.31869 0.701334C5.31869 0.701334 4.97142 1.37116 5.46313 1.68305C5.7391 1.85807 4.80853 2.18019 5.54288 2.81214C5.68783 2.93689 6.6933 3.13645 6.24736 2.84527C5.80143 2.55408 6.91442 1.49019 5.80062 1.39176C5.20449 1.33908 5.52414 0.638315 5.3187 0.701366L5.31869 0.701334Z" fill="#FFCC00"/>
<path d="M3.80307 1.69047C3.80307 1.69047 3.7404 2.44239 4.31427 2.54094C4.63634 2.59625 3.90146 3.25173 4.82249 3.55233C5.00429 3.61167 6.0091 3.40882 5.48541 3.31173C4.96173 3.21464 5.57946 1.80428 4.51358 2.14219C3.94311 2.32304 3.96841 1.55324 3.80303 1.69047L3.80307 1.69047Z" fill="#FFCC00"/>
<path d="M2.75891 3.2511C2.75891 3.2511 3.00128 3.96563 3.56685 3.82716C3.88426 3.74944 3.47174 4.64361 4.43623 4.552C4.62662 4.53392 5.46718 3.9472 4.94823 4.06699C4.42929 4.18679 4.43334 2.6471 3.59063 3.38198C3.13959 3.77532 2.85582 3.05929 2.75891 3.25108V3.2511Z" fill="#FFCC00"/>
<path d="M2.42196 5.03059C2.42196 5.03059 2.9209 5.5966 3.38945 5.25093C3.65243 5.05693 3.61622 6.04099 4.47096 5.58489C4.63968 5.49486 5.18934 4.6296 4.7566 4.94008C4.32385 5.25056 3.73445 3.82813 3.23987 4.83098C2.97518 5.36771 2.43744 4.81628 2.42194 5.0306L2.42196 5.03059Z" fill="#FFCC00"/>
<path d="M2.76974 6.73858C2.76974 6.73858 3.44314 7.07892 3.74988 6.58401C3.92205 6.30625 4.25373 7.23344 4.8781 6.49261C5.00134 6.34638 5.19051 5.3389 4.90395 5.78785C4.61738 6.23679 3.54204 5.1348 3.45514 6.24961C3.40862 6.84626 2.70459 6.53385 2.76973 6.73859L2.76974 6.73858Z" fill="#FFCC00"/>
</g>
<path d="M7.04725 0.341644C7.04725 0.341644 6.46719 0.823263 6.79929 1.30156C6.95709 1.52883 6.27643 1.51842 6.32591 2.03607C6.28109 2.04454 6.23664 2.05384 6.19253 2.06424C6.28786 1.73129 6.318 1.41348 5.73231 1.36166C5.13617 1.30898 5.45685 0.607382 5.25142 0.670379C5.25142 0.670379 4.90434 1.34098 5.39606 1.65284C5.62352 1.7971 5.03099 2.04223 5.22699 2.47751C5.19591 2.4978 5.16524 2.51813 5.13495 2.5395C5.0912 2.21457 4.98152 1.94129 4.44553 2.1112C3.87504 2.29206 3.90081 1.52313 3.7355 1.66037C3.7355 1.66037 3.67257 2.41278 4.24644 2.51131C4.50362 2.55547 4.08737 2.98075 4.37794 3.30406C4.35037 3.34396 4.32473 3.38491 4.29904 3.42615C4.13381 3.16903 3.92481 3.00081 3.52324 3.35102C3.07219 3.74436 2.78796 3.02961 2.69106 3.2214C2.69106 3.2214 2.93323 3.93469 3.49884 3.79622C3.74262 3.73653 3.558 4.24995 3.8952 4.44993C3.88916 4.4808 3.8834 4.51266 3.87829 4.54386C3.63935 4.39035 3.39539 4.34817 3.17198 4.80121C2.90729 5.33795 2.3704 4.78601 2.35483 5.00032C2.35483 5.00032 2.85367 5.56577 3.32226 5.2201C3.51773 5.0759 3.54719 5.58299 3.90083 5.6653C3.9041 5.68109 3.90859 5.69657 3.91211 5.71226C3.64857 5.66995 3.42559 5.73739 3.38801 6.21945C3.34148 6.81611 2.63721 6.50309 2.70237 6.70786C2.70237 6.70786 3.37616 7.04874 3.68291 6.55382C3.80801 6.352 4.01643 6.78456 4.36103 6.75294C4.40282 6.81468 4.44834 6.87486 4.49441 6.93328C4.24958 7.00855 4.0916 7.16738 4.25584 7.60767C4.46501 8.16839 3.69347 8.18201 3.83881 8.34031C3.83881 8.34031 4.59375 8.36424 4.66348 7.78615C4.69172 7.55202 5.06036 7.85283 5.35849 7.6866C5.36213 7.68871 5.36612 7.69012 5.36976 7.69223C5.17075 7.85015 5.08247 8.05439 5.3923 8.40419C5.78912 8.85218 5.07391 9.14091 5.26644 9.23637C5.26644 9.23637 5.98033 8.98935 5.8375 8.42487C5.77885 8.19308 6.24262 8.34747 6.45737 8.06984C6.47111 8.07181 6.4849 8.0718 6.4987 8.07359C6.36483 8.2978 6.34999 8.52532 6.77484 8.74047C7.30875 9.01083 6.75042 9.54356 6.96456 9.56135C6.96456 9.56135 7.5363 9.06802 7.19562 8.59584C7.05175 8.39643 7.57186 8.37319 7.64833 8.00788C7.66355 8.00404 7.67829 7.9988 7.69341 7.99473C7.64189 8.26572 7.69838 8.49719 8.19121 8.54137C8.78729 8.59481 8.46659 9.29541 8.6721 9.23265C8.6721 9.23265 9.02066 8.56271 8.52934 8.25019C8.31391 8.11318 8.83431 7.88909 8.72282 7.49507C8.76326 7.46492 8.80419 7.43509 8.84305 7.40303C8.89886 7.69439 9.03053 7.91569 9.52495 7.75055C10.0926 7.56094 10.0793 8.33176 10.2426 8.19199C10.2426 8.19199 10.2938 7.43825 9.71846 7.34857C9.4569 7.30778 9.88147 6.86449 9.56067 6.54458C9.57658 6.51645 9.59259 6.48872 9.60763 6.46005C9.77461 6.73254 9.98367 6.92411 10.4004 6.56337C10.8528 6.17164 11.1331 6.88818 11.2306 6.69674C11.2306 6.69674 10.9908 5.98172 10.4248 6.11817C10.1596 6.18209 10.4054 5.57004 9.93263 5.41751C9.93714 5.38075 9.9407 5.34383 9.9439 5.30668C10.2144 5.51248 10.4957 5.6456 10.7554 5.12822C11.0239 4.59334 11.5574 5.14894 11.5744 4.93473C11.5744 4.93473 11.0799 4.36506 10.6089 4.70744C10.3833 4.87145 10.3811 4.1793 9.85187 4.25284C9.8402 4.20902 9.82972 4.16438 9.81617 4.12135C10.1579 4.21471 10.4882 4.25168 10.53 3.65361C10.5717 3.0566 11.2787 3.36381 11.2119 3.15957C11.2119 3.15957 10.536 2.82564 10.2332 3.323C10.0865 3.56405 9.81284 2.90796 9.34285 3.20465C9.31635 3.1694 9.29005 3.13538 9.26208 3.10133C9.62277 3.05874 9.96225 2.97691 9.76927 2.39502C9.58085 1.82698 10.352 1.84282 10.2126 1.67933C10.2126 1.67933 9.46005 1.62642 9.36916 2.20155C9.32496 2.48117 8.81929 1.97393 8.49755 2.43448C8.46798 2.4163 8.4376 2.3972 8.40738 2.38001C8.72716 2.2061 9.01415 2.00402 8.61777 1.53472C8.23163 1.07749 8.95265 0.806228 8.76241 0.706322C8.76241 0.706322 8.04306 0.936983 8.17257 1.50466C8.23509 1.77878 7.58866 1.50219 7.45496 2.0344C7.42112 2.02815 7.38774 2.02073 7.35352 2.01561C7.58067 1.73843 7.75922 1.448 7.22391 1.16467C6.69496 0.884703 7.26111 0.363567 7.04733 0.341867L7.04725 0.341644Z" fill="url(#paint0_radial_2_2469)"/>
<g opacity="0.18107">
<path d="M4.4965 6.93489C4.25164 7.01017 4.09364 7.16903 4.2579 7.60938C4.4671 8.17018 3.69545 8.1838 3.84082 8.34212C3.84082 8.34212 4.59586 8.36606 4.6656 7.78789C4.69384 7.55372 5.06253 7.85458 5.36071 7.68831C5.36435 7.69043 5.36834 7.69185 5.37198 7.69395C5.17294 7.8519 5.08465 8.05617 5.39453 8.40601C5.7914 8.85406 5.07609 9.14284 5.26865 9.23831C5.26865 9.23831 5.98263 8.99125 5.83979 8.42669C5.78113 8.19487 6.24497 8.34929 6.45975 8.07161C6.47349 8.07359 6.48728 8.07358 6.50108 8.07537C6.36719 8.2996 6.35235 8.52716 6.77726 8.74234C7.31125 9.01274 6.75284 9.54554 6.96701 9.56334C6.96701 9.56334 7.53883 9.06993 7.1981 8.59769C7.05421 8.39825 7.57439 8.37501 7.65088 8.00965C7.6661 8.0058 7.68084 8.00056 7.69597 7.99649C7.64444 8.26752 7.70094 8.49903 8.19383 8.54321C8.78999 8.59666 8.46925 9.29736 8.67479 9.23459C8.67479 9.23459 9.0234 8.56456 8.53201 8.25199C8.31655 8.11496 8.83702 7.89084 8.72552 7.49676C8.76596 7.46661 8.8069 7.43678 8.84576 7.40471C8.90158 7.69611 9.03327 7.91744 9.52776 7.75227C10.0955 7.56264 10.0822 8.33357 10.2455 8.19378C10.2455 8.19378 10.2967 7.43994 9.7213 7.35024C9.4597 7.30945 9.88433 6.86609 9.56348 6.54614C9.5794 6.518 9.59541 6.49027 9.61045 6.46159C9.77745 6.73413 9.98654 6.92573 10.4033 6.56493C10.8558 6.17315 11.1361 6.88979 11.2337 6.69832C11.2337 6.69832 10.9939 5.98319 10.4277 6.11967C10.1625 6.1836 10.4083 5.57146 9.93549 5.41891C9.94001 5.38214 9.94357 5.34522 9.94676 5.30806C10.2174 5.51389 10.4987 5.64703 10.7584 5.12958C11.0269 4.59462 11.5605 5.1503 11.5775 4.93606C11.5775 4.93606 11.0829 4.36631 10.6119 4.70874C10.3862 4.87277 10.384 4.18053 9.85472 4.25408C9.84305 4.21025 9.83257 4.1656 9.81902 4.12257C10.1608 4.21594 10.4911 4.25291 10.5329 3.65476C10.5747 3.05767 11.2817 3.36492 11.2149 3.16065C11.2149 3.16065 10.539 2.82667 10.2361 3.3241C10.0894 3.56519 9.81569 2.909 9.34564 3.20574C9.31913 3.17048 9.29283 3.13645 9.26485 3.1024C9.62559 3.0598 9.96513 2.97796 9.77211 2.39599C9.58367 1.82788 10.3549 1.84372 10.2155 1.6802C10.2155 1.6802 9.46285 1.62728 9.37195 2.2025C9.32774 2.48216 8.82201 1.97484 8.50021 2.43546C8.27651 6.38865 5.40283 4.57838 4.49658 6.93508L4.4965 6.93489Z" fill="white"/>
</g>
<g filter="url(#filter1_f_2_2469)">
<path d="M18.0551 7.47902C18.0551 9.98778 16.0214 12.0215 13.5126 12.0215C11.0039 12.0215 8.97015 9.98778 8.97015 7.47902C8.97015 4.97027 11.0039 2.93655 13.5126 2.93655C16.0214 2.93655 18.0551 4.97027 18.0551 7.47902V7.47902Z" fill="#ECECEC"/>
<path d="M16.4968 9.20266C16.4968 11.7114 14.0832 13.7451 11.1058 13.7451C8.12843 13.7451 5.71481 11.7114 5.71481 9.20266C5.71481 6.6939 8.12843 4.66019 11.1058 4.66019C14.0832 4.66019 16.4968 6.6939 16.4968 9.20266V9.20266Z" fill="#ECECEC"/>
<path d="M12.4731 8.51909C12.4731 10.6349 10.7579 12.3501 8.64205 12.3501C6.52622 12.3501 4.81104 10.6349 4.81104 8.51909C4.81104 6.40327 6.52622 4.68808 8.64205 4.68808C10.7579 4.68808 12.4731 6.40327 12.4731 8.51909V8.51909Z" fill="#ECECEC"/>
<path d="M10.9805 9.58622C10.9805 11.5056 9.28076 13.0615 7.184 13.0615C5.08724 13.0615 3.38751 11.5056 3.38751 9.58622C3.38751 7.66688 5.08724 6.11096 7.184 6.11096C9.28076 6.11096 10.9805 7.66688 10.9805 9.58622V9.58622Z" fill="#ECECEC"/>
<path d="M6.34361 9.72305C6.34361 11.0228 5.28999 12.0764 3.99026 12.0764C2.69053 12.0764 1.6369 11.0228 1.6369 9.72305C1.6369 8.42332 2.69053 7.36969 3.99026 7.36969C5.28999 7.36969 6.34361 8.42332 6.34361 9.72305V9.72305Z" fill="#ECECEC"/>
<path d="M20.2171 9.72292C20.2171 11.4307 18.8327 12.8151 17.1249 12.8151C15.4172 12.8151 14.0327 11.4307 14.0327 9.72292C14.0327 8.01515 15.4172 6.63074 17.1249 6.63074C18.8327 6.63074 20.2171 8.01515 20.2171 9.72292V9.72292Z" fill="#ECECEC"/>
<path d="M18.4932 9.09386C18.4932 10.8016 17.1088 12.1861 15.401 12.1861C13.6932 12.1861 12.3088 10.8016 12.3088 9.09386C12.3088 7.38609 13.6932 6.00168 15.401 6.00168C17.1088 6.00168 18.4932 7.38609 18.4932 9.09386V9.09386Z" fill="#ECECEC"/>
<g filter="url(#filter2_f_2_2469)">
<path d="M19.7932 8.65548C20.2037 9.71981 20.3371 11.0778 19.2865 11.0778C18.2358 11.0778 15.8518 10.0892 15.8518 9.03858C15.8518 7.98794 16.7035 7.13623 17.7541 7.13623C18.8048 7.13623 19.3828 7.59115 19.7933 8.65548H19.7932Z" fill="#F8F8F8"/>
</g>
<g filter="url(#filter3_f_2_2469)">
<path d="M16.8617 6.63079C16.8617 8.43523 15.0313 8.02108 13.2269 8.02108C11.4225 8.02108 10.3274 8.43522 10.3274 6.63079C10.3274 4.82637 11.7901 3.36359 13.5946 3.36359C15.399 3.36359 16.8618 4.82635 16.8618 6.63079H16.8617Z" fill="#D1D1D1"/>
</g>
<g filter="url(#filter4_f_2_2469)">
<path d="M10.5476 9.58641C10.5476 11.2868 9.04175 12.6653 7.18415 12.6653C5.32654 12.6653 3.82068 11.2868 3.82068 9.58641C3.82068 7.886 5.32654 6.50757 7.18415 6.50757C9.04175 6.50757 10.5476 7.886 10.5476 9.58641V9.58641Z" fill="#CCCCCC"/>
</g>
<g filter="url(#filter5_f_2_2469)">
<path d="M5.81106 9.76196C5.81106 10.943 4.91339 11.9004 3.80604 11.9004C2.6987 11.9004 1.80103 10.943 1.80103 9.76196C1.80103 8.58093 2.6987 7.62354 3.80604 7.62354C4.91339 7.62354 5.81106 8.58093 5.81106 9.76196V9.76196Z" fill="#CFCFCF"/>
</g>
<g opacity="0.86831" filter="url(#filter6_f_2_2469)">
<path d="M8.85145 11.1088C8.85145 12.2253 7.9971 12.7072 6.88053 12.7072C5.76396 12.7072 4.87573 12.5809 4.87573 11.4644C4.87573 10.3478 5.59463 10.3232 6.7112 10.3232C7.82777 10.3232 8.85145 9.99221 8.85145 11.1088Z" fill="#BDBDBD"/>
</g>
<g opacity="0.81481" filter="url(#filter7_f_2_2469)">
<path d="M14.6647 11.0396C14.6647 12.6887 12.8611 13.4003 11.212 13.4003C9.56296 13.4003 8.25107 13.2139 8.25107 11.5648C8.25107 9.91572 9.12495 9.11466 9.66552 10.6726C10.2698 12.4141 11.801 11.8286 14.6647 11.0396L14.6647 11.0396Z" fill="#BDBDBD"/>
</g>
<g filter="url(#filter8_f_2_2469)">
<path d="M7.26941 9.26928C7.26941 10.4678 6.40437 11.4393 5.33728 11.4393C4.27019 11.4393 3.40515 10.4678 3.40515 9.26928C3.40515 8.07081 4.27019 7.09927 5.33728 7.09927C6.40437 7.09927 7.26941 8.07081 7.26941 9.26928V9.26928Z" fill="#E9E9E9"/>
</g>
<g filter="url(#filter9_f_2_2469)">
<path d="M11.8138 8.09531C11.8138 9.81617 10.4188 11.2112 8.69791 11.2112C6.97705 11.2112 5.58203 9.81617 5.58203 8.09531C5.58203 6.37445 6.97705 4.97943 8.69791 4.97943C10.4188 4.97943 11.8138 6.37445 11.8138 8.09531V8.09531Z" fill="#C4C4C4"/>
</g>
<g filter="url(#filter10_f_2_2469)">
<path d="M12.8342 7.08891C12.8342 8.09024 11.4848 8.902 9.82016 8.902C8.15552 8.902 6.80609 8.09024 6.80609 7.08891C6.80609 6.08758 8.15552 5.27582 9.82016 5.27582C11.4848 5.27582 12.8342 6.08758 12.8342 7.08891V7.08891Z" fill="#E7E7E7"/>
</g>
<g opacity="0.81893" filter="url(#filter11_f_2_2469)">
<path d="M4.19691 8.15698C4.39618 8.52782 4.49161 8.89307 4.49825 9.56855C4.50858 10.6198 4.80429 10.7832 5.04885 10.8325C5.30429 10.8839 5.82011 10.1658 5.75872 9.73673C5.52426 8.41243 5.15687 7.04492 3.57803 7.48318C3.57803 7.48318 3.99761 7.78608 4.19689 8.15693L4.19691 8.15698Z" fill="white"/>
</g>
<g opacity="0.93827" filter="url(#filter12_f_2_2469)">
<path d="M17.171 6.77059C17.171 8.18594 16.0149 9.39131 14.7639 9.39131C13.5129 9.39131 15.5065 6.12914 12.6658 4.80193C11.3835 4.20283 13.2792 3.26254 14.5124 3.47258C16.119 3.74622 17.171 5.35521 17.171 6.77052V6.77059Z" fill="#FCFCFC"/>
</g>
<g opacity="0.97062" filter="url(#filter13_f_2_2469)">
<path d="M18.8729 11.9377C18.8729 13.047 15.6629 12.3638 15.1539 12.0551C14.6837 12.1722 11.2466 14.3678 11.9817 12.8715C12.471 11.8759 14.5627 12.2447 14.9855 11.6023C15.8727 12.1594 16.1056 12.0474 17.8277 12.0538L18.8726 11.9377L18.8729 11.9377Z" fill="#BDBDBD"/>
</g>
<g opacity="0.92181" filter="url(#filter14_f_2_2469)">
<path d="M8.98517 5.9895C9.27045 6.41193 9.40707 6.82798 9.41657 7.59742C9.43136 8.79487 9.50642 8.59405 9.85654 8.65025C10.2222 8.70888 11.6572 8.43258 11.5693 7.9439C11.2337 6.43539 10.3595 4.72282 8.09921 5.22214C8.09921 5.22214 8.69988 5.56717 8.98516 5.9896L8.98517 5.9895Z" fill="white"/>
</g>
<g opacity="0.72428" filter="url(#filter15_f_2_2469)">
<path d="M13.7575 7.47555C14.4745 8.31548 14.7433 10.4033 14.2051 10.8366C13.7514 9.50003 13.2185 8.55346 11.5576 8.2867C10.6215 8.13637 10.9292 7.04531 11.5535 6.72771C12.3671 6.31394 13.0403 6.63561 13.7573 7.47554L13.7575 7.47555Z" fill="#FCFCFC"/>
</g>
</g>
<g filter="url(#filter16_f_2_2469)">
<g filter="url(#filter17_f_2_2469)">
<path d="M9.20374 18.085L9.56328 18.22L8.30708 21.5654L7.94753 21.4304L9.20374 18.085Z" fill="#00C7FF" fill-opacity="0.46364"/>
<path d="M9.25231 18.7632L9.81757 18.6544L9.82083 19.2442L9.13333 19.1466L9.25232 18.7632L9.25231 18.7632Z" fill="#00C7FF" fill-opacity="0.46364"/>
<path d="M9.03357 18.6806L8.67964 18.2266L8.28896 18.6685L8.8708 19.0475L9.03356 18.6806L9.03357 18.6806Z" fill="#00C7FF" fill-opacity="0.46364"/>
<path d="M11.2888 19.8596L11.4476 20.2094L8.19374 21.6867L8.03496 21.337L11.2888 19.8596Z" fill="#00C7FF" fill-opacity="0.46364"/>
<path d="M10.8436 20.3736L11.3202 20.6963L10.9054 21.1157L10.4883 20.5606L10.8436 20.3736L10.8436 20.3736Z" fill="#00C7FF" fill-opacity="0.46364"/>
<path d="M10.7474 20.1605L10.8181 19.5892L10.2294 19.6254L10.3728 20.3049L10.7474 20.1605L10.7474 20.1605Z" fill="#00C7FF" fill-opacity="0.46364"/>
<path d="M11.508 22.5888L11.373 22.9484L8.02748 21.6921L8.16249 21.3326L11.508 22.5888Z" fill="#00C7FF" fill-opacity="0.46364"/>
<path d="M10.8297 22.6374L10.9385 23.2026L10.3487 23.2059L10.4463 22.5184L10.8297 22.6374L10.8297 22.6374Z" fill="#00C7FF" fill-opacity="0.46364"/>
<path d="M10.9124 22.4186L11.3663 22.0647L10.9244 21.674L10.5454 22.2559L10.9124 22.4186L10.9124 22.4186Z" fill="#00C7FF" fill-opacity="0.46364"/>
<path d="M9.73328 24.6737L9.38357 24.8325L7.90625 21.5787L8.25595 21.4199L9.73328 24.6737Z" fill="#00C7FF" fill-opacity="0.46364"/>
<path d="M9.21934 24.2285L8.89659 24.7051L8.47721 24.2904L9.03237 23.8733L9.21933 24.2285L9.21934 24.2285Z" fill="#00C7FF" fill-opacity="0.46364"/>
<path d="M9.43244 24.1323L10.0037 24.203L9.96748 23.6143L9.28806 23.7577L9.43245 24.1323L9.43244 24.1323Z" fill="#00C7FF" fill-opacity="0.46364"/>
<path d="M7.00397 24.8932L6.64442 24.7582L7.90062 21.4127L8.26017 21.5477L7.00397 24.8932Z" fill="#00C7FF" fill-opacity="0.46364"/>
<path d="M6.95539 24.2149L6.39013 24.3237L6.38687 23.7339L7.07437 23.8315L6.95538 24.2149L6.95539 24.2149Z" fill="#00C7FF" fill-opacity="0.46364"/>
<path d="M7.17413 24.2976L7.52807 24.7515L7.91874 24.3096L7.3369 23.9306L7.17414 24.2976L7.17413 24.2976Z" fill="#00C7FF" fill-opacity="0.46364"/>
<path d="M4.91916 23.1186L4.76039 22.7689L8.01424 21.2915L8.17301 21.6412L4.91916 23.1186Z" fill="#00C7FF" fill-opacity="0.46364"/>
<path d="M5.36441 22.6046L4.88778 22.2819L5.30253 21.8625L5.71964 22.4177L5.3644 22.6046L5.36441 22.6046Z" fill="#00C7FF" fill-opacity="0.46364"/>
<path d="M5.46062 22.8177L5.38989 23.389L5.97861 23.3528L5.83518 22.6733L5.46062 22.8177L5.46062 22.8177Z" fill="#00C7FF" fill-opacity="0.46364"/>
<path d="M4.69989 20.3893L4.8349 20.0298L8.18037 21.286L8.04537 21.6455L4.69989 20.3893Z" fill="#00C7FF" fill-opacity="0.46364"/>
<path d="M5.37816 20.3407L5.26935 19.7755L5.85917 19.7722L5.76155 20.4597L5.37816 20.3407L5.37816 20.3407Z" fill="#00C7FF" fill-opacity="0.46364"/>
<path d="M5.2955 20.5595L4.84154 20.9134L5.28344 21.3041L5.66245 20.7222L5.2955 20.5595L5.2955 20.5595Z" fill="#00C7FF" fill-opacity="0.46364"/>
<path d="M6.47452 18.3044L6.82422 18.1456L8.30155 21.3994L7.95184 21.5582L6.47452 18.3044Z" fill="#00C7FF" fill-opacity="0.46364"/>
<path d="M6.98846 18.7496L7.31121 18.273L7.73058 18.6877L7.17542 19.1048L6.98847 18.7496L6.98846 18.7496Z" fill="#00C7FF" fill-opacity="0.46364"/>
<path d="M6.77536 18.8458L6.20409 18.7751L6.24031 19.3638L6.91973 19.2204L6.77534 18.8458L6.77536 18.8458Z" fill="#00C7FF" fill-opacity="0.46364"/>
<path d="M8.86323 19.5379L9.44706 19.4594L9.42284 20.0759L10.0433 20.1291L9.66444 20.8034L9.04166 20.9919L9.17041 20.3703L8.58074 20.5467L8.86328 19.5379L8.86323 19.5379Z" fill="#00C7FF" fill-opacity="0.46364"/>
<path d="M9.99204 20.5935L10.4604 20.9508L10.0073 21.3696L10.4084 21.8459L9.66368 22.0548L9.09002 21.7477L9.62064 21.3992L9.07893 21.1069L9.99199 20.5934L9.99204 20.5935Z" fill="#00C7FF" fill-opacity="0.46364"/>
<path d="M10.0437 22.138L10.1222 22.7218L9.50571 22.6976L9.45251 23.318L8.77819 22.9392L8.5897 22.3164L9.21137 22.4452L9.03498 21.8555L10.0437 22.1381L10.0437 22.138Z" fill="#00C7FF" fill-opacity="0.46364"/>
<path d="M8.98818 23.2668L8.63088 23.7351L8.21208 23.2821L7.73576 23.6831L7.52683 22.9384L7.83391 22.3648L8.18245 22.8954L8.47469 22.3537L8.9882 23.2668L8.98818 23.2668Z" fill="#00C7FF" fill-opacity="0.46364"/>
<path d="M7.44365 23.3185L6.85982 23.397L6.88404 22.7805L6.26361 22.7273L6.64244 22.053L7.26522 21.8645L7.13647 22.4862L7.72614 22.3098L7.4436 23.3186L7.44365 23.3185Z" fill="#00C7FF" fill-opacity="0.46364"/>
<path d="M6.31483 22.263L5.8465 21.9057L6.29955 21.4869L5.89848 21.0106L6.64319 20.8016L7.21684 21.1087L6.68622 21.4573L7.22794 21.7495L6.31487 22.263L6.31483 22.263Z" fill="#00C7FF" fill-opacity="0.46364"/>
<path d="M6.26313 20.7184L6.18462 20.1346L6.80114 20.1588L6.85434 19.5384L7.52866 19.9172L7.71715 20.54L7.09548 20.4112L7.27187 21.0009L6.26311 20.7184L6.26313 20.7184Z" fill="#00C7FF" fill-opacity="0.46364"/>
<path d="M7.31866 19.5896L7.67597 19.1213L8.09476 19.5743L8.57108 19.1733L8.78002 19.918L8.47293 20.4916L8.12439 19.961L7.83215 20.5027L7.31865 19.5897L7.31866 19.5896Z" fill="#00C7FF" fill-opacity="0.46364"/>
</g>
<path d="M9.59271 18.2576L9.23427 18.1221L9.0286 18.6717L8.71141 18.2634L8.3192 18.706L8.87897 19.0709L8.69907 19.5509L8.60199 19.2115L8.126 19.6123L7.70549 19.1593L7.44999 19.4948L7.26881 19.0953L7.76107 18.7244L7.34254 18.311L7.08499 18.6896L6.85468 18.1822L6.50511 18.3423L6.74816 18.8756L6.23412 18.8111L6.27007 19.4022L6.92409 19.2626L7.12631 19.712L6.88482 19.5749L6.83076 20.1966L6.21464 20.1733L6.27075 20.5943L5.80185 20.4189L5.88917 19.8107L5.29869 19.8133L5.38486 20.262L4.86495 20.0659L4.73068 20.4274L5.28032 20.6331L4.87197 20.9503L5.31243 21.3416L5.67734 20.7818L6.18616 20.9735L5.92872 21.047L6.32952 21.523L5.87654 21.9435L6.18235 22.1766L5.70393 22.3929L5.33302 21.9006L4.91739 22.3183L5.29818 22.5767L4.79078 22.807L4.94871 23.1557L5.48419 22.9135L5.42058 23.4254L6.0086 23.3907L5.87212 22.7354L6.46156 22.4687L6.29434 22.7651L6.91383 22.8183L6.89048 23.4344L7.20198 23.3932L7.02617 23.8567L6.4171 23.7716L6.4197 24.3621L6.87154 24.2746L6.67448 24.7967L7.03381 24.9301L7.23949 24.3805L7.55889 24.7897L7.94888 24.3462L7.38911 23.9812L7.64764 23.2954L7.76641 23.7212L8.2424 23.3204L8.66069 23.7725L8.82071 23.5636L8.99926 23.9569L8.507 24.3278L8.92775 24.7421L9.18439 24.3657L9.41339 24.87L9.76297 24.7099L9.51991 24.1766L10.034 24.2411L9.9971 23.6522L9.34398 23.7896L9.03207 23.1016L9.48226 23.3547L9.53542 22.7352L10.1538 22.7595L10.118 22.5045L10.4662 22.6333L10.378 23.2437L10.9685 23.2411L10.8832 22.7902L11.4031 22.9863L11.5387 22.6279L10.9869 22.4213L11.3961 22.1019L10.9547 21.7128L10.5907 22.2704L9.93374 22.0236L10.4384 21.8826L10.0376 21.4066L10.4896 20.9883L10.2489 20.805L10.5655 20.6625L10.9364 21.1547L11.3507 20.734L10.9721 20.4764L11.4764 20.2474L11.3194 19.8965L10.7839 20.1387L10.8475 19.6269L10.2586 19.6637L10.3968 20.3146L9.8511 20.5629L10.0741 20.1677L9.45236 20.1136L9.47791 19.4984L9.10901 19.5473L9.23967 19.1946L9.85096 19.2806L9.84746 18.6923L9.39562 18.7798L9.59268 18.2577L9.59271 18.2576ZM9.20115 20.4068L9.09672 20.9046L8.49612 21.1797L8.73208 20.5493L9.20116 20.4068L9.20115 20.4068ZM8.15478 19.9989L8.39221 20.3618L8.14672 21.0219L7.89619 20.4753L8.15477 19.9989L8.15478 19.9989ZM9.28805 21.241L9.65012 21.4375L9.18494 21.7419L8.63842 21.5349L9.28805 21.241L9.28805 21.241ZM7.4961 20.5244L7.78607 21.1646L7.2839 20.9757L7.12618 20.4487L7.4961 20.5244L7.4961 20.5244ZM7.63183 21.5181L7.15653 21.733L6.71603 21.4942L7.02896 21.2907L7.63182 21.5181L7.63183 21.5181ZM9.13801 22.1365L9.24215 22.4839L8.70082 22.3721L8.48102 21.8897L9.13801 22.1365ZM7.77107 21.8747L7.57442 22.4021L7.16816 22.5237L7.25118 22.1103L7.77107 21.8747L7.77107 21.8747ZM8.12228 22.028L8.38727 22.609L8.21365 22.9338L7.93876 22.5169L8.12228 22.028Z" fill="url(#paint1_radial_2_2469)"/>
<path d="M6.07465 22.1521L5.59622 22.3684L5.22531 21.8761L4.80968 22.2937L5.19048 22.5522L4.68307 22.7825L4.841 23.1312L5.37649 22.889L5.31288 23.4008L5.9009 23.3662L5.76441 22.7109L6.35385 22.4442L6.18663 22.7406L6.80612 22.7937L6.78278 23.4099L7.09427 23.3686L6.91847 23.8322L6.3094 23.7471L6.312 24.3376L6.76383 24.2501L6.56677 24.7722L6.92611 24.9056L7.13179 24.356L7.45119 24.7652L7.84118 24.3216L7.2814 23.9567L7.53994 23.2709L7.65871 23.6967L8.1347 23.2959L8.55299 23.748L8.713 23.5391L8.89156 23.9324L8.3993 24.3033L8.82005 24.7176L9.07669 24.3412L9.30569 24.8455L9.65526 24.6854L9.41221 24.1521L9.92625 24.2166L9.8894 23.6277L9.23627 23.7651L8.92436 23.0771L9.37456 23.3302L9.42772 22.7107L10.0461 22.7349L10.0103 22.48L10.3585 22.6088L10.2703 23.2192L10.8608 23.2166L10.7755 22.7657L11.2954 22.9618L11.431 22.6034L10.8791 22.3968L11.2884 22.0774L10.847 21.6883L10.483 22.2459L9.82604 21.9991L10.3307 21.8581L9.92986 21.3821L10.3819 20.9638L10.1412 20.7805L10.4577 20.6379L10.8287 21.1302L11.243 20.7094L10.8644 20.4519L11.3687 20.2229L11.2117 19.872L10.6762 20.1142L10.7398 19.6023L10.1509 19.6392L10.2891 20.2901L9.74339 20.5384C9.74339 20.5384 8.94559 20.3346 8.02585 21.5027C7.22111 22.5248 6.07457 22.1521 6.07457 22.1521L6.07465 22.1521Z" fill="white" fill-opacity="0.51364"/>
<g filter="url(#filter18_f_2_2469)">
<path d="M18.1392 16.1455L18.3417 16.3398L16.5336 18.2239L16.3311 18.0296L18.1392 16.1455Z" fill="#00C7FF" fill-opacity="0.46364"/>
<path d="M17.9762 16.615L18.3871 16.7049L18.2192 17.1018L17.7858 16.8381L17.9762 16.615L17.9762 16.615Z" fill="#00C7FF" fill-opacity="0.46364"/>
<path d="M17.8532 16.4964L17.7465 16.0895L17.3567 16.2736L17.6381 16.6958L17.8532 16.4964L17.8532 16.4964Z" fill="#00C7FF" fill-opacity="0.46364"/>
<path d="M19.0275 17.9383L19.0332 18.2189L16.4225 18.2726L16.4167 17.992L19.0275 17.9383Z" fill="#00C7FF" fill-opacity="0.46364"/>
<path d="M18.5803 18.155L18.8073 18.5092L18.4079 18.6712L18.2879 18.1781L18.5803 18.155L18.5803 18.155Z" fill="#00C7FF" fill-opacity="0.46364"/>
<path d="M18.5771 17.9842L18.7894 17.621L18.3836 17.4756L18.284 17.9731L18.5771 17.9842L18.5771 17.9842Z" fill="#00C7FF" fill-opacity="0.46364"/>
<path d="M18.3877 19.834L18.1934 20.0365L16.3093 18.2284L16.5036 18.0259L18.3877 19.834Z" fill="#00C7FF" fill-opacity="0.46364"/>
<path d="M17.9183 19.671L17.8283 20.0819L17.4314 19.914L17.6951 19.4806L17.9182 19.671L17.9183 19.671Z" fill="#00C7FF" fill-opacity="0.46364"/>
<path d="M18.0368 19.548L18.4437 19.4412L18.2596 19.0515L17.8374 19.3329L18.0368 19.548L18.0368 19.548Z" fill="#00C7FF" fill-opacity="0.46364"/>
<path d="M16.5949 20.7222L16.3144 20.7279L16.2607 18.1172L16.5412 18.1114L16.5949 20.7222Z" fill="#00C7FF" fill-opacity="0.46364"/>
<path d="M16.3782 20.275L16.0241 20.502L15.8621 20.1026L16.3551 19.9826L16.3782 20.275L16.3782 20.275Z" fill="#00C7FF" fill-opacity="0.46364"/>
<path d="M16.5491 20.2718L16.9122 20.4841L17.0577 20.0783L16.5601 19.9787L16.5491 20.2718L16.5491 20.2718Z" fill="#00C7FF" fill-opacity="0.46364"/>
<path d="M14.6991 20.0826L14.4966 19.8882L16.3047 18.0042L16.5072 18.1985L14.6991 20.0826Z" fill="#00C7FF" fill-opacity="0.46364"/>
<path d="M14.862 19.6131L14.4511 19.5232L14.619 19.1262L15.0525 19.39L14.862 19.6131L14.862 19.6131Z" fill="#00C7FF" fill-opacity="0.46364"/>
<path d="M14.9851 19.7317L15.0918 20.1385L15.4815 19.9545L15.2001 19.5322L14.9851 19.7317L14.9851 19.7317Z" fill="#00C7FF" fill-opacity="0.46364"/>
<path d="M13.811 18.2899L13.8052 18.0093L16.4159 17.9556L16.4217 18.2362L13.811 18.2899Z" fill="#00C7FF" fill-opacity="0.46364"/>
<path d="M14.2581 18.0732L14.0312 17.719L14.4306 17.557L14.5506 18.05L14.2581 18.0731L14.2581 18.0732Z" fill="#00C7FF" fill-opacity="0.46364"/>
<path d="M14.2613 18.244L14.0491 18.6072L14.4548 18.7526L14.5544 18.255L14.2613 18.244L14.2613 18.244Z" fill="#00C7FF" fill-opacity="0.46364"/>
<path d="M14.4507 16.3941L14.645 16.1916L16.5291 17.9997L16.3348 18.2022L14.4507 16.3941Z" fill="#00C7FF" fill-opacity="0.46364"/>
<path d="M14.9202 16.5571L15.0101 16.1462L15.4071 16.314L15.1433 16.7475L14.9202 16.5571L14.9202 16.5571Z" fill="#00C7FF" fill-opacity="0.46364"/>
<path d="M14.8016 16.6801L14.3947 16.7868L14.5788 17.1766L15.001 16.8952L14.8016 16.6801L14.8016 16.6801Z" fill="#00C7FF" fill-opacity="0.46364"/>
<path d="M16.2434 15.5059L16.524 15.5001L16.5777 18.1108L16.2971 18.1166L16.2434 15.5059Z" fill="#00C7FF" fill-opacity="0.46364"/>
<path d="M16.4601 15.953L16.8143 15.7261L16.9763 16.1255L16.4833 16.2455L16.4602 15.953L16.4601 15.953Z" fill="#00C7FF" fill-opacity="0.46364"/>
<path d="M16.2893 15.9562L15.9261 15.744L15.7807 16.1497L16.2782 16.2493L16.2893 15.9562L16.2893 15.9562Z" fill="#00C7FF" fill-opacity="0.46364"/>
<path d="M17.4916 17.0229L17.9063 17.1386L17.7122 17.5455L18.1135 17.7601L17.6647 18.1037L17.1922 18.0507L17.4579 17.6704L17.0111 17.6188L17.4917 17.0229L17.4916 17.0229Z" fill="#00C7FF" fill-opacity="0.46364"/>
<path d="M17.9452 18.0571L18.1566 18.4321L17.7317 18.5826L17.8636 19.0181L17.3033 18.9437L17.0067 18.5721L17.4635 18.491L17.184 18.1386L17.9452 18.0571L17.9452 18.0571Z" fill="#00C7FF" fill-opacity="0.46364"/>
<path d="M17.5345 19.1091L17.4189 19.5238L17.0119 19.3297L16.7973 19.731L16.4538 19.2822L16.5068 18.8097L16.8871 19.0754L16.9387 18.6286L17.5345 19.1092L17.5345 19.1091Z" fill="#00C7FF" fill-opacity="0.46364"/>
<path d="M16.5003 19.5627L16.1254 19.7741L15.9748 19.3491L15.5394 19.4811L15.6138 18.9208L15.9854 18.6242L16.0664 19.081L16.4189 18.8015L16.5004 19.5626L16.5003 19.5627Z" fill="#00C7FF" fill-opacity="0.46364"/>
<path d="M15.4483 19.152L15.0337 19.0364L15.2277 18.6294L14.8265 18.4148L15.2753 18.0713L15.7478 18.1243L15.4821 18.5046L15.9289 18.5562L15.4483 19.152L15.4483 19.152Z" fill="#00C7FF" fill-opacity="0.46364"/>
<path d="M14.9948 18.1178L14.7834 17.7429L15.2083 17.5923L15.0764 17.1569L15.6366 17.2313L15.9333 17.6029L15.4765 17.6839L15.756 18.0363L14.9948 18.1178L14.9948 18.1178Z" fill="#00C7FF" fill-opacity="0.46364"/>
<path d="M15.4054 17.0658L15.5211 16.6512L15.928 16.8452L16.1427 16.444L16.4862 16.8928L16.4332 17.3653L16.0529 17.0996L16.0013 17.5464L15.4055 17.0658L15.4054 17.0658Z" fill="#00C7FF" fill-opacity="0.46364"/>
<path d="M16.4396 16.6123L16.8146 16.4009L16.9652 16.8258L17.4006 16.6939L17.3262 17.2541L16.9546 17.5508L16.8736 17.094L16.5211 17.3734L16.4396 16.6123L16.4396 16.6123Z" fill="#00C7FF" fill-opacity="0.46364"/>
</g>
<path d="M18.3506 16.3737L18.149 16.1793L17.8524 16.489L17.7572 16.1234L17.3662 16.3075L17.6368 16.7139L17.3776 16.9843L17.4103 16.7285L16.9752 16.8603L16.8234 16.4349L16.5551 16.5865L16.5487 16.266L16.9862 16.1589L16.8243 15.7606L16.5423 15.9406L16.5339 15.5335L16.253 15.5402L16.2625 15.9684L15.9359 15.7768L15.7896 16.1841L16.269 16.2789L16.2752 16.639L16.1526 16.4773L15.937 16.8792L15.5301 16.6859L15.4463 16.9847L15.1821 16.7317L15.4161 16.3486L15.0188 16.18L14.9473 16.5062L14.6548 16.2246L14.4604 16.4286L14.7701 16.7252L14.4045 16.8204L14.5874 17.2101L14.9938 16.9395L15.2802 17.2149L15.0861 17.1901L15.218 17.6252L14.7926 17.777L14.9307 18.0216L14.5471 18.0289L14.44 17.5914L14.0405 17.752L14.2217 18.0353L13.8146 18.0437L13.8201 18.3233L14.2495 18.3151L14.0592 18.6404L14.464 18.7867L14.5613 18.3074L15.034 18.2982L14.8362 18.4491L15.2369 18.6634L15.0435 19.0703L15.2646 19.1325L15.0129 19.393L14.6284 19.1603L14.4599 19.5575L14.7885 19.629L14.5057 19.9228L14.7085 20.1159L15.0051 19.8062L15.1015 20.1731L15.4913 19.9877L15.2206 19.5813L15.592 19.1953L15.5489 19.5155L15.9841 19.3836L16.1346 19.8078L16.3023 19.7137L16.3088 20.0292L15.8713 20.1363L16.0343 20.5358L16.3152 20.3571L16.3235 20.7617L16.6044 20.755L16.595 20.3269L16.9215 20.5184L17.0666 20.1123L16.5885 20.0163L16.5774 19.4644L16.8067 19.7641L17.021 19.3635L17.4292 19.5581L17.4787 19.3766L17.6754 19.5635L17.4401 19.9479L17.8374 20.1164L17.9101 19.7891L18.2026 20.0707L18.397 19.8691L18.0861 19.5713L18.4529 19.4748L18.2688 19.0863L17.8636 19.3557L17.4937 19.0006L17.8731 19.0514L17.7413 18.6163L18.1654 18.4658L18.0566 18.2732L18.3103 18.2688L18.4174 18.7063L18.8169 18.5432L18.637 18.2611L19.0416 18.2528L19.0373 17.9719L18.608 17.9801L18.7983 17.6548L18.3922 17.5097L18.2974 17.9866L17.8593 17.996L18.123 17.7949L17.7212 17.5793L17.9157 17.1736L17.6539 17.1001L17.8434 16.901L18.229 17.135L18.3963 16.739L18.0677 16.6674L18.3505 16.3737L18.3506 16.3737ZM17.468 17.7038L17.2543 18.0079L16.7717 18.0194L17.1119 17.6642L17.468 17.7038L17.468 17.7038ZM16.883 17.1282L16.9378 17.4403L16.5826 17.8128L16.572 17.3735L16.883 17.1282L16.883 17.1282ZM17.2858 18.2889L17.4722 18.5253L17.0721 18.5955L16.7648 18.299L17.2858 18.2889L17.2858 18.2889ZM16.2892 17.2911L16.2993 17.8046L16.0166 17.5329L16.0627 17.1336L16.2892 17.2911L16.2892 17.2911ZM16.0938 17.9974L15.7127 18.0047L15.4858 17.7173L15.7546 17.6709L16.0938 17.9974L16.0938 17.9974ZM16.9268 18.8469L16.8966 19.1102L16.5653 18.8791L16.5569 18.4918L16.9268 18.8469ZM16.0845 18.277L15.8004 18.5744L15.4926 18.5389L15.6675 18.2853L16.0845 18.277L16.0845 18.277ZM16.2761 18.4812L16.2865 18.9477L16.0763 19.1158L16.0119 18.7565L16.2761 18.4812Z" fill="url(#paint2_radial_2_2469)"/>
<path d="M14.8655 17.9741L14.4819 17.9814L14.3748 17.5439L13.9753 17.7045L14.1564 17.9878L13.7494 17.9961L13.7549 18.2758L14.1842 18.2676L13.9939 18.5929L14.3987 18.7392L14.496 18.2598L14.9687 18.2507L14.771 18.4015L15.1716 18.6158L14.9783 19.0228L15.1993 19.0849L14.9476 19.3455L14.5632 19.1127L14.3947 19.51L14.7233 19.5815L14.4404 19.8752L14.6432 20.0684L14.9398 19.7587L15.0363 20.1255L15.426 19.9402L15.1554 19.5337L15.5267 19.1478L15.4837 19.4679L15.9189 19.3361L16.0693 19.7602L16.237 19.6661L16.2435 19.9817L15.806 20.0888L15.9691 20.4883L16.2499 20.3096L16.2583 20.7142L16.5392 20.7075L16.5297 20.2793L16.8563 20.4708L17.0013 20.0648L16.5232 19.9687L16.5121 19.4169L16.7414 19.7166L16.9558 19.316L17.3639 19.5106L17.4134 19.329L17.6101 19.516L17.3749 19.9004L17.7721 20.0689L17.8449 19.7415L18.1374 20.0231L18.3318 19.8216L18.0208 19.5237L18.3877 19.4273L18.2035 19.0388L17.7984 19.3082L17.4284 18.953L17.8079 19.0039L17.676 18.5687L18.1002 18.4182L17.9914 18.2257L18.245 18.2213L18.3521 18.6587L18.7516 18.4957L18.5717 18.2136L18.9763 18.2053L18.9721 17.9244L18.5427 17.9326L18.733 17.6073L18.3269 17.4622L18.2321 17.9391L17.7941 17.9485C17.7941 17.9485 17.3172 17.5816 16.3628 18.1007C15.5278 18.5549 14.8654 17.9741 14.8654 17.9741L14.8655 17.9741Z" fill="white" fill-opacity="0.51364"/>
<g filter="url(#filter19_f_2_2469)">
<path d="M4.4447 14.5379L4.66272 14.6219L3.88065 16.6505L3.66264 16.5664L4.4447 14.5379Z" fill="#00C7FF" fill-opacity="0.46364"/>
<path d="M4.47063 14.9508L4.81509 14.8876L4.81393 15.2464L4.3962 15.1834L4.47064 14.9508L4.47063 14.9508Z" fill="#00C7FF" fill-opacity="0.46364"/>
<path d="M4.33801 14.8993L4.12511 14.6213L3.88508 14.888L4.23703 15.1217L4.338 14.8993L4.33801 14.8993Z" fill="#00C7FF" fill-opacity="0.46364"/>
<path d="M5.7037 15.6286L5.79843 15.8422L3.81104 16.7236L3.71631 16.51L5.7037 15.6286Z" fill="#00C7FF" fill-opacity="0.46364"/>
<path d="M5.4301 15.9389L5.71834 16.1378L5.46379 16.3907L5.213 16.0508L5.4301 15.9389L5.4301 15.9389Z" fill="#00C7FF" fill-opacity="0.46364"/>
<path d="M5.3727 15.8088L5.41878 15.4616L5.06043 15.4805L5.14406 15.8946L5.3727 15.8088L5.3727 15.8088Z" fill="#00C7FF" fill-opacity="0.46364"/>
<path d="M5.82251 17.2901L5.73846 17.5081L3.7099 16.7261L3.79395 16.5081L5.82251 17.2901Z" fill="#00C7FF" fill-opacity="0.46364"/>
<path d="M5.40961 17.3161L5.47279 17.6605L5.11395 17.6594L5.177 17.2416L5.40961 17.3161L5.40961 17.3161Z" fill="#00C7FF" fill-opacity="0.46364"/>
<path d="M5.46105 17.1834L5.73911 16.9705L5.47236 16.7305L5.23868 17.0825L5.46105 17.1834L5.46105 17.1834Z" fill="#00C7FF" fill-opacity="0.46364"/>
<path d="M4.73172 18.549L4.51813 18.6438L3.63674 16.6564L3.85033 16.5616L4.73172 18.549Z" fill="#00C7FF" fill-opacity="0.46364"/>
<path d="M4.42141 18.2754L4.22252 18.5637L3.9696 18.3091L4.30956 18.0583L4.4214 18.2754L4.42141 18.2754Z" fill="#00C7FF" fill-opacity="0.46364"/>
<path d="M4.55158 18.218L4.89874 18.2641L4.87984 17.9058L4.46574 17.9894L4.55158 18.218L4.55158 18.218Z" fill="#00C7FF" fill-opacity="0.46364"/>
<path d="M3.07013 18.668L2.85211 18.584L3.63418 16.5554L3.8522 16.6395L3.07013 18.668Z" fill="#00C7FF" fill-opacity="0.46364"/>
<path d="M3.0442 18.2551L2.69974 18.3183L2.7009 17.9595L3.11863 18.0225L3.0442 18.2551L3.0442 18.2551Z" fill="#00C7FF" fill-opacity="0.46364"/>
<path d="M3.17682 18.3066L3.38972 18.5846L3.62975 18.3179L3.2778 18.0842L3.17683 18.3066L3.17682 18.3066Z" fill="#00C7FF" fill-opacity="0.46364"/>
<path d="M1.81131 17.5773L1.71658 17.3637L3.70398 16.4823L3.7987 16.6959L1.81131 17.5773Z" fill="#00C7FF" fill-opacity="0.46364"/>
<path d="M2.08492 17.267L1.79667 17.0681L2.05123 16.8151L2.30202 17.1551L2.08491 17.267L2.08492 17.267Z" fill="#00C7FF" fill-opacity="0.46364"/>
<path d="M2.14231 17.3971L2.09624 17.7443L2.45458 17.7254L2.37095 17.3113L2.14232 17.3971L2.14231 17.3971Z" fill="#00C7FF" fill-opacity="0.46364"/>
<path d="M1.69244 15.9157L1.77649 15.6977L3.80505 16.4798L3.721 16.6978L1.69244 15.9157Z" fill="#00C7FF" fill-opacity="0.46364"/>
<path d="M2.10535 15.8898L2.04216 15.5453L2.40101 15.5465L2.33795 15.9642L2.10535 15.8898L2.10535 15.8898Z" fill="#00C7FF" fill-opacity="0.46364"/>
<path d="M2.0539 16.0224L1.77584 16.2353L2.0426 16.4753L2.27627 16.1234L2.0539 16.0224L2.0539 16.0224Z" fill="#00C7FF" fill-opacity="0.46364"/>
<path d="M2.78317 14.6568L2.99676 14.5621L3.87816 16.5495L3.66457 16.6442L2.78317 14.6568Z" fill="#00C7FF" fill-opacity="0.46364"/>
<path d="M3.09348 14.9304L3.29237 14.6422L3.54529 14.8967L3.20533 15.1475L3.09349 14.9304L3.09348 14.9304Z" fill="#00C7FF" fill-opacity="0.46364"/>
<path d="M2.96332 14.9878L2.61616 14.9417L2.63505 15.3001L3.04915 15.2164L2.96331 14.9878L2.96332 14.9878Z" fill="#00C7FF" fill-opacity="0.46364"/>
<path d="M4.2298 15.42L4.5854 15.3753L4.56737 15.7503L4.94454 15.7859L4.71048 16.1941L4.3306 16.3055L4.41224 15.928L4.05257 16.0321L4.22983 15.42L4.2298 15.42Z" fill="#00C7FF" fill-opacity="0.46364"/>
<path d="M4.9109 16.0681L5.1939 16.288L4.91605 16.5404L5.1575 16.8323L4.70334 16.9554L4.35599 16.7655L4.68065 16.5563L4.35266 16.3757L4.91087 16.0681L4.9109 16.0681Z" fill="#00C7FF" fill-opacity="0.46364"/>
<path d="M4.9341 17.0081L4.97874 17.3637L4.60381 17.3457L4.56813 17.7228L4.15992 17.4888L4.04857 17.1089L4.42609 17.1905L4.32193 16.8308L4.93411 17.0081L4.9341 17.0081Z" fill="#00C7FF" fill-opacity="0.46364"/>
<path d="M4.28595 17.6891L4.06609 17.9721L3.81372 17.6943L3.52181 17.9358L3.39867 17.4816L3.58855 17.1342L3.79776 17.4589L3.97844 17.1309L4.28596 17.6891L4.28595 17.6891Z" fill="#00C7FF" fill-opacity="0.46364"/>
<path d="M3.34601 17.7124L2.99041 17.757L3.00844 17.3821L2.63127 17.3464L2.86533 16.9382L3.24521 16.8269L3.16357 17.2044L3.52324 17.1002L3.34598 17.7124L3.34601 17.7124Z" fill="#00C7FF" fill-opacity="0.46364"/>
<path d="M2.66491 17.0642L2.38191 16.8444L2.65976 16.592L2.4183 16.3001L2.87247 16.1769L3.21982 16.3668L2.89515 16.576L3.22315 16.7567L2.66494 17.0642L2.66491 17.0642Z" fill="#00C7FF" fill-opacity="0.46364"/>
<path d="M2.64169 16.1243L2.59705 15.7687L2.97198 15.7867L3.00765 15.4096L3.41586 15.6436L3.52721 16.0235L3.1497 15.9419L3.25386 16.3015L2.64168 16.1243L2.64169 16.1243Z" fill="#00C7FF" fill-opacity="0.46364"/>
<path d="M3.28988 15.4432L3.50974 15.1602L3.76211 15.438L4.05402 15.1966L4.17715 15.6507L3.98728 15.9981L3.77807 15.6734L3.59739 16.0014L3.28986 15.4432L3.28988 15.4432Z" fill="#00C7FF" fill-opacity="0.46364"/>
</g>
<path d="M4.68042 14.645L4.46309 14.5606L4.33503 14.8939L4.14424 14.6438L3.90328 14.911L4.24188 15.136L4.12987 15.427L4.07262 15.22L3.78091 15.4613L3.52751 15.1835L3.37028 15.3862L3.26219 15.1422L3.56364 14.9192L3.31122 14.6655L3.15253 14.8944L3.01512 14.5845L2.8016 14.6801L2.94662 15.0058L2.63424 14.9638L2.65296 15.3236L3.05158 15.2422L3.17221 15.5167L3.02603 15.432L2.98982 15.8099L2.61512 15.7924L2.64701 16.0488L2.36269 15.9396L2.41906 15.5701L2.05981 15.5685L2.10985 15.842L1.7946 15.7199L1.71099 15.9391L2.04427 16.0671L1.79416 16.2579L2.06002 16.4983L2.28501 16.1597L2.59353 16.279L2.43652 16.3224L2.67782 16.6141L2.39999 16.8675L2.5848 17.011L2.29259 17.14L2.06957 16.8385L1.81449 17.0904L2.04477 17.2497L1.73486 17.3871L1.82908 17.6L2.15613 17.4556L2.11471 17.7666L2.47262 17.7487L2.39308 17.3493L2.7531 17.1901L2.64979 17.3696L3.02637 17.4052L3.00889 17.7799L3.19861 17.7565L3.08918 18.0376L2.7191 17.9826L2.71754 18.3418L2.99288 18.291L2.87021 18.6076L3.0881 18.6906L3.21616 18.3574L3.40829 18.608L3.64791 18.3403L3.30931 18.1153L3.47026 17.6994L3.54024 17.9591L3.83195 17.7178L4.08401 17.9951L4.18247 17.8688L4.289 18.109L3.98755 18.3321L4.24131 18.5864L4.39944 18.3588L4.53607 18.6668L4.74959 18.5712L4.60457 18.2455L4.91695 18.2875L4.89767 17.929L4.4996 18.0091L4.31352 17.5889L4.58605 17.7453L4.62169 17.3687L4.99773 17.3867L4.97732 17.2314L5.1885 17.3117L5.13157 17.6825L5.49081 17.6841L5.44134 17.4093L5.75658 17.5314L5.84098 17.3141L5.50636 17.1855L5.75703 16.9933L5.4906 16.7543L5.26618 17.0915L4.86781 16.9379L5.17556 16.8548L4.93426 16.5631L5.21152 16.311L5.06603 16.1982L5.25938 16.1132L5.4824 16.4146L5.7367 16.1609L5.50775 16.0022L5.81576 15.8656L5.72211 15.6513L5.39505 15.7957L5.43648 15.4847L5.078 15.504L5.15866 15.9007L4.82532 16.0488L4.96307 15.8096L4.58514 15.7734L4.60397 15.3992L4.37928 15.427L4.46065 15.2131L4.83208 15.2687L4.83308 14.9108L4.55774 14.9616L4.68041 14.645L4.68042 14.645ZM4.43075 15.9504L4.36457 16.2527L3.99772 16.4168L4.14463 16.0346L4.43076 15.9504L4.43075 15.9504ZM3.79636 15.6967L3.93886 15.9187L3.786 16.319L3.6365 15.9851L3.79635 15.6967L3.79636 15.6967ZM4.47917 16.4584L4.69839 16.5798L4.41377 16.7625L4.08239 16.6337L4.47917 16.4584L4.47917 16.4584ZM3.39284 16.0128L3.56583 16.4039L3.26134 16.2863L3.1682 15.9648L3.39284 16.0128L3.39284 16.0128ZM3.47011 16.6181L3.17982 16.7463L2.91311 16.5987L3.10457 16.4766L3.47011 16.6181L3.47011 16.6181ZM4.38311 17.0023L4.44462 17.2143L4.11589 17.1433L3.98475 16.8487L4.38311 17.0023ZM3.55292 16.8358L3.43047 17.1556L3.18267 17.2274L3.23538 16.9763L3.55292 16.8358L3.55292 16.8358ZM3.76576 16.9309L3.92387 17.2858L3.81652 17.4825L3.65151 17.2273L3.76576 16.9309Z" fill="url(#paint3_radial_2_2469)"/>
<path d="M2.51939 16.9955L2.22718 17.1245L2.00416 16.823L1.74908 17.0749L1.97936 17.2341L1.66945 17.3716L1.76367 17.5845L2.09073 17.4401L2.0493 17.7511L2.40721 17.7332L2.32768 17.3337L2.68769 17.1746L2.58438 17.3541L2.96097 17.3897L2.94348 17.7644L3.1332 17.741L3.02378 18.0221L2.6537 17.9671L2.65213 18.3263L2.92748 18.2755L2.80481 18.5921L3.0227 18.6751L3.15076 18.3419L3.34289 18.5925L3.58251 18.3248L3.24391 18.0998L3.40485 17.6839L3.47483 17.9436L3.76654 17.7023L4.0186 17.9796L4.11706 17.8533L4.22359 18.0935L3.92215 18.3166L4.1759 18.5708L4.33404 18.3433L4.47066 18.6513L4.68419 18.5557L4.53916 18.23L4.85154 18.272L4.83226 17.9135L4.4342 17.9936L4.24811 17.5734L4.52064 17.7298L4.55629 17.3532L4.93233 17.3712L4.91192 17.2159L5.12309 17.2962L5.06616 17.667L5.42541 17.6686L5.37594 17.3938L5.69118 17.5159L5.77558 17.2986L5.44095 17.17L5.69162 16.9778L5.42519 16.7388L5.20077 17.076L4.8024 16.9224L5.11015 16.8393L4.86886 16.5476L5.14612 16.2955L5.00063 16.1827L5.19397 16.0977L5.417 16.3991L5.67129 16.1454L5.44235 15.9867L5.75036 15.8501L5.6567 15.6357L5.32964 15.7802L5.37107 15.4692L5.0126 15.4885L5.09325 15.8852L4.75992 16.0333C4.75992 16.0333 4.27565 15.9051 3.70989 16.6108C3.21487 17.2283 2.51935 16.9955 2.51935 16.9955L2.51939 16.9955Z" fill="white" fill-opacity="0.51364"/>
<g filter="url(#filter20_f_2_2469)">
<path d="M8.93475 14.0471L9.0949 14.1089L8.52042 15.599L8.36027 15.5372L8.93475 14.0471Z" fill="#00C7FF" fill-opacity="0.46364"/>
<path d="M8.95382 14.3504L9.20685 14.304L9.206 14.5676L8.89915 14.5213L8.95382 14.3504L8.95382 14.3504Z" fill="#00C7FF" fill-opacity="0.46364"/>
<path d="M8.8564 14.3126L8.70001 14.1083L8.52369 14.3043L8.78222 14.476L8.85639 14.3126L8.8564 14.3126Z" fill="#00C7FF" fill-opacity="0.46364"/>
<path d="M9.85959 14.8484L9.92917 15.0053L8.46928 15.6527L8.3997 15.4958L9.85959 14.8484Z" fill="#00C7FF" fill-opacity="0.46364"/>
<path d="M9.65861 15.0763L9.87035 15.2224L9.68336 15.4082L9.49913 15.1585L9.65861 15.0763L9.65861 15.0763Z" fill="#00C7FF" fill-opacity="0.46364"/>
<path d="M9.61646 14.9807L9.6503 14.7257L9.38707 14.7396L9.4485 15.0438L9.61645 14.9807L9.61646 14.9807Z" fill="#00C7FF" fill-opacity="0.46364"/>
<path d="M9.94684 16.0688L9.8851 16.229L8.39497 15.6545L8.45671 15.4944L9.94684 16.0688Z" fill="#00C7FF" fill-opacity="0.46364"/>
<path d="M9.64356 16.0879L9.68997 16.3409L9.42637 16.3401L9.47269 16.0332L9.64355 16.0879L9.64356 16.0879Z" fill="#00C7FF" fill-opacity="0.46364"/>
<path d="M9.68135 15.9905L9.88561 15.8341L9.68966 15.6578L9.51801 15.9163L9.68136 15.9905L9.68135 15.9905Z" fill="#00C7FF" fill-opacity="0.46364"/>
<path d="M9.1456 16.9936L8.9887 17.0632L8.34125 15.6033L8.49815 15.5337L9.1456 16.9936Z" fill="#00C7FF" fill-opacity="0.46364"/>
<path d="M8.91768 16.7926L8.77158 17.0044L8.58579 16.8174L8.83552 16.6332L8.91768 16.7926L8.91768 16.7926Z" fill="#00C7FF" fill-opacity="0.46364"/>
<path d="M9.01328 16.7505L9.26829 16.7843L9.25441 16.5211L8.95023 16.5825L9.01329 16.7505L9.01328 16.7505Z" fill="#00C7FF" fill-opacity="0.46364"/>
<path d="M7.92505 17.081L7.7649 17.0193L8.33939 15.5292L8.49953 15.5909L7.92505 17.081Z" fill="#00C7FF" fill-opacity="0.46364"/>
<path d="M7.90599 16.7777L7.65295 16.8242L7.65381 16.5606L7.96066 16.6069L7.90598 16.7777L7.90599 16.7777Z" fill="#00C7FF" fill-opacity="0.46364"/>
<path d="M8.0034 16.8155L8.15979 17.0198L8.33611 16.8238L8.07758 16.6522L8.00341 16.8155L8.0034 16.8155Z" fill="#00C7FF" fill-opacity="0.46364"/>
<path d="M7.00034 16.2798L6.93075 16.1229L8.39064 15.4754L8.46023 15.6323L7.00034 16.2798Z" fill="#00C7FF" fill-opacity="0.46364"/>
<path d="M7.20131 16.0518L6.98958 15.9057L7.17657 15.7199L7.36079 15.9697L7.20131 16.0518L7.20131 16.0518Z" fill="#00C7FF" fill-opacity="0.46364"/>
<path d="M7.24347 16.1475L7.20962 16.4025L7.47285 16.3886L7.41142 16.0844L7.24347 16.1475L7.24347 16.1475Z" fill="#00C7FF" fill-opacity="0.46364"/>
<path d="M6.91302 15.0593L6.97477 14.8991L8.46489 15.4736L8.40315 15.6338L6.91302 15.0593Z" fill="#00C7FF" fill-opacity="0.46364"/>
<path d="M7.21631 15.0402L7.16989 14.7872L7.43349 14.7881L7.38717 15.0949L7.21631 15.0402L7.21631 15.0402Z" fill="#00C7FF" fill-opacity="0.46364"/>
<path d="M7.17851 15.1377L6.97425 15.294L7.1702 15.4704L7.34186 15.2118L7.17851 15.1377L7.17851 15.1377Z" fill="#00C7FF" fill-opacity="0.46364"/>
<path d="M7.71423 14.1345L7.87113 14.0649L8.51858 15.5248L8.36168 15.5944L7.71423 14.1345Z" fill="#00C7FF" fill-opacity="0.46364"/>
<path d="M7.94215 14.3355L8.08825 14.1237L8.27404 14.3107L8.02431 14.4949L7.94216 14.3355L7.94215 14.3355Z" fill="#00C7FF" fill-opacity="0.46364"/>
<path d="M7.84655 14.3776L7.59154 14.3438L7.60542 14.607L7.9096 14.5456L7.84655 14.3776L7.84655 14.3776Z" fill="#00C7FF" fill-opacity="0.46364"/>
<path d="M8.77691 14.6951L9.03812 14.6623L9.02488 14.9377L9.30193 14.9639L9.13 15.2638L8.85095 15.3456L8.91092 15.0683L8.64671 15.1448L8.77693 14.6951L8.77691 14.6951Z" fill="#00C7FF" fill-opacity="0.46364"/>
<path d="M9.27722 15.1712L9.48511 15.3327L9.281 15.5181L9.45837 15.7325L9.12475 15.823L8.8696 15.6835L9.10809 15.5298L8.86715 15.3971L9.2772 15.1712L9.27722 15.1712Z" fill="#00C7FF" fill-opacity="0.46364"/>
<path d="M9.29427 15.8617L9.32706 16.1229L9.05165 16.1096L9.02544 16.3867L8.72558 16.2148L8.64378 15.9357L8.9211 15.9957L8.84458 15.7315L9.29428 15.8617L9.29427 15.8617Z" fill="#00C7FF" fill-opacity="0.46364"/>
<path d="M8.81812 16.362L8.65662 16.5699L8.47124 16.3658L8.2568 16.5431L8.16635 16.2095L8.30583 15.9544L8.45951 16.1929L8.59223 15.9519L8.81813 16.362L8.81812 16.362Z" fill="#00C7FF" fill-opacity="0.46364"/>
<path d="M8.12769 16.3791L7.86648 16.4118L7.87972 16.1364L7.60267 16.1102L7.7746 15.8104L8.05365 15.7286L7.99368 16.0059L8.25789 15.9294L8.12767 16.3791L8.12769 16.3791Z" fill="#00C7FF" fill-opacity="0.46364"/>
<path d="M7.62737 15.9029L7.41948 15.7414L7.62358 15.556L7.44622 15.3416L7.77983 15.2512L8.03499 15.3906L7.7965 15.5443L8.03744 15.677L7.62739 15.9029L7.62737 15.9029Z" fill="#00C7FF" fill-opacity="0.46364"/>
<path d="M7.61033 15.2125L7.57753 14.9512L7.85295 14.9645L7.87915 14.6874L8.17901 14.8594L8.26081 15.1384L7.9835 15.0784L8.06001 15.3426L7.61032 15.2124L7.61033 15.2125Z" fill="#00C7FF" fill-opacity="0.46364"/>
<path d="M8.08644 14.7122L8.24795 14.5043L8.43333 14.7084L8.64776 14.531L8.73822 14.8646L8.59874 15.1198L8.44506 14.8813L8.31234 15.1222L8.08643 14.7122L8.08644 14.7122Z" fill="#00C7FF" fill-opacity="0.46364"/>
</g>
<path d="M9.1079 14.1258L8.94825 14.0638L8.85419 14.3086L8.71404 14.1249L8.53703 14.3212L8.78576 14.4865L8.70348 14.7003L8.66143 14.5482L8.44714 14.7255L8.261 14.5214L8.14551 14.6703L8.0661 14.4911L8.28754 14.3272L8.10212 14.1408L7.98555 14.309L7.88461 14.0814L7.72776 14.1516L7.83429 14.3908L7.60483 14.36L7.61858 14.6243L7.9114 14.5645L8 14.7661L7.89262 14.7039L7.86603 14.9815L7.59079 14.9687L7.61421 15.157L7.40536 15.0768L7.44676 14.8054L7.18287 14.8042L7.21962 15.0051L6.98805 14.9154L6.92663 15.0764L7.17145 15.1705L6.98772 15.3106L7.18302 15.4872L7.34829 15.2385L7.57493 15.3261L7.45959 15.358L7.63684 15.5723L7.43276 15.7584L7.56851 15.8638L7.35386 15.9586L7.19003 15.7371L7.00266 15.9221L7.17182 16.0391L6.94417 16.1401L7.01338 16.2965L7.25363 16.1904L7.22319 16.4189L7.48611 16.4057L7.42768 16.1123L7.69214 15.9954L7.61625 16.1272L7.89288 16.1534L7.88004 16.4286L8.0194 16.4115L7.93902 16.6179L7.66717 16.5775L7.66602 16.8414L7.86828 16.8041L7.77817 17.0366L7.93823 17.0976L8.0323 16.8528L8.17343 17.037L8.34945 16.8403L8.10072 16.675L8.21895 16.3695L8.27035 16.5603L8.48464 16.383L8.66979 16.5867L8.74212 16.494L8.82037 16.6704L8.59894 16.8342L8.78534 17.021L8.9015 16.8538L9.00187 17.0801L9.15871 17.0099L9.05218 16.7706L9.28165 16.8015L9.26749 16.5382L8.97508 16.597L8.83838 16.2883L9.03858 16.4032L9.06476 16.1266L9.34099 16.1398L9.326 16.0257L9.48112 16.0847L9.4393 16.3571L9.7032 16.3583L9.66686 16.1564L9.89843 16.2461L9.96042 16.0865L9.71462 15.992L9.89875 15.8508L9.70304 15.6752L9.53818 15.923L9.24555 15.8101L9.47162 15.7491L9.29437 15.5348L9.49804 15.3496L9.39116 15.2668L9.53319 15.2043L9.69702 15.4257L9.88382 15.2393L9.71564 15.1228L9.9419 15.0224L9.8731 14.865L9.63285 14.9711L9.66328 14.7426L9.39996 14.7568L9.4592 15.0482L9.21434 15.157L9.31553 14.9813L9.03791 14.9547L9.05174 14.6799L8.88669 14.7002L8.94647 14.5431L9.21931 14.584L9.22004 14.3211L9.01778 14.3584L9.10789 14.1258L9.1079 14.1258ZM8.9245 15.0847L8.87588 15.3068L8.6064 15.4274L8.71432 15.1466L8.9245 15.0847L8.9245 15.0847ZM8.45849 14.8983L8.56317 15.0615L8.45088 15.3555L8.34106 15.1102L8.45849 14.8983L8.45849 14.8983ZM8.96007 15.4579L9.1211 15.5471L8.91203 15.6813L8.66861 15.5867L8.96007 15.4579L8.96007 15.4579ZM8.16208 15.1306L8.28915 15.4178L8.06548 15.3314L7.99706 15.0953L8.16208 15.1306L8.16208 15.1306ZM8.21884 15.5752L8.00559 15.6694L7.80968 15.5609L7.95032 15.4712L8.21884 15.5752L8.21884 15.5752ZM8.88951 15.8574L8.93469 16.0131L8.69321 15.961L8.59688 15.7446L8.88951 15.8574ZM8.27967 15.7351L8.18972 15.97L8.0077 16.0228L8.04641 15.8383L8.27967 15.7351L8.27967 15.7351ZM8.43602 15.805L8.55216 16.0657L8.4733 16.2101L8.35209 16.0227L8.43602 15.805Z" fill="url(#paint4_radial_2_2469)"/>
<path d="M7.52047 15.8524L7.30583 15.9472L7.142 15.7257L6.95462 15.9108L7.12378 16.0277L6.89613 16.1287L6.96534 16.2851L7.20559 16.179L7.17516 16.4075L7.43807 16.3943L7.37965 16.1009L7.6441 15.984L7.56821 16.1158L7.84485 16.142L7.832 16.4173L7.97137 16.4001L7.89098 16.6065L7.61913 16.5661L7.61798 16.83L7.82024 16.7927L7.73013 17.0252L7.89019 17.0863L7.98426 16.8414L8.12539 17.0256L8.30141 16.8289L8.05269 16.6636L8.17091 16.3581L8.22232 16.5489L8.4366 16.3716L8.62176 16.5753L8.69408 16.4826L8.77234 16.659L8.5509 16.8228L8.73731 17.0096L8.85347 16.8425L8.95383 17.0687L9.11068 16.9985L9.00415 16.7593L9.23361 16.7901L9.21945 16.5268L8.92704 16.5856L8.79035 16.2769L8.99054 16.3918L9.01673 16.1152L9.29296 16.1284L9.27796 16.0143L9.43309 16.0733L9.39127 16.3457L9.65516 16.3469L9.61882 16.145L9.85039 16.2347L9.91239 16.0751L9.66658 15.9806L9.85072 15.8395L9.655 15.6638L9.49015 15.9116L9.19752 15.7987L9.42358 15.7377L9.24633 15.5234L9.45 15.3383L9.34313 15.2554L9.48515 15.1929L9.64898 15.4144L9.83578 15.228L9.6676 15.1114L9.89386 15.011L9.82506 14.8536L9.58481 14.9597L9.61524 14.7312L9.35192 14.7454L9.41117 15.0368L9.16631 15.1456C9.16631 15.1456 8.81058 15.0514 8.39498 15.5698C8.03135 16.0235 7.52044 15.8524 7.52044 15.8524L7.52047 15.8524Z" fill="white" fill-opacity="0.51364"/>
</g>
<defs>
<filter id="filter0_f_2_2469" x="2.10066" y="0.0506682" width="9.86216" height="9.86177" filterUnits="userSpaceOnUse" color-interpolation-filters="sRGB">
<feFlood flood-opacity="0" result="BackgroundImageFix"/>
<feBlend mode="normal" in="SourceGraphic" in2="BackgroundImageFix" result="shape"/>
<feGaussianBlur stdDeviation="0.16064" result="effect1_foregroundBlur_2_2469"/>
</filter>
<filter id="filter1_f_2_2469" x="1.48366" y="2.78331" width="18.8867" height="11.115" filterUnits="userSpaceOnUse" color-interpolation-filters="sRGB">
<feFlood flood-opacity="0" result="BackgroundImageFix"/>
<feBlend mode="normal" in="SourceGraphic" in2="BackgroundImageFix" result="shape"/>
<feGaussianBlur stdDeviation="0.07662" result="effect1_foregroundBlur_2_2469"/>
</filter>
<filter id="filter2_f_2_2469" x="15.3589" y="6.64331" width="5.23101" height="4.92736" filterUnits="userSpaceOnUse" color-interpolation-filters="sRGB">
<feFlood flood-opacity="0" result="BackgroundImageFix"/>
<feBlend mode="normal" in="SourceGraphic" in2="BackgroundImageFix" result="shape"/>
<feGaussianBlur stdDeviation="0.246458" result="effect1_foregroundBlur_2_2469"/>
</filter>
<filter id="filter3_f_2_2469" x="9.29561" y="2.33184" width="8.59792" height="6.76198" filterUnits="userSpaceOnUse" color-interpolation-filters="sRGB">
<feFlood flood-opacity="0" result="BackgroundImageFix"/>
<feBlend mode="normal" in="SourceGraphic" in2="BackgroundImageFix" result="shape"/>
<feGaussianBlur stdDeviation="0.515874" result="effect1_foregroundBlur_2_2469"/>
</filter>
<filter id="filter4_f_2_2469" x="2.9078" y="5.59469" width="8.55268" height="7.98344" filterUnits="userSpaceOnUse" color-interpolation-filters="sRGB">
<feFlood flood-opacity="0" result="BackgroundImageFix"/>
<feBlend mode="normal" in="SourceGraphic" in2="BackgroundImageFix" result="shape"/>
<feGaussianBlur stdDeviation="0.456439" result="effect1_foregroundBlur_2_2469"/>
</filter>
<filter id="filter5_f_2_2469" x="1.39863" y="7.22114" width="4.81482" height="5.08164" filterUnits="userSpaceOnUse" color-interpolation-filters="sRGB">
<feFlood flood-opacity="0" result="BackgroundImageFix"/>
<feBlend mode="normal" in="SourceGraphic" in2="BackgroundImageFix" result="shape"/>
<feGaussianBlur stdDeviation="0.201196" result="effect1_foregroundBlur_2_2469"/>
</filter>
<filter id="filter6_f_2_2469" x="4.2373" y="9.63888" width="5.25258" height="3.70671" filterUnits="userSpaceOnUse" color-interpolation-filters="sRGB">
<feFlood flood-opacity="0" result="BackgroundImageFix"/>
<feBlend mode="normal" in="SourceGraphic" in2="BackgroundImageFix" result="shape"/>
<feGaussianBlur stdDeviation="0.319218" result="effect1_foregroundBlur_2_2469"/>
</filter>
<filter id="filter7_f_2_2469" x="7.30814" y="8.89252" width="8.29952" height="5.45071" filterUnits="userSpaceOnUse" color-interpolation-filters="sRGB">
<feFlood flood-opacity="0" result="BackgroundImageFix"/>
<feBlend mode="normal" in="SourceGraphic" in2="BackgroundImageFix" result="shape"/>
<feGaussianBlur stdDeviation="0.471464" result="effect1_foregroundBlur_2_2469"/>
</filter>
<filter id="filter8_f_2_2469" x="2.55958" y="6.2537" width="5.5554" height="6.03117" filterUnits="userSpaceOnUse" color-interpolation-filters="sRGB">
<feFlood flood-opacity="0" result="BackgroundImageFix"/>
<feBlend mode="normal" in="SourceGraphic" in2="BackgroundImageFix" result="shape"/>
<feGaussianBlur stdDeviation="0.422787" result="effect1_foregroundBlur_2_2469"/>
</filter>
<filter id="filter9_f_2_2469" x="4.72422" y="4.12162" width="7.94737" height="7.94737" filterUnits="userSpaceOnUse" color-interpolation-filters="sRGB">
<feFlood flood-opacity="0" result="BackgroundImageFix"/>
<feBlend mode="normal" in="SourceGraphic" in2="BackgroundImageFix" result="shape"/>
<feGaussianBlur stdDeviation="0.428906" result="effect1_foregroundBlur_2_2469"/>
</filter>
<filter id="filter10_f_2_2469" x="5.63745" y="4.10717" width="8.36543" height="5.96348" filterUnits="userSpaceOnUse" color-interpolation-filters="sRGB">
<feFlood flood-opacity="0" result="BackgroundImageFix"/>
<feBlend mode="normal" in="SourceGraphic" in2="BackgroundImageFix" result="shape"/>
<feGaussianBlur stdDeviation="0.584323" result="effect1_foregroundBlur_2_2469"/>
</filter>
<filter id="filter11_f_2_2469" x="3.08876" y="6.91047" width="3.16425" height="4.41389" filterUnits="userSpaceOnUse" color-interpolation-filters="sRGB">
<feFlood flood-opacity="0" result="BackgroundImageFix"/>
<feBlend mode="normal" in="SourceGraphic" in2="BackgroundImageFix" result="shape"/>
<feGaussianBlur stdDeviation="0.244638" result="effect1_foregroundBlur_2_2469"/>
</filter>
<filter id="filter12_f_2_2469" x="11.2225" y="2.42663" width="6.96445" height="7.98063" filterUnits="userSpaceOnUse" color-interpolation-filters="sRGB">
<feFlood flood-opacity="0" result="BackgroundImageFix"/>
<feBlend mode="normal" in="SourceGraphic" in2="BackgroundImageFix" result="shape"/>
<feGaussianBlur stdDeviation="0.507966" result="effect1_foregroundBlur_2_2469"/>
</filter>
<filter id="filter13_f_2_2469" x="11.2448" y="10.968" width="8.26239" height="3.05795" filterUnits="userSpaceOnUse" color-interpolation-filters="sRGB">
<feFlood flood-opacity="0" result="BackgroundImageFix"/>
<feBlend mode="normal" in="SourceGraphic" in2="BackgroundImageFix" result="shape"/>
<feGaussianBlur stdDeviation="0.317137" result="effect1_foregroundBlur_2_2469"/>
</filter>
<filter id="filter14_f_2_2469" x="7.28665" y="4.3212" width="5.09912" height="5.14941" filterUnits="userSpaceOnUse" color-interpolation-filters="sRGB">
<feFlood flood-opacity="0" result="BackgroundImageFix"/>
<feBlend mode="normal" in="SourceGraphic" in2="BackgroundImageFix" result="shape"/>
<feGaussianBlur stdDeviation="0.40628" result="effect1_foregroundBlur_2_2469"/>
</filter>
<filter id="filter15_f_2_2469" x="9.93664" y="5.51962" width="5.58103" height="6.34534" filterUnits="userSpaceOnUse" color-interpolation-filters="sRGB">
<feFlood flood-opacity="0" result="BackgroundImageFix"/>
<feBlend mode="normal" in="SourceGraphic" in2="BackgroundImageFix" result="shape"/>
<feGaussianBlur stdDeviation="0.514162" result="effect1_foregroundBlur_2_2469"/>
</filter>
<filter id="filter16_f_2_2469" x="0.903264" y="13.2809" width="18.9045" height="12.4154" filterUnits="userSpaceOnUse" color-interpolation-filters="sRGB">
<feFlood flood-opacity="0" result="BackgroundImageFix"/>
<feBlend mode="normal" in="SourceGraphic" in2="BackgroundImageFix" result="shape"/>
<feGaussianBlur stdDeviation="0.3831" result="effect1_foregroundBlur_2_2469"/>
</filter>
<filter id="filter17_f_2_2469" x="4.42061" y="17.8057" width="7.36663" height="7.36678" filterUnits="userSpaceOnUse" color-interpolation-filters="sRGB">
<feFlood flood-opacity="0" result="BackgroundImageFix"/>
<feBlend mode="normal" in="SourceGraphic" in2="BackgroundImageFix" result="shape"/>
<feGaussianBlur stdDeviation="0.139639" result="effect1_foregroundBlur_2_2469"/>
</filter>
<filter id="filter18_f_2_2469" x="13.6011" y="15.296" width="5.63618" height="5.63597" filterUnits="userSpaceOnUse" color-interpolation-filters="sRGB">
<feFlood flood-opacity="0" result="BackgroundImageFix"/>
<feBlend mode="normal" in="SourceGraphic" in2="BackgroundImageFix" result="shape"/>
<feGaussianBlur stdDeviation="0.102038" result="effect1_foregroundBlur_2_2469"/>
</filter>
<filter id="filter19_f_2_2469" x="1.52254" y="14.368" width="4.46988" height="4.46997" filterUnits="userSpaceOnUse" color-interpolation-filters="sRGB">
<feFlood flood-opacity="0" result="BackgroundImageFix"/>
<feBlend mode="normal" in="SourceGraphic" in2="BackgroundImageFix" result="shape"/>
<feGaussianBlur stdDeviation="0.0849539" result="effect1_foregroundBlur_2_2469"/>
</filter>
<filter id="filter20_f_2_2469" x="6.78821" y="13.9223" width="3.28343" height="3.28353" filterUnits="userSpaceOnUse" color-interpolation-filters="sRGB">
<feFlood flood-opacity="0" result="BackgroundImageFix"/>
<feBlend mode="normal" in="SourceGraphic" in2="BackgroundImageFix" result="shape"/>
<feGaussianBlur stdDeviation="0.0624051" result="effect1_foregroundBlur_2_2469"/>
</filter>
<radialGradient id="paint0_radial_2_2469" cx="0" cy="0" r="1" gradientUnits="userSpaceOnUse" gradientTransform="translate(4.50093 1.30042) scale(6.8996)">
<stop stop-color="#FFA700"/>
<stop offset="1" stop-color="#FFA700" stop-opacity="0"/>
</radialGradient>
<radialGradient id="paint1_radial_2_2469" cx="0" cy="0" r="1" gradientUnits="userSpaceOnUse" gradientTransform="translate(8.13346 21.5269) rotate(22.1529) scale(3.57838)">
<stop stop-color="#A8FAFF" stop-opacity="0.76226"/>
<stop offset="0.49735" stop-color="#65F6FF" stop-opacity="0.49804"/>
<stop offset="1" stop-color="#008D9E"/>
</radialGradient>
<radialGradient id="paint2_radial_2_2469" cx="0" cy="0" r="1" gradientUnits="userSpaceOnUse" gradientTransform="translate(16.4281 18.148) rotate(45.3937) scale(2.61482)">
<stop stop-color="#A8FAFF" stop-opacity="0.76226"/>
<stop offset="0.49735" stop-color="#65F6FF" stop-opacity="0.49804"/>
<stop offset="1" stop-color="#008D9E"/>
</radialGradient>
<radialGradient id="paint3_radial_2_2469" cx="0" cy="0" r="1" gradientUnits="userSpaceOnUse" gradientTransform="translate(3.77524 16.6261) rotate(22.6552) scale(2.17703)">
<stop stop-color="#A8FAFF" stop-opacity="0.76226"/>
<stop offset="0.49735" stop-color="#65F6FF" stop-opacity="0.49804"/>
<stop offset="1" stop-color="#008D9E"/>
</radialGradient>
<radialGradient id="paint4_radial_2_2469" cx="0" cy="0" r="1" gradientUnits="userSpaceOnUse" gradientTransform="translate(8.44298 15.5811) rotate(22.6552) scale(1.59919)">
<stop stop-color="#A8FAFF" stop-opacity="0.76226"/>
<stop offset="0.49735" stop-color="#65F6FF" stop-opacity="0.49804"/>
<stop offset="1" stop-color="#008D9E"/>
</radialGradient>
</defs>
</svg>
