<svg width="14" height="17" viewBox="0 0 14 17" fill="none" xmlns="http://www.w3.org/2000/svg">
<g filter="url(#filter0_f_1_289)">
<path d="M12.3922 9.2841C12.3922 12.1209 10.0925 14.4205 7.25573 14.4205C4.41899 14.4205 2.11929 12.1208 2.11929 9.2841C2.11929 6.44737 5.52265 6.52487 7.25573 0.751617C10.0077 2.95902 12.3922 6.44728 12.3922 9.2841V9.2841Z" fill="#00C7FF" fill-opacity="0.46364"/>
<g filter="url(#filter1_f_1_289)">
<path d="M10.0016 9.94487C10.0016 11.8787 8.50547 13.4463 6.65993 13.4463C4.8144 13.4463 3.3183 11.8787 3.3183 9.94487C3.3183 8.01108 4.8144 6.44339 6.65993 6.44339C8.50547 6.44339 10.0016 8.01108 10.0016 9.94487Z" fill="#00369E" fill-opacity="0.46275"/>
</g>
<g opacity="0.6937" filter="url(#filter2_f_1_289)">
<path d="M12.3919 9.45398C12.3919 12.2743 9.65124 14.4631 7.213 14.4631C4.77477 14.4631 2.03347 12.0605 2.11902 9.62377C2.24637 5.99699 8.3075 10.0972 8.52899 5.20897C8.75048 0.32077 12.0948 5.48754 12.392 9.45398H12.3919Z" fill="url(#paint0_radial_1_289)"/>
</g>
</g>
<defs>
<filter id="filter0_f_1_289" x="1.74715" y="0.381697" width="11.0149" height="14.4513" filterUnits="userSpaceOnUse" color-interpolation-filters="sRGB">
<feFlood flood-opacity="0" result="BackgroundImageFix"/>
<feBlend mode="normal" in="SourceGraphic" in2="BackgroundImageFix" result="shape"/>
<feGaussianBlur stdDeviation="0.18496" result="effect1_foregroundBlur_1_289"/>
</filter>
<filter id="filter1_f_1_289" x="0.132242" y="3.25733" width="13.0554" height="13.3751" filterUnits="userSpaceOnUse" color-interpolation-filters="sRGB">
<feFlood flood-opacity="0" result="BackgroundImageFix"/>
<feBlend mode="normal" in="SourceGraphic" in2="BackgroundImageFix" result="shape"/>
<feGaussianBlur stdDeviation="1.59303" result="effect1_foregroundBlur_1_289"/>
</filter>
<filter id="filter2_f_1_289" x="2.0735" y="3.17504" width="10.362" height="11.3316" filterUnits="userSpaceOnUse" color-interpolation-filters="sRGB">
<feFlood flood-opacity="0" result="BackgroundImageFix"/>
<feBlend mode="normal" in="SourceGraphic" in2="BackgroundImageFix" result="shape"/>
<feGaussianBlur stdDeviation="0.0217809" result="effect1_foregroundBlur_1_289"/>
</filter>
<radialGradient id="paint0_radial_1_289" cx="0" cy="0" r="1" gradientUnits="userSpaceOnUse" gradientTransform="translate(7.25462 8.84245) scale(5.13745 5.62242)">
<stop stop-color="#E5F9FF" stop-opacity="0.29434"/>
<stop offset="0.83069" stop-color="#F2FCFF" stop-opacity="0.21176"/>
<stop offset="1" stop-color="white" stop-opacity="0"/>
</radialGradient>
</defs>
</svg>
