<svg width="22" height="22" viewBox="0 0 22 22" fill="none" xmlns="http://www.w3.org/2000/svg">
<g filter="url(#filter0_f_1_245)">
<path d="M13.7347 3.10742L14.5231 3.4035L11.7683 10.7399L10.9798 10.4439L13.7347 3.10742Z" fill="#00C7FF" fill-opacity="0.46364"/>
<path d="M13.8412 4.59486L15.0808 4.35624L15.0879 5.64971L13.5803 5.43561L13.8412 4.59486L13.8412 4.59486Z" fill="#00C7FF" fill-opacity="0.46364"/>
<path d="M13.3615 4.41356L12.5854 3.41803L11.7286 4.38709L13.0046 5.21825L13.3615 4.41354L13.3615 4.41356Z" fill="#00C7FF" fill-opacity="0.46364"/>
<path d="M18.3071 6.99927L18.6553 7.76615L11.5197 11.0058L11.1715 10.2389L18.3071 6.99927Z" fill="#00C7FF" fill-opacity="0.46364"/>
<path d="M17.3307 8.12634L18.3759 8.83413L17.4664 9.75379L16.5517 8.53634L17.3307 8.12636L17.3307 8.12634Z" fill="#00C7FF" fill-opacity="0.46364"/>
<path d="M17.1197 7.659L17.2748 6.40623L15.9838 6.48566L16.2983 7.97559L17.1197 7.65897L17.1197 7.659Z" fill="#00C7FF" fill-opacity="0.46364"/>
<path d="M18.7877 12.9842L18.4916 13.7727L11.1552 11.0178L11.4513 10.2293L18.7877 12.9842Z" fill="#00C7FF" fill-opacity="0.46364"/>
<path d="M17.3003 13.0907L17.5389 14.3303L16.2454 14.3374L16.4595 12.8298L17.3003 13.0907L17.3003 13.0907Z" fill="#00C7FF" fill-opacity="0.46364"/>
<path d="M17.4816 12.6111L18.4771 11.8349L17.508 10.9782L16.6769 12.2541L17.4816 12.611L17.4816 12.6111Z" fill="#00C7FF" fill-opacity="0.46364"/>
<path d="M14.8958 17.5563L14.1289 17.9045L10.8893 10.7689L11.6562 10.4207L14.8958 17.5563Z" fill="#00C7FF" fill-opacity="0.46364"/>
<path d="M13.7687 16.5799L13.061 17.6251L12.1413 16.7156L13.3587 15.8009L13.7687 16.5799L13.7687 16.5799Z" fill="#00C7FF" fill-opacity="0.46364"/>
<path d="M14.2361 16.3689L15.4888 16.524L15.4094 15.233L13.9195 15.5475L14.2361 16.3689L14.2361 16.3689Z" fill="#00C7FF" fill-opacity="0.46364"/>
<path d="M8.91055 18.0376L8.12208 17.7415L10.877 10.4051L11.6654 10.7011L8.91055 18.0376Z" fill="#00C7FF" fill-opacity="0.46364"/>
<path d="M8.80401 16.5502L7.56443 16.7888L7.55727 15.4953L9.06493 15.7094L8.80398 16.5502L8.80401 16.5502Z" fill="#00C7FF" fill-opacity="0.46364"/>
<path d="M9.28369 16.7315L10.0598 17.727L10.9166 16.7579L9.64064 15.9268L9.28371 16.7315L9.28369 16.7315Z" fill="#00C7FF" fill-opacity="0.46364"/>
<path d="M4.33871 14.1458L3.99054 13.3789L11.1261 10.1393L11.4743 10.9062L4.33871 14.1458Z" fill="#00C7FF" fill-opacity="0.46364"/>
<path d="M5.31517 13.0187L4.26994 12.311L5.17949 11.3913L6.09417 12.6087L5.31516 13.0187L5.31517 13.0187Z" fill="#00C7FF" fill-opacity="0.46364"/>
<path d="M5.52615 13.4861L5.37103 14.7388L6.66206 14.6594L6.34755 13.1695L5.52615 13.4861L5.52615 13.4861Z" fill="#00C7FF" fill-opacity="0.46364"/>
<path d="M3.85785 8.16071L4.15392 7.37224L11.4904 10.1271L11.1943 10.9156L3.85785 8.16071Z" fill="#00C7FF" fill-opacity="0.46364"/>
<path d="M5.34528 8.05416L5.10667 6.81458L6.40013 6.80743L6.18604 8.31508L5.34529 8.05413L5.34528 8.05416Z" fill="#00C7FF" fill-opacity="0.46364"/>
<path d="M5.16399 8.53384L4.16845 9.31L5.13752 10.1667L5.96868 8.8908L5.16397 8.53386L5.16399 8.53384Z" fill="#00C7FF" fill-opacity="0.46364"/>
<path d="M7.7496 3.58853L8.51649 3.24036L11.7561 10.3759L10.9892 10.7241L7.7496 3.58853Z" fill="#00C7FF" fill-opacity="0.46364"/>
<path d="M8.87668 4.56499L9.58446 3.51976L10.5041 4.42931L9.28668 5.34399L8.8767 4.56497L8.87668 4.56499Z" fill="#00C7FF" fill-opacity="0.46364"/>
<path d="M8.40933 4.77596L7.15657 4.62085L7.236 5.91188L8.72593 5.59737L8.40931 4.77597L8.40933 4.77596Z" fill="#00C7FF" fill-opacity="0.46364"/>
<path d="M12.988 6.29371L14.2683 6.12157L14.2151 7.47356L15.5757 7.59024L14.7449 9.06898L13.3792 9.48233L13.6616 8.11902L12.3684 8.50582L12.988 6.29367L12.988 6.29371Z" fill="#00C7FF" fill-opacity="0.46364"/>
<path d="M15.4633 8.60847L16.4903 9.39203L15.4968 10.3104L16.3763 11.355L14.7432 11.8131L13.4852 11.1397L14.6488 10.3754L13.4609 9.7345L15.4632 8.60843L15.4633 8.60847Z" fill="#00C7FF" fill-opacity="0.46364"/>
<path d="M15.5767 11.9956L15.7488 13.2759L14.3969 13.2228L14.2802 14.5834L12.8014 13.7526L12.3881 12.3869L13.7514 12.6692L13.3646 11.3761L15.5767 11.9957L15.5767 11.9956Z" fill="#00C7FF" fill-opacity="0.46364"/>
<path d="M13.2619 14.471L12.4783 15.498L11.56 14.5045L10.5154 15.384L10.0572 13.7509L10.7307 12.4929L11.495 13.6565L12.1359 12.4686L13.2619 14.4709L13.2619 14.471Z" fill="#00C7FF" fill-opacity="0.46364"/>
<path d="M9.87475 14.5844L8.59445 14.7565L8.64758 13.4045L7.287 13.2878L8.11777 11.8091L9.48349 11.3958L9.20114 12.7591L10.4943 12.3723L9.87465 14.5844L9.87475 14.5844Z" fill="#00C7FF" fill-opacity="0.46364"/>
<path d="M7.39939 12.2696L6.37238 11.486L7.36591 10.5676L6.48639 9.52308L8.1195 9.06491L9.37749 9.73835L8.21386 10.5027L9.40181 11.1436L7.39949 12.2696L7.39939 12.2696Z" fill="#00C7FF" fill-opacity="0.46364"/>
<path d="M7.28601 8.88245L7.11387 7.60215L8.46585 7.65528L8.58254 6.2947L10.0613 7.12547L10.4746 8.49119L9.11132 8.20884L9.49812 9.50196L7.28597 8.88235L7.28601 8.88245Z" fill="#00C7FF" fill-opacity="0.46364"/>
<path d="M9.60078 6.40708L10.3843 5.38008L11.3027 6.37361L12.3473 5.49408L12.8055 7.1272L12.132 8.38519L11.3677 7.22156L10.7268 8.40951L9.60075 6.40718L9.60078 6.40708Z" fill="#00C7FF" fill-opacity="0.46364"/>
<path d="M14.5877 3.48616L13.8016 3.18882L13.3506 4.39413L12.655 3.49865L11.7949 4.46939L13.0225 5.26965L12.6279 6.32224L12.4151 5.57793L11.3712 6.45688L10.4491 5.46348L9.88877 6.19913L9.49146 5.32304L10.571 4.50966L9.65315 3.60307L9.08836 4.43328L8.5833 3.32056L7.8167 3.67174L8.34969 4.84118L7.22243 4.6997L7.30125 5.99605L8.7355 5.68993L9.17894 6.67551L8.64937 6.37486L8.5308 7.73822L7.17969 7.68702L7.30272 8.61018L6.27446 8.22554L6.46596 6.89187L5.17105 6.89757L5.36001 7.88159L4.21989 7.45141L3.92543 8.24426L5.13074 8.69531L4.23526 9.39089L5.20115 10.249L6.00141 9.02147L7.11722 9.44175L6.55265 9.60306L7.43159 10.6469L6.4382 11.569L7.10883 12.0802L6.05967 12.5545L5.24629 11.4749L4.33482 12.3908L5.16989 12.9575L4.05717 13.4626L4.40349 14.2272L5.57779 13.6962L5.43829 14.8186L6.72778 14.7427L6.42849 13.3056L7.72111 12.7207L7.3544 13.3707L8.71291 13.4873L8.66171 14.8384L9.3448 14.7481L8.95925 15.7646L7.6236 15.578L7.6293 16.8729L8.62014 16.6811L8.18799 17.826L8.97599 18.1185L9.42704 16.9132L10.1275 17.8107L10.9827 16.8379L9.75516 16.0377L10.3221 14.5337L10.5826 15.4675L11.6264 14.5885L12.5437 15.58L12.8946 15.1219L13.2862 15.9843L12.2066 16.7977L13.1293 17.7063L13.6921 16.8809L14.1943 17.9868L14.9609 17.6356L14.4279 16.4662L15.5552 16.6077L15.4744 15.3162L14.0421 15.6174L13.3581 14.1087L14.3454 14.6638L14.4619 13.3052L15.8179 13.3584L15.7395 12.7993L16.5032 13.0818L16.3097 14.4204L17.6046 14.4147L17.4176 13.4258L18.5577 13.856L18.8551 13.07L17.6449 12.6169L18.5423 11.9165L17.5745 11.0632L16.7762 12.2859L15.3355 11.7447L16.4421 11.4356L15.5632 10.3917L16.5546 9.47446L16.0266 9.07243L16.7208 8.7598L17.5342 9.83932L18.4428 8.91664L17.6126 8.35185L18.7184 7.84967L18.3741 7.08018L17.1998 7.6112L17.3393 6.48879L16.0478 6.56959L16.3511 7.99699L15.1543 8.54152L15.6432 7.67477L14.2798 7.55621L14.3359 6.20707L13.5269 6.31422L13.8135 5.54081L15.154 5.72943L15.1463 4.43937L14.1555 4.63121L14.5876 3.48624L14.5877 3.48616ZM13.729 8.19916L13.4999 9.29078L12.1828 9.89405L12.7003 8.51168L13.729 8.19916L13.729 8.19916ZM11.4343 7.30459L11.955 8.10052L11.4166 9.5481L10.8672 8.3493L11.4343 7.30461L11.4343 7.30459ZM13.9195 10.0285L14.7135 10.4595L13.6934 11.127L12.4949 10.6731L13.9195 10.0286L13.9195 10.0285ZM9.98986 8.45695L10.6257 9.86104L9.52451 9.4467L9.17865 8.29107L9.98986 8.45695L9.98986 8.45695ZM10.2875 10.6361L9.24518 11.1075L8.27919 10.5838L8.96544 10.1375L10.2875 10.6361L10.2875 10.6361ZM13.5905 11.9922L13.8188 12.7542L12.6317 12.509L12.1497 11.451L13.5905 11.9922ZM10.5928 11.4181L10.1616 12.5748L9.27067 12.8414L9.45273 11.9347L10.5928 11.4181L10.5928 11.4181ZM11.363 11.7543L11.9441 13.0284L11.5634 13.7408L10.9605 12.8264L11.363 11.7543Z" fill="url(#paint0_radial_1_245)"/>
<path d="M6.87264 12.0265L5.82348 12.5007L5.0101 11.4212L4.09863 12.337L4.9337 12.9038L3.82098 13.4089L4.1673 14.1735L5.34161 13.6425L5.2021 14.7649L6.49159 14.6889L6.19231 13.2518L7.48493 12.6669L7.11822 13.317L8.47673 13.4336L8.42552 14.7847L9.10862 14.6943L8.72307 15.7109L7.38741 15.5243L7.3931 16.8192L8.38396 16.6273L7.9518 17.7723L8.7398 18.0648L9.19086 16.8595L9.89129 17.7569L10.7465 16.7842L9.51897 15.9839L10.0859 14.48L10.3464 15.4137L11.3902 14.5348L12.3075 15.5262L12.6584 15.0681L13.05 15.9305L11.9705 16.7439L12.8931 17.6525L13.4559 16.8272L13.9581 17.933L14.7247 17.5819L14.1917 16.4124L15.319 16.5539L15.2382 15.2624L13.8059 15.5637L13.1219 14.055L14.1092 14.61L14.2258 13.2515L15.5817 13.3047L15.5033 12.7455L16.267 13.0281L16.0735 14.3666L17.3684 14.3609L17.1814 13.3721L18.3215 13.8022L18.6189 13.0162L17.4087 12.5632L18.3061 11.8628L17.3383 11.0095L16.54 12.2322L15.0993 11.691L16.2059 11.3818L15.327 10.338L16.3184 9.42072L15.7904 9.01868L16.4846 8.70606L17.298 9.78557L18.2066 8.8629L17.3764 8.29811L18.4823 7.79593L18.1379 7.02643L16.9636 7.55745L17.1031 6.43504L15.8116 6.51584L16.1149 7.94324L14.9181 8.48777C14.9181 8.48777 13.1685 8.04073 11.1516 10.6024C9.38678 12.8438 6.87248 12.0264 6.87248 12.0264L6.87264 12.0265Z" fill="white" fill-opacity="0.51364"/>
</g>
<defs>
<filter id="filter0_f_1_245" x="2.47679" y="1.76323" width="17.7225" height="17.6995" filterUnits="userSpaceOnUse" color-interpolation-filters="sRGB">
<feFlood flood-opacity="0" result="BackgroundImageFix"/>
<feBlend mode="normal" in="SourceGraphic" in2="BackgroundImageFix" result="shape"/>
<feGaussianBlur stdDeviation="0.672096" result="effect1_foregroundBlur_1_245"/>
</filter>
<radialGradient id="paint0_radial_1_245" cx="0" cy="0" r="1" gradientUnits="userSpaceOnUse" gradientTransform="translate(11.3875 10.6554) rotate(22.1535) scale(7.84723)">
<stop stop-color="#A8FAFF" stop-opacity="0.76226"/>
<stop offset="0.49735" stop-color="#65F6FF" stop-opacity="0.49804"/>
<stop offset="1" stop-color="#008D9E"/>
</radialGradient>
</defs>
</svg>
