<svg width="17" height="17" viewBox="0 0 17 17" fill="none" xmlns="http://www.w3.org/2000/svg">
<g filter="url(#filter0_f_2_2463)">
<path d="M13.3505 8.24938C13.3505 10.9715 11.1438 13.1781 8.42177 13.1781C5.69975 13.1781 3.49304 10.9714 3.49304 8.24938C3.49304 5.52735 5.69975 3.32065 8.42177 3.32065C11.1438 3.32065 13.3505 5.52735 13.3505 8.24938V8.24938Z" fill="#FFCC00"/>
<path d="M8.6637 0.67923C8.6637 0.67923 7.72931 1.45648 8.26426 2.22687C8.56448 2.65925 6.98165 2.55552 7.6766 3.95287C7.81377 4.22869 9.18161 5.15364 8.70168 4.44255C8.22174 3.73146 10.5393 2.84807 8.94737 2.00548C8.09534 1.55451 9.00807 0.714143 8.66371 0.679275L8.6637 0.67923Z" fill="#FFCC00"/>
<path d="M11.4266 1.26596C11.4266 1.26596 10.2696 1.63807 10.4782 2.55252C10.5952 3.06573 9.16563 2.37847 9.28854 3.93423C9.3128 4.24132 10.2363 5.61015 10.0566 4.77125C9.87689 3.93235 12.3567 3.97828 11.1946 2.6022C10.5726 1.8657 11.7331 1.42691 11.4266 1.26596H11.4266Z" fill="#FFCC00"/>
<path d="M13.7619 2.83355C13.7619 2.83355 12.5495 2.7487 12.403 3.6751C12.3208 4.19504 11.2493 3.02542 10.7849 4.51529C10.6932 4.80938 11.0414 6.42345 11.1866 5.57789C11.3318 4.73233 13.6166 5.69711 13.0495 3.98755C12.746 3.07258 13.9864 3.09683 13.7619 2.83348L13.7619 2.83355Z" fill="#FFCC00"/>
<path d="M15.3727 5.21865C15.3727 5.21865 14.2836 4.67913 13.7959 5.48027C13.5222 5.92989 12.9759 4.4407 11.9798 5.64203C11.7832 5.87915 11.4914 7.50439 11.9472 6.77759C12.403 6.0508 14.1493 7.81192 14.275 6.01516C14.3422 5.05348 15.4802 5.54764 15.3727 5.21863L15.3727 5.21865Z" fill="#FFCC00"/>
<path d="M15.9562 8.07601C15.9562 8.07601 15.159 7.1587 14.4003 7.71016C13.9745 8.01968 14.0439 6.43499 12.662 7.16C12.3892 7.30311 11.4941 8.69063 12.1946 8.19543C12.8951 7.70022 13.8285 9.99808 14.6365 8.38831C15.0689 7.52671 15.9288 8.42105 15.9563 8.07601H15.9562Z" fill="#FFCC00"/>
<path d="M15.4038 10.9153C15.4038 10.9153 15.0175 9.76286 14.1057 9.98268C13.594 10.106 14.2636 8.66811 12.7095 8.81011C12.4027 8.83813 11.0453 9.77832 11.882 9.58839C12.7186 9.39846 12.7031 11.8786 14.0648 10.6996C14.7936 10.0687 15.2466 11.2237 15.4038 10.9153V10.9153Z" fill="#FFCC00"/>
<path d="M13.8124 13.3237C13.8124 13.3237 13.8947 12.111 12.968 11.9666C12.4479 11.8855 13.6152 10.8115 12.1244 10.3502C11.8301 10.2591 10.2167 10.6107 11.0626 10.7541C11.9085 10.8975 10.9485 13.1844 12.6568 12.6138C13.5712 12.3084 13.5495 13.5489 13.8124 13.3237V13.3237Z" fill="#FFCC00"/>
<path d="M11.2817 15.0011C11.2817 15.0011 11.8424 13.9228 11.051 13.4195C10.6068 13.137 12.1064 12.62 10.9249 11.6006C10.6916 11.3993 9.07241 11.0758 9.79014 11.5458C10.5079 12.0157 8.71286 13.7272 10.5068 13.888C11.467 13.9741 10.9507 15.1022 11.2817 15.0011L11.2817 15.0011Z" fill="#FFCC00"/>
<path d="M8.53174 15.5296C8.53174 15.5296 9.45189 14.7356 8.90315 13.975C8.59516 13.5481 10.1796 13.6232 9.45952 12.2386C9.31738 11.9653 7.93309 11.0652 8.42577 11.7675C8.91845 12.4699 6.6173 13.3949 8.22416 14.2087C9.08421 14.6442 8.1868 15.5009 8.53174 15.5296V15.5296Z" fill="#FFCC00"/>
<path d="M5.79729 15.0082C5.79729 15.0082 6.94521 14.6089 6.71511 13.6996C6.58597 13.1893 8.03142 13.8427 7.87183 12.2902C7.84033 11.9838 6.88479 10.6371 7.08423 11.4716C7.28367 12.306 4.80352 12.3186 5.99783 13.6669C6.63703 14.3885 5.48721 14.8545 5.79734 15.0082L5.79729 15.0082Z" fill="#FFCC00"/>
<path d="M3.49689 13.563C3.49689 13.563 4.71158 13.6032 4.82388 12.6721C4.8869 12.1494 6.00065 13.2789 6.41001 11.7729C6.49082 11.4757 6.08349 9.8755 5.9695 10.7258C5.85551 11.5761 3.53677 10.696 4.16627 12.3835C4.5032 13.2867 3.26274 13.3081 3.49685 13.563H3.49689Z" fill="#FFCC00"/>
<path d="M5.77141 1.20981C5.77141 1.20981 5.21202 2.28877 6.00408 2.79115C6.44861 3.07308 4.94963 3.59195 6.13253 4.60991C6.36602 4.81085 7.98564 5.13231 7.26732 4.66327C6.549 4.19423 8.34182 2.4805 6.54771 2.32194C5.58745 2.23709 6.10236 1.10829 5.77143 1.20986L5.77141 1.20981Z" fill="#FFCC00"/>
<path d="M3.33 2.80314C3.33 2.80314 3.22905 4.01433 4.15343 4.17308C4.67224 4.26218 3.48849 5.31803 4.97209 5.80224C5.26493 5.89782 6.88348 5.57107 6.03993 5.41467C5.19637 5.25828 6.19141 2.98647 4.47449 3.53077C3.55557 3.82209 3.59632 2.58209 3.32993 2.80314L3.33 2.80314Z" fill="#FFCC00"/>
<path d="M1.64807 5.31698C1.64807 5.31698 2.03848 6.46794 2.94951 6.24489C3.4608 6.11971 2.79629 7.56004 4.34992 7.41248C4.65658 7.38335 6.01057 6.43825 5.17465 6.63122C4.33872 6.82419 4.34526 4.34404 2.9878 5.5278C2.26127 6.1614 1.80417 5.008 1.64807 5.31694V5.31698Z" fill="#FFCC00"/>
<path d="M1.10532 8.18341C1.10532 8.18341 1.90903 9.09515 2.66377 8.53833C3.08737 8.22584 3.02904 9.81098 4.40587 9.07628C4.67764 8.93126 5.56304 7.5375 4.86597 8.03762C4.16891 8.53774 3.21948 6.24648 2.42283 7.86187C1.99646 8.72646 1.13026 7.83821 1.10529 8.18343L1.10532 8.18341Z" fill="#FFCC00"/>
<path d="M1.66554 10.9347C1.66554 10.9347 2.75026 11.4829 3.24436 10.6857C3.52169 10.2383 4.05596 11.7318 5.0617 10.5385C5.26022 10.3029 5.56493 8.68004 5.10333 9.40321C4.64173 10.1264 2.90957 8.35129 2.76958 10.147C2.69464 11.1081 1.56058 10.6049 1.66551 10.9347L1.66554 10.9347Z" fill="#FFCC00"/>
</g>
<path d="M8.55532 0.630371C8.55532 0.630371 7.62096 1.40617 8.1559 2.17662C8.41008 2.54269 7.31367 2.52593 7.39338 3.35976C7.32119 3.3734 7.24959 3.38839 7.17854 3.40515C7.3321 2.86883 7.38064 2.35689 6.4372 2.27342C5.47693 2.18856 5.99349 1.05842 5.66258 1.1599C5.66258 1.1599 5.1035 2.24011 5.89557 2.74246C6.26196 2.97483 5.30752 3.36969 5.62324 4.07084C5.57316 4.10351 5.52376 4.13627 5.47498 4.17069C5.4045 3.64729 5.22783 3.2071 4.36446 3.48079C3.44551 3.77211 3.48701 2.53351 3.22072 2.75458C3.22072 2.75458 3.11936 3.96657 4.04376 4.12528C4.45803 4.19642 3.78753 4.88146 4.25557 5.40224C4.21116 5.46652 4.16987 5.53249 4.12849 5.59892C3.86232 5.18475 3.52567 4.91377 2.87882 5.47789C2.15227 6.11149 1.69442 4.96017 1.53834 5.26911C1.53834 5.26911 1.92844 6.41807 2.83951 6.19502C3.23221 6.09888 2.9348 6.92589 3.47798 7.24803C3.46825 7.29775 3.45896 7.34908 3.45074 7.39932C3.06585 7.15206 2.67288 7.08411 2.31301 7.81386C1.88664 8.67846 1.02181 7.78938 0.996735 8.1346C0.996735 8.1346 1.80028 9.04543 2.55508 8.48863C2.86995 8.25634 2.91739 9.07317 3.48705 9.20575C3.49232 9.23118 3.49955 9.25612 3.50521 9.2814C3.0807 9.21323 2.72153 9.32187 2.66098 10.0984C2.58605 11.0595 1.4516 10.5553 1.55657 10.8851C1.55657 10.8851 2.64191 11.4342 3.13602 10.637C3.33753 10.3119 3.67325 11.0087 4.22834 10.9577C4.29565 11.0572 4.36897 11.1541 4.44318 11.2482C4.04881 11.3695 3.79434 11.6253 4.05889 12.3345C4.39582 13.2377 3.15303 13.2597 3.38715 13.5147C3.38715 13.5147 4.60321 13.5532 4.71553 12.622C4.76101 12.2449 5.35482 12.7294 5.83506 12.4617C5.84091 12.4651 5.84734 12.4674 5.85321 12.4707C5.53264 12.7251 5.39044 13.0541 5.88952 13.6176C6.52872 14.3392 5.37665 14.8043 5.68678 14.9581C5.68678 14.9581 6.83671 14.5602 6.60665 13.6509C6.51217 13.2775 7.25922 13.5262 7.60514 13.079C7.62727 13.0822 7.64948 13.0822 7.67171 13.085C7.45607 13.4462 7.43217 13.8127 8.11652 14.1593C8.97655 14.5948 8.07719 15.4529 8.42212 15.4815C8.42212 15.4815 9.34309 14.6869 8.79431 13.9263C8.56257 13.6051 9.40036 13.5676 9.52354 12.9792C9.54806 12.973 9.5718 12.9646 9.59616 12.958C9.51317 13.3945 9.60417 13.7674 10.398 13.8385C11.3582 13.9246 10.8416 15.0532 11.1726 14.9521C11.1726 14.9521 11.7341 13.8729 10.9427 13.3695C10.5957 13.1488 11.4339 12.7878 11.2543 12.1532C11.3195 12.1046 11.3854 12.0565 11.448 12.0049C11.5379 12.4742 11.75 12.8307 12.5464 12.5647C13.4608 12.2593 13.4394 13.5009 13.7023 13.2758C13.7023 13.2758 13.7849 12.0616 12.8581 11.9172C12.4368 11.8515 13.1207 11.1374 12.6039 10.6221C12.6296 10.5768 12.6554 10.5321 12.6796 10.4859C12.9486 10.9249 13.2853 11.2335 13.9566 10.6524C14.6854 10.0214 15.1368 11.1756 15.294 10.8672C15.294 10.8672 14.9077 9.71544 13.9959 9.93524C13.5687 10.0382 13.9646 9.05231 13.2031 8.80661C13.2104 8.7474 13.2161 8.68793 13.2213 8.62808C13.6571 8.95959 14.1101 9.17402 14.5284 8.34061C14.9609 7.47903 15.8203 8.37399 15.8477 8.02895C15.8477 8.02895 15.0511 7.11132 14.2925 7.66282C13.929 7.92701 13.9255 6.8121 13.073 6.93056C13.0542 6.85996 13.0373 6.78806 13.0155 6.71875C13.566 6.86913 14.098 6.92868 14.1654 5.96531C14.2326 5.00364 15.3713 5.4985 15.2638 5.1695C15.2638 5.1695 14.175 4.63161 13.6873 5.43275C13.4509 5.82104 13.0101 4.7642 12.2531 5.24212C12.2104 5.18534 12.168 5.13053 12.123 5.07569C12.704 5.00708 13.2508 4.87527 12.94 3.93796C12.6365 3.02297 13.8787 3.04848 13.6541 2.78513C13.6541 2.78513 12.4419 2.69989 12.2955 3.62632C12.2243 4.07674 11.4097 3.25967 10.8915 4.00153C10.8438 3.97224 10.7949 3.94147 10.7462 3.91378C11.2613 3.63365 11.7236 3.30814 11.0851 2.55218C10.4631 1.81568 11.6245 1.37873 11.3181 1.2178C11.3181 1.2178 10.1594 1.58935 10.368 2.50377C10.4687 2.94532 9.42743 2.49978 9.21206 3.35707C9.15756 3.34701 9.10378 3.33505 9.04866 3.32681C9.41455 2.88032 9.70216 2.41249 8.83988 1.95611C7.98785 1.50513 8.89981 0.665685 8.55545 0.63073L8.55532 0.630371Z" fill="url(#paint0_radial_2_2463)"/>
<g opacity="0.18107">
<path d="M4.45152 11.2485C4.05714 11.3697 3.80266 11.6256 4.06722 12.3348C4.40416 13.2381 3.16133 13.26 3.39546 13.515C3.39546 13.515 4.61155 13.5536 4.72387 12.6223C4.76935 12.2452 5.36317 12.7298 5.84342 12.462C5.84928 12.4654 5.8557 12.4677 5.86157 12.471C5.541 12.7254 5.39879 13.0544 5.89788 13.6179C6.5371 14.3395 5.385 14.8046 5.69514 14.9584C5.69514 14.9584 6.84509 14.5605 6.61503 13.6512C6.52054 13.2778 7.26761 13.5265 7.61354 13.0793C7.63567 13.0825 7.65788 13.0825 7.68011 13.0854C7.46447 13.4465 7.44056 13.813 8.12493 14.1596C8.98498 14.5951 8.0856 15.4532 8.43054 15.4819C8.43054 15.4819 9.35152 14.6872 8.80274 13.9266C8.57098 13.6054 9.4088 13.568 9.53199 12.9795C9.5565 12.9733 9.58024 12.9649 9.60461 12.9583C9.52161 13.3948 9.61261 13.7677 10.4065 13.8389C11.3667 13.925 10.8501 15.0535 11.1811 14.9524C11.1811 14.9524 11.7426 13.8733 10.9511 13.3698C10.6041 13.1491 11.4424 12.7882 11.2628 12.1535C11.328 12.1049 11.3939 12.0568 11.4565 12.0052C11.5464 12.4745 11.7585 12.831 12.5549 12.565C13.4693 12.2596 13.4479 13.5012 13.7109 13.2761C13.7109 13.2761 13.7934 12.0619 12.8666 11.9175C12.4453 11.8518 13.1292 11.1377 12.6125 10.6224C12.6381 10.5771 12.6639 10.5324 12.6881 10.4862C12.9571 10.9251 13.2938 11.2337 13.9651 10.6526C14.6939 10.0216 15.1454 11.1758 15.3025 10.8675C15.3025 10.8675 14.9162 9.71568 14.0044 9.93549C13.5772 10.0385 13.9731 9.05254 13.2116 8.80684C13.2189 8.74762 13.2246 8.68815 13.2298 8.6283C13.6656 8.95982 14.1187 9.17426 14.537 8.34083C14.9694 7.47923 15.8289 8.37421 15.8563 8.02916C15.8563 8.02916 15.0596 7.11151 14.301 7.66302C13.9375 7.92722 13.934 6.81228 13.0815 6.93075C13.0627 6.86015 13.0458 6.78824 13.024 6.71893C13.5745 6.86932 14.1065 6.92887 14.1739 5.96548C14.2411 5.00379 15.3799 5.49866 15.2723 5.16965C15.2723 5.16965 14.1836 4.63175 13.6958 5.43291C13.4594 5.82121 13.0187 4.76435 12.2616 5.24227C12.2189 5.18549 12.1765 5.13069 12.1315 5.07584C12.7125 5.00723 13.2593 4.87541 12.9485 3.93809C12.645 3.02308 13.8872 3.04859 13.6626 2.78523C13.6626 2.78523 12.4504 2.69999 12.304 3.62644C12.2328 4.07687 11.4182 3.25979 10.8999 4.00166C10.5396 10.3687 5.91126 7.45307 4.45164 11.2488L4.45152 11.2485Z" fill="white"/>
</g>
<defs>
<filter id="filter0_f_2_2463" x="0.587766" y="0.16171" width="15.886" height="15.8854" filterUnits="userSpaceOnUse" color-interpolation-filters="sRGB">
<feFlood flood-opacity="0" result="BackgroundImageFix"/>
<feBlend mode="normal" in="SourceGraphic" in2="BackgroundImageFix" result="shape"/>
<feGaussianBlur stdDeviation="0.25876" result="effect1_foregroundBlur_2_2463"/>
</filter>
<radialGradient id="paint0_radial_2_2463" cx="0" cy="0" r="1" gradientUnits="userSpaceOnUse" gradientTransform="translate(4.45368 2.17478) scale(11.1139 11.1139)">
<stop stop-color="#FFA700"/>
<stop offset="1" stop-color="#FFA700" stop-opacity="0"/>
</radialGradient>
</defs>
</svg>
