<svg width="23" height="24" viewBox="0 0 23 24" fill="none" xmlns="http://www.w3.org/2000/svg">
<g filter="url(#filter0_f_1_1234)">
<path d="M7.92486 11.5808L5.13624 13.947L7.1221 14.2428L3.28909 18.3909L5.26298 14.7921L3.91088 14.0738L5.7827 11.2039L7.92495 11.5809L7.92486 11.5808Z" fill="#FFF014"/>
</g>
<g filter="url(#filter1_f_1_1234)">
<path d="M18.574 10.9051L15.42 13.5812L17.666 13.9157L13.3309 18.6071L15.5634 14.537L14.0342 13.7246L16.1512 10.4788L18.574 10.9052V10.9051Z" fill="#FFF014"/>
</g>
<path d="M19.7438 6.52919C19.7438 9.45138 17.3749 11.8203 14.4527 11.8203C11.5306 11.8203 9.16168 9.45138 9.16168 6.52919C9.16168 3.607 11.5306 1.23813 14.4527 1.23813C17.3749 1.23813 19.7438 3.607 19.7438 6.52919V6.52919Z" fill="#ECECEC"/>
<path d="M17.9287 8.53688C17.9287 11.4591 15.1174 13.8279 11.6493 13.8279C8.18125 13.8279 5.36987 11.4591 5.36987 8.53688C5.36987 5.61469 8.18125 3.24582 11.6493 3.24582C15.1174 3.24582 17.9287 5.61469 17.9287 8.53688V8.53688Z" fill="#ECECEC"/>
<path d="M13.2419 7.74068C13.2419 10.2052 11.244 12.203 8.77953 12.203C6.31502 12.203 4.31717 10.2052 4.31717 7.74068C4.31717 5.27617 6.31502 3.27832 8.77953 3.27832C11.244 3.27832 13.2419 5.27617 13.2419 7.74068V7.74068Z" fill="#ECECEC"/>
<path d="M11.5033 8.98365C11.5033 11.2193 9.5235 13.0316 7.0812 13.0316C4.6389 13.0316 2.65906 11.2193 2.65906 8.98365C2.65906 6.748 4.6389 4.93567 7.0812 4.93567C9.5235 4.93567 11.5033 6.748 11.5033 8.98365V8.98365Z" fill="#ECECEC"/>
<path d="M6.1023 9.14301C6.1023 10.6569 4.87504 11.8842 3.36112 11.8842C1.84719 11.8842 0.619934 10.6569 0.619934 9.14301C0.619934 7.62909 1.84719 6.40182 3.36112 6.40182C4.87504 6.40182 6.1023 7.62909 6.1023 9.14301V9.14301Z" fill="#ECECEC"/>
<path d="M22.2621 9.14288C22.2621 11.1321 20.6496 12.7447 18.6604 12.7447C16.6711 12.7447 15.0586 11.1321 15.0586 9.14288C15.0586 7.15366 16.6711 5.54111 18.6604 5.54111C20.6496 5.54111 22.2621 7.15366 22.2621 9.14288V9.14288Z" fill="#ECECEC"/>
<path d="M20.2541 8.41015C20.2541 10.3994 18.6415 12.0119 16.6523 12.0119C14.6631 12.0119 13.0505 10.3994 13.0505 8.41015C13.0505 6.42094 14.6631 4.80838 16.6523 4.80838C18.6415 4.80838 20.2541 6.42094 20.2541 8.41015V8.41015Z" fill="#ECECEC"/>
<g filter="url(#filter2_f_1_1234)">
<path d="M21.7684 7.8995C22.2465 9.13924 22.4019 10.721 21.1781 10.721C19.9544 10.721 17.1774 9.56953 17.1774 8.34574C17.1774 7.12195 18.1695 6.12988 19.3933 6.12988C20.617 6.12988 21.2904 6.65977 21.7685 7.8995H21.7684Z" fill="#F8F8F8"/>
</g>
<g filter="url(#filter3_f_1_1234)">
<path d="M18.3538 5.54117C18.3538 7.64298 16.2217 7.16058 14.1199 7.16058C12.0182 7.16058 10.7426 7.64296 10.7426 5.54117C10.7426 3.43939 12.4464 1.73553 14.5482 1.73553C16.65 1.73553 18.3538 3.43936 18.3538 5.54117H18.3538Z" fill="#D1D1D1"/>
</g>
<g filter="url(#filter4_f_1_1234)">
<path d="M10.9991 8.98385C10.9991 10.9645 9.2451 12.5701 7.08137 12.5701C4.91763 12.5701 3.1636 10.9645 3.1636 8.98385C3.1636 7.00321 4.91763 5.39761 7.08137 5.39761C9.2451 5.39761 10.9991 7.00321 10.9991 8.98385V8.98385Z" fill="#CCCCCC"/>
</g>
<g filter="url(#filter5_f_1_1234)">
<path d="M5.48198 9.18837C5.48198 10.564 4.43638 11.6792 3.14654 11.6792C1.8567 11.6792 0.811096 10.564 0.811096 9.18837C0.811096 7.81271 1.8567 6.69754 3.14654 6.69754C4.43638 6.69754 5.48198 7.81271 5.48198 9.18837V9.18837Z" fill="#CFCFCF"/>
</g>
<g opacity="0.86831" filter="url(#filter6_f_1_1234)">
<path d="M9.02342 10.7571C9.02342 12.0577 8.02828 12.6189 6.7277 12.6189C5.42712 12.6189 4.39252 12.4719 4.39252 11.1713C4.39252 9.87076 5.22988 9.84203 6.53047 9.84203C7.83105 9.84203 9.02342 9.45655 9.02342 10.7571Z" fill="#BDBDBD"/>
</g>
<g opacity="0.81481" filter="url(#filter7_f_1_1234)">
<path d="M15.7947 10.6765C15.7947 12.5974 13.6938 13.4263 11.773 13.4263C9.85218 13.4263 8.3241 13.2091 8.3241 11.2883C8.3241 9.36746 9.34199 8.43438 9.97164 10.2491C10.6755 12.2776 12.459 11.5955 15.7947 10.6766L15.7947 10.6765Z" fill="#BDBDBD"/>
</g>
<g filter="url(#filter8_f_1_1234)">
<path d="M7.18065 8.61448C7.18065 10.0105 6.17305 11.1421 4.93011 11.1421C3.68716 11.1421 2.67957 10.0105 2.67957 8.61448C2.67957 7.2185 3.68716 6.08685 4.93011 6.08685C6.17305 6.08685 7.18065 7.2185 7.18065 8.61448V8.61448Z" fill="#E9E9E9"/>
</g>
<g filter="url(#filter9_f_1_1234)">
<path d="M12.4739 7.24705C12.4739 9.2515 10.849 10.8764 8.84458 10.8764C6.84012 10.8764 5.21521 9.2515 5.21521 7.24705C5.21521 5.24259 6.84012 3.61768 8.84458 3.61768C10.849 3.61768 12.4739 5.24259 12.4739 7.24705V7.24705Z" fill="#C4C4C4"/>
</g>
<g filter="url(#filter10_f_1_1234)">
<path d="M13.6625 6.07481C13.6625 7.24116 12.0907 8.1867 10.1518 8.1867C8.21281 8.1867 6.64099 7.24116 6.64099 6.07481C6.64099 4.90846 8.21281 3.96292 10.1518 3.96292C12.0907 3.96292 13.6625 4.90846 13.6625 6.07481V6.07481Z" fill="#E7E7E7"/>
</g>
<g opacity="0.81893" filter="url(#filter11_f_1_1234)">
<path d="M3.60182 7.31885C3.83393 7.7508 3.94509 8.17624 3.95281 8.96304C3.96485 10.1875 4.30929 10.3779 4.59416 10.4353C4.89169 10.4952 5.49252 9.65869 5.42101 9.15894C5.14791 7.6164 4.71998 6.02352 2.88095 6.53401C2.88095 6.53401 3.36968 6.88683 3.60179 7.31879L3.60182 7.31885Z" fill="white"/>
</g>
<g opacity="0.93827" filter="url(#filter12_f_1_1234)">
<path d="M18.714 5.704C18.714 7.35258 17.3673 8.7566 15.9102 8.7566C14.4531 8.7566 16.7752 4.95683 13.4664 3.4109C11.9727 2.71306 14.1808 1.61782 15.6172 1.86247C17.4887 2.18121 18.714 4.05536 18.714 5.70391V5.704Z" fill="#FCFCFC"/>
</g>
<g opacity="0.97062" filter="url(#filter13_f_1_1234)">
<path d="M20.6964 11.7227C20.6964 13.0148 16.9574 12.2189 16.3645 11.8595C15.8168 11.9958 11.8133 14.5532 12.6696 12.8103C13.2394 11.6507 15.6759 12.0803 16.1683 11.3319C17.2018 11.9809 17.473 11.8505 19.4789 11.8579L20.696 11.7227L20.6964 11.7227Z" fill="#BDBDBD"/>
</g>
<g opacity="0.92181" filter="url(#filter14_f_1_1234)">
<path d="M9.17918 4.79422C9.51147 5.28626 9.6706 5.77088 9.68167 6.66713C9.6989 8.06192 9.78633 7.82799 10.1942 7.89346C10.6201 7.96175 12.2916 7.63992 12.1892 7.0707C11.7982 5.31359 10.78 3.3188 8.14722 3.9004C8.14722 3.9004 8.84688 4.3023 9.17917 4.79434L9.17918 4.79422Z" fill="white"/>
</g>
<g opacity="0.72428" filter="url(#filter15_f_1_1234)">
<path d="M14.7379 6.52514C15.5732 7.50349 15.8862 9.93538 15.2593 10.4401C14.7308 8.88325 14.1101 7.78068 12.1755 7.46996C11.0852 7.29487 11.4435 6.024 12.1708 5.65406C13.1184 5.1721 13.9025 5.54678 14.7378 6.52513L14.7379 6.52514Z" fill="#FCFCFC"/>
</g>
<g filter="url(#filter16_f_1_1234)">
<path d="M14.0634 10.9336L10.0141 15.0075L13.6762 15.553L6.60776 23.2023L10.2477 16.566L7.75437 15.2414L9.98771 11.5957C9.98771 11.5957 10.4979 11.9622 11.9493 11.7567C13.4007 11.5511 14.0632 10.9337 14.0632 10.9337L14.0634 10.9336Z" fill="#FFF014"/>
</g>
<defs>
<filter id="filter0_f_1_1234" x="2.71885" y="10.6336" width="5.77634" height="8.32746" filterUnits="userSpaceOnUse" color-interpolation-filters="sRGB">
<feFlood flood-opacity="0" result="BackgroundImageFix"/>
<feBlend mode="normal" in="SourceGraphic" in2="BackgroundImageFix" result="shape"/>
<feGaussianBlur stdDeviation="0.28512" result="effect1_foregroundBlur_1_1234"/>
</filter>
<filter id="filter1_f_1_1234" x="12.7607" y="9.90858" width="6.38355" height="9.26878" filterUnits="userSpaceOnUse" color-interpolation-filters="sRGB">
<feFlood flood-opacity="0" result="BackgroundImageFix"/>
<feBlend mode="normal" in="SourceGraphic" in2="BackgroundImageFix" result="shape"/>
<feGaussianBlur stdDeviation="0.28512" result="effect1_foregroundBlur_1_1234"/>
</filter>
<filter id="filter2_f_1_1234" x="16.6033" y="5.55573" width="6.09306" height="5.73939" filterUnits="userSpaceOnUse" color-interpolation-filters="sRGB">
<feFlood flood-opacity="0" result="BackgroundImageFix"/>
<feBlend mode="normal" in="SourceGraphic" in2="BackgroundImageFix" result="shape"/>
<feGaussianBlur stdDeviation="0.287074" result="effect1_foregroundBlur_1_1234"/>
</filter>
<filter id="filter3_f_1_1234" x="9.54078" y="0.533757" width="10.0148" height="7.87633" filterUnits="userSpaceOnUse" color-interpolation-filters="sRGB">
<feFlood flood-opacity="0" result="BackgroundImageFix"/>
<feBlend mode="normal" in="SourceGraphic" in2="BackgroundImageFix" result="shape"/>
<feGaussianBlur stdDeviation="0.600889" result="effect1_foregroundBlur_1_1234"/>
</filter>
<filter id="filter4_f_1_1234" x="2.10029" y="4.3343" width="9.96218" height="9.29909" filterUnits="userSpaceOnUse" color-interpolation-filters="sRGB">
<feFlood flood-opacity="0" result="BackgroundImageFix"/>
<feBlend mode="normal" in="SourceGraphic" in2="BackgroundImageFix" result="shape"/>
<feGaussianBlur stdDeviation="0.531659" result="effect1_foregroundBlur_1_1234"/>
</filter>
<filter id="filter5_f_1_1234" x="0.342391" y="6.22883" width="5.60831" height="5.91907" filterUnits="userSpaceOnUse" color-interpolation-filters="sRGB">
<feFlood flood-opacity="0" result="BackgroundImageFix"/>
<feBlend mode="normal" in="SourceGraphic" in2="BackgroundImageFix" result="shape"/>
<feGaussianBlur stdDeviation="0.234353" result="effect1_foregroundBlur_1_1234"/>
</filter>
<filter id="filter6_f_1_1234" x="3.64887" y="9.04499" width="6.11822" height="4.31759" filterUnits="userSpaceOnUse" color-interpolation-filters="sRGB">
<feFlood flood-opacity="0" result="BackgroundImageFix"/>
<feBlend mode="normal" in="SourceGraphic" in2="BackgroundImageFix" result="shape"/>
<feGaussianBlur stdDeviation="0.371825" result="effect1_foregroundBlur_1_1234"/>
</filter>
<filter id="filter7_f_1_1234" x="7.22578" y="8.17564" width="9.66728" height="6.34899" filterUnits="userSpaceOnUse" color-interpolation-filters="sRGB">
<feFlood flood-opacity="0" result="BackgroundImageFix"/>
<feBlend mode="normal" in="SourceGraphic" in2="BackgroundImageFix" result="shape"/>
<feGaussianBlur stdDeviation="0.54916" result="effect1_foregroundBlur_1_1234"/>
</filter>
<filter id="filter8_f_1_1234" x="1.69464" y="5.10193" width="6.47091" height="7.02508" filterUnits="userSpaceOnUse" color-interpolation-filters="sRGB">
<feFlood flood-opacity="0" result="BackgroundImageFix"/>
<feBlend mode="normal" in="SourceGraphic" in2="BackgroundImageFix" result="shape"/>
<feGaussianBlur stdDeviation="0.492461" result="effect1_foregroundBlur_1_1234"/>
</filter>
<filter id="filter9_f_1_1234" x="4.21603" y="2.6185" width="9.25708" height="9.25708" filterUnits="userSpaceOnUse" color-interpolation-filters="sRGB">
<feFlood flood-opacity="0" result="BackgroundImageFix"/>
<feBlend mode="normal" in="SourceGraphic" in2="BackgroundImageFix" result="shape"/>
<feGaussianBlur stdDeviation="0.499588" result="effect1_foregroundBlur_1_1234"/>
</filter>
<filter id="filter10_f_1_1234" x="5.27975" y="2.60168" width="9.74402" height="6.94626" filterUnits="userSpaceOnUse" color-interpolation-filters="sRGB">
<feFlood flood-opacity="0" result="BackgroundImageFix"/>
<feBlend mode="normal" in="SourceGraphic" in2="BackgroundImageFix" result="shape"/>
<feGaussianBlur stdDeviation="0.680619" result="effect1_foregroundBlur_1_1234"/>
</filter>
<filter id="filter11_f_1_1234" x="2.31104" y="5.86692" width="3.68575" height="5.14131" filterUnits="userSpaceOnUse" color-interpolation-filters="sRGB">
<feFlood flood-opacity="0" result="BackgroundImageFix"/>
<feBlend mode="normal" in="SourceGraphic" in2="BackgroundImageFix" result="shape"/>
<feGaussianBlur stdDeviation="0.284954" result="effect1_foregroundBlur_1_1234"/>
</filter>
<filter id="filter12_f_1_1234" x="11.7852" y="0.644159" width="8.1122" height="9.29579" filterUnits="userSpaceOnUse" color-interpolation-filters="sRGB">
<feFlood flood-opacity="0" result="BackgroundImageFix"/>
<feBlend mode="normal" in="SourceGraphic" in2="BackgroundImageFix" result="shape"/>
<feGaussianBlur stdDeviation="0.591678" result="effect1_foregroundBlur_1_1234"/>
</filter>
<filter id="filter13_f_1_1234" x="11.8112" y="10.5931" width="9.62403" height="3.56189" filterUnits="userSpaceOnUse" color-interpolation-filters="sRGB">
<feFlood flood-opacity="0" result="BackgroundImageFix"/>
<feBlend mode="normal" in="SourceGraphic" in2="BackgroundImageFix" result="shape"/>
<feGaussianBlur stdDeviation="0.369401" result="effect1_foregroundBlur_1_1234"/>
</filter>
<filter id="filter14_f_1_1234" x="7.20075" y="2.85099" width="5.93945" height="5.99801" filterUnits="userSpaceOnUse" color-interpolation-filters="sRGB">
<feFlood flood-opacity="0" result="BackgroundImageFix"/>
<feBlend mode="normal" in="SourceGraphic" in2="BackgroundImageFix" result="shape"/>
<feGaussianBlur stdDeviation="0.473235" result="effect1_foregroundBlur_1_1234"/>
</filter>
<filter id="filter15_f_1_1234" x="10.2874" y="4.24688" width="6.50077" height="7.39103" filterUnits="userSpaceOnUse" color-interpolation-filters="sRGB">
<feFlood flood-opacity="0" result="BackgroundImageFix"/>
<feBlend mode="normal" in="SourceGraphic" in2="BackgroundImageFix" result="shape"/>
<feGaussianBlur stdDeviation="0.598895" result="effect1_foregroundBlur_1_1234"/>
</filter>
<filter id="filter16_f_1_1234" x="6.03752" y="10.3634" width="8.59608" height="13.4092" filterUnits="userSpaceOnUse" color-interpolation-filters="sRGB">
<feFlood flood-opacity="0" result="BackgroundImageFix"/>
<feBlend mode="normal" in="SourceGraphic" in2="BackgroundImageFix" result="shape"/>
<feGaussianBlur stdDeviation="0.28512" result="effect1_foregroundBlur_1_1234"/>
</filter>
</defs>
</svg>
