<svg width="30" height="35" viewBox="0 0 30 35" fill="none" xmlns="http://www.w3.org/2000/svg">
<g filter="url(#filter0_d_2_2468)">
<path d="M13.9197 6.44558C13.9197 8.41403 12.324 10.0097 10.3556 10.0097C8.38717 10.0097 6.79141 8.41399 6.79141 6.44558C6.79141 4.47717 8.38717 2.88141 10.3556 2.88141C12.324 2.88141 13.9197 4.47717 13.9197 6.44558V6.44558Z" fill="#FFCC00"/>
<path d="M10.5305 0.971283C10.5305 0.971283 9.85484 1.53334 10.2417 2.09045C10.4588 2.40312 9.31417 2.32811 9.81672 3.33858C9.91592 3.53804 10.9051 4.20691 10.558 3.6927C10.2109 3.17848 11.8868 2.53966 10.7357 1.93035C10.1195 1.60423 10.7796 0.99653 10.5305 0.971315L10.5305 0.971283Z" fill="#FFCC00"/>
<path d="M12.5285 1.39557C12.5285 1.39557 11.6918 1.66466 11.8427 2.32593C11.9273 2.69705 10.8935 2.20007 10.9824 3.3251C10.9999 3.54717 11.6678 4.53703 11.5378 3.93039C11.4078 3.32375 13.2011 3.35696 12.3607 2.36186C11.9109 1.82927 12.7501 1.51196 12.5285 1.39557H12.5285Z" fill="#FFCC00"/>
<path d="M14.2173 2.52915C14.2173 2.52915 13.3405 2.46779 13.2346 3.13771C13.1752 3.5137 12.4003 2.6679 12.0645 3.74529C11.9982 3.95796 12.25 5.12516 12.355 4.5137C12.4599 3.90224 14.1122 4.59991 13.7021 3.36366C13.4827 2.702 14.3796 2.71954 14.2173 2.5291L14.2173 2.52915Z" fill="#FFCC00"/>
<path d="M15.3821 4.25393C15.3821 4.25393 14.5946 3.86378 14.2418 4.44311C14.0439 4.76825 13.6489 3.69136 12.9285 4.56009C12.7863 4.73156 12.5754 5.90684 12.905 5.38126C13.2346 4.85569 14.4974 6.12923 14.5883 4.82991C14.6369 4.13448 15.4598 4.49183 15.3821 4.25391L15.3821 4.25393Z" fill="#FFCC00"/>
<path d="M15.804 6.32019C15.804 6.32019 15.2275 5.65685 14.6789 6.05563C14.371 6.27946 14.4212 5.13351 13.4219 5.65779C13.2246 5.76128 12.5773 6.76465 13.0839 6.40655C13.5904 6.04845 14.2654 7.71012 14.8497 6.54603C15.1624 5.92297 15.7842 6.56971 15.8041 6.32019H15.804Z" fill="#FFCC00"/>
<path d="M15.4045 8.37339C15.4045 8.37339 15.1252 7.54005 14.4658 7.69901C14.0958 7.78821 14.5801 6.74839 13.4562 6.85108C13.2344 6.87134 12.2528 7.55123 12.8578 7.41389C13.4628 7.27654 13.4516 9.06999 14.4363 8.21747C14.9633 7.76119 15.2909 8.59643 15.4045 8.37343V8.37339Z" fill="#FFCC00"/>
<path d="M14.2538 10.115C14.2538 10.115 14.3133 9.2381 13.6431 9.13364C13.267 9.075 14.1112 8.29839 13.0331 7.96475C12.8203 7.8989 11.6536 8.15315 12.2653 8.25686C12.877 8.36056 12.1827 10.0143 13.4181 9.60164C14.0793 9.38079 14.0636 10.2778 14.2538 10.115V10.115Z" fill="#FFCC00"/>
<path d="M12.4237 11.328C12.4237 11.328 12.8292 10.5482 12.2569 10.1843C11.9357 9.97999 13.0201 9.60617 12.1657 8.86896C11.997 8.72344 10.8261 8.4895 11.3451 8.82934C11.8641 9.16917 10.5661 10.4068 11.8634 10.5231C12.5577 10.5853 12.1843 11.4011 12.4237 11.328L12.4237 11.328Z" fill="#FFCC00"/>
<path d="M10.4351 11.7102C10.4351 11.7102 11.1005 11.136 10.7037 10.586C10.481 10.2773 11.6267 10.3316 11.106 9.33036C11.0032 9.13273 10.0022 8.48182 10.3585 8.98971C10.7147 9.49759 9.05068 10.1666 10.2127 10.755C10.8346 11.0699 10.1857 11.6895 10.4351 11.7102V11.7102Z" fill="#FFCC00"/>
<path d="M8.45769 11.3332C8.45769 11.3332 9.2878 11.0444 9.12141 10.3869C9.02802 10.0179 10.0733 10.4903 9.95788 9.36769C9.9351 9.1461 9.24411 8.17228 9.38833 8.77569C9.53256 9.37911 7.73906 9.38823 8.60271 10.3632C9.06494 10.885 8.23346 11.2221 8.45773 11.3332L8.45769 11.3332Z" fill="#FFCC00"/>
<path d="M6.79422 10.2881C6.79422 10.2881 7.67261 10.3172 7.75382 9.64378C7.79939 9.26586 8.60479 10.0826 8.90082 8.99358C8.95925 8.77862 8.6647 7.62148 8.58226 8.23636C8.49983 8.85123 6.82306 8.21481 7.27827 9.43514C7.52192 10.0883 6.6249 10.1037 6.79419 10.2881H6.79422Z" fill="#FFCC00"/>
<path d="M8.43899 1.35497C8.43899 1.35497 8.03447 2.13522 8.60724 2.49851C8.9287 2.70238 7.84473 3.0776 8.70013 3.81373C8.86898 3.95904 10.0402 4.1915 9.52075 3.85232C9.0013 3.51313 10.2978 2.27386 9.00036 2.15921C8.30596 2.09785 8.67831 1.28157 8.439 1.35501L8.43899 1.35497Z" fill="#FFCC00"/>
<path d="M6.67352 2.50715C6.67352 2.50715 6.60052 3.38302 7.26898 3.49781C7.64415 3.56224 6.78813 4.32577 7.86098 4.67592C8.07275 4.74504 9.24319 4.50875 8.63318 4.39566C8.02317 4.28256 8.74273 2.63972 7.50115 3.03333C6.83664 3.244 6.86611 2.3473 6.67347 2.50715L6.67352 2.50715Z" fill="#FFCC00"/>
<path d="M5.45724 4.32502C5.45724 4.32502 5.73956 5.15733 6.39837 4.99603C6.7681 4.90551 6.28757 5.94707 7.41106 5.84037C7.63282 5.8193 8.61195 5.13586 8.00746 5.27541C7.40297 5.41495 7.40769 3.62145 6.42606 4.47748C5.90067 4.93566 5.57013 4.10159 5.45724 4.32499V4.32502Z" fill="#FFCC00"/>
<path d="M5.06475 6.39787C5.06475 6.39787 5.64595 7.05718 6.19173 6.65452C6.49805 6.42855 6.45588 7.57483 7.45151 7.04354C7.64805 6.93867 8.28831 5.93078 7.78424 6.29244C7.28016 6.65409 6.59359 4.99719 6.0175 6.16535C5.70917 6.79057 5.08278 6.14824 5.06473 6.39788L5.06475 6.39787Z" fill="#FFCC00"/>
<path d="M5.46988 8.38742C5.46988 8.38742 6.25428 8.78386 6.61159 8.20737C6.81213 7.88383 7.19849 8.96385 7.92578 8.10091C8.06934 7.93057 8.28969 6.75701 7.95589 7.27997C7.62209 7.80292 6.36949 6.51928 6.26825 7.81784C6.21406 8.51285 5.39398 8.14894 5.46986 8.38744L5.46988 8.38742Z" fill="#FFCC00"/>
</g>
<g filter="url(#filter1_d_2_2468)">
<path d="M10.4527 0.936005C10.4527 0.936005 9.777 1.49701 10.1638 2.05416C10.3477 2.31888 9.55479 2.30676 9.61243 2.90974C9.56023 2.91961 9.50845 2.93044 9.45707 2.94256C9.56812 2.55472 9.60322 2.18452 8.92098 2.12416C8.22657 2.0628 8.60012 1.24555 8.36082 1.31893C8.36082 1.31893 7.95653 2.10007 8.5293 2.46334C8.79426 2.63138 8.10406 2.91692 8.33237 3.42395C8.29616 3.44758 8.26043 3.47126 8.22516 3.49615C8.17419 3.11766 8.04644 2.79934 7.42209 2.99726C6.75757 3.20792 6.78758 2.31224 6.59501 2.47211C6.59501 2.47211 6.52172 3.34855 7.19019 3.46331C7.48976 3.51476 7.00489 4.01014 7.34336 4.38674C7.31124 4.43322 7.28138 4.48093 7.25145 4.52897C7.05898 4.22946 6.81553 4.0335 6.34777 4.44144C5.82237 4.89963 5.49128 4.06706 5.37841 4.29046C5.37841 4.29046 5.66051 5.12132 6.31934 4.96003C6.60332 4.89051 6.38825 5.48855 6.78104 5.7215C6.77401 5.75746 6.7673 5.79458 6.76135 5.83091C6.48302 5.65211 6.19885 5.60297 5.93861 6.13068C5.63028 6.75591 5.00489 6.11298 4.98676 6.36262C4.98676 6.36262 5.56783 7.02128 6.11366 6.61863C6.34135 6.45066 6.37566 7.04134 6.78761 7.13722C6.79142 7.1556 6.79664 7.17364 6.80074 7.19192C6.49375 7.14263 6.23403 7.22119 6.19024 7.78272C6.13605 8.47772 5.31569 8.11311 5.39159 8.35163C5.39159 8.35163 6.17645 8.7487 6.53376 8.1722C6.67948 7.93711 6.92226 8.44097 7.32366 8.40415C7.37234 8.47606 7.42536 8.54616 7.47902 8.61421C7.19384 8.70189 7.00982 8.8869 7.20113 9.39976C7.44478 10.0529 6.54606 10.0688 6.71536 10.2532C6.71536 10.2532 7.59475 10.2811 7.67597 9.60767C7.70886 9.33494 8.13826 9.68534 8.48554 9.4917C8.48978 9.49417 8.49443 9.49581 8.49867 9.49826C8.26686 9.68222 8.16403 9.92013 8.52493 10.3276C8.98716 10.8494 8.15405 11.1858 8.37832 11.2969C8.37832 11.2969 9.20988 11.0092 9.04351 10.3517C8.97519 10.0817 9.51542 10.2615 9.76556 9.93812C9.78157 9.94042 9.79763 9.94041 9.8137 9.94249C9.65777 10.2037 9.64048 10.4687 10.1354 10.7193C10.7573 11.0342 10.1069 11.6548 10.3564 11.6755C10.3564 11.6755 11.0223 11.1008 10.6255 10.5508C10.4579 10.3185 11.0638 10.2915 11.1528 9.86595C11.1706 9.86147 11.1877 9.85537 11.2054 9.85063C11.1453 10.1663 11.2111 10.4359 11.7852 10.4874C12.4795 10.5496 12.106 11.3657 12.3454 11.2926C12.3454 11.2926 12.7514 10.5122 12.1791 10.1482C11.9281 9.9886 12.5343 9.72758 12.4045 9.26861C12.4516 9.23348 12.4992 9.19874 12.5445 9.16139C12.6095 9.50078 12.7629 9.75856 13.3388 9.56619C14 9.34533 13.9846 10.2432 14.1747 10.0804C14.1747 10.0804 14.2344 9.20242 13.5642 9.09795C13.2595 9.05044 13.7541 8.53408 13.3804 8.16143C13.3989 8.12867 13.4176 8.09636 13.4351 8.06297C13.6296 8.38038 13.8731 8.60353 14.3585 8.18332C14.8856 7.72703 15.212 8.56168 15.3257 8.33868C15.3257 8.33868 15.0463 7.50579 14.387 7.66474C14.0781 7.7392 14.3644 7.02626 13.8137 6.84858C13.8189 6.80576 13.8231 6.76275 13.8268 6.71947C14.142 6.9592 14.4696 7.11427 14.7721 6.5116C15.0848 5.88855 15.7063 6.53573 15.7261 6.28622C15.7261 6.28622 15.15 5.62264 14.6014 6.02146C14.3386 6.21251 14.3361 5.40627 13.7196 5.49193C13.706 5.44088 13.6938 5.38888 13.678 5.33876C14.0761 5.44751 14.4608 5.49057 14.5095 4.79392C14.5582 4.0985 15.3816 4.45635 15.3038 4.21843C15.3038 4.21843 14.5165 3.82946 14.1638 4.4088C13.9929 4.68959 13.6741 3.92535 13.1267 4.27095C13.0958 4.22989 13.0652 4.19026 13.0326 4.1506C13.4527 4.10099 13.8482 4.00566 13.6234 3.32786C13.4039 2.66619 14.3022 2.68464 14.1398 2.4942C14.1398 2.4942 13.2632 2.43256 13.1573 3.1025C13.1059 3.42821 12.5168 2.83736 12.142 3.37383C12.1076 3.35265 12.0722 3.3304 12.037 3.31037C12.4095 3.1078 12.7438 2.87241 12.2821 2.32575C11.8323 1.79315 12.6722 1.47717 12.4506 1.3608C12.4506 1.3608 11.6126 1.62948 11.7635 2.29074C11.8363 2.61004 11.0833 2.28785 10.9276 2.90779C10.8882 2.90052 10.8493 2.89187 10.8094 2.88591C11.074 2.56304 11.282 2.22473 10.6585 1.8947C10.0423 1.56858 10.7018 0.961542 10.4528 0.936264L10.4527 0.936005Z" fill="url(#paint0_radial_2_2468)"/>
</g>
<g opacity="0.18107" filter="url(#filter2_d_2_2468)">
<path d="M7.47762 8.61354C7.19243 8.70122 7.00841 8.88623 7.19972 9.39909C7.44337 10.0522 6.54466 10.0681 6.71396 10.2525C6.71396 10.2525 7.59334 10.2804 7.67456 9.60699C7.70745 9.33427 8.13686 9.68467 8.48413 9.49103C8.48837 9.49349 8.49302 9.49514 8.49726 9.49759C8.26545 9.68154 8.16262 9.91945 8.52352 10.3269C8.98575 10.8487 8.15264 11.1851 8.37691 11.2963C8.37691 11.2963 9.20847 11.0085 9.0421 10.351C8.97378 10.081 9.514 10.2608 9.76415 9.93744C9.78015 9.93974 9.79622 9.93973 9.81229 9.94182C9.65635 10.203 9.63907 10.468 10.1339 10.7186C10.7559 11.0335 10.1055 11.6541 10.3549 11.6748C10.3549 11.6748 11.0209 11.1002 10.6241 10.5501C10.4565 10.3179 11.0623 10.2908 11.1514 9.86527C11.1691 9.8608 11.1863 9.85469 11.2039 9.84995C11.1439 10.1656 11.2097 10.4352 11.7838 10.4867C12.4781 10.5489 12.1046 11.365 12.3439 11.2919C12.3439 11.2919 12.75 10.5116 12.1776 10.1475C11.9267 9.98793 12.5329 9.7269 12.403 9.26793C12.4501 9.23281 12.4978 9.19807 12.5431 9.16072C12.6081 9.5001 12.7615 9.75788 13.3374 9.56552C13.9986 9.34466 13.9831 10.2425 14.1733 10.0797C14.1733 10.0797 14.2329 9.20175 13.5628 9.09728C13.2581 9.04977 13.7527 8.53341 13.379 8.16076C13.3975 8.128 13.4162 8.09569 13.4337 8.0623C13.6282 8.37971 13.8717 8.60286 14.3571 8.18265C14.8841 7.72636 15.2106 8.561 15.3242 8.33801C15.3242 8.33801 15.0449 7.50512 14.3855 7.66407C14.0766 7.73853 14.3629 7.02559 13.8122 6.84792C13.8175 6.8051 13.8217 6.76209 13.8254 6.71881C14.1405 6.95854 14.4682 7.11361 14.7706 6.51094C15.0834 5.88789 15.7049 6.53507 15.7247 6.28556C15.7247 6.28556 15.1486 5.62198 14.6 6.0208C14.3372 6.21185 14.3346 5.40561 13.7182 5.49127C13.7046 5.44022 13.6924 5.38822 13.6766 5.3381C14.0747 5.44685 14.4594 5.48991 14.5081 4.79326C14.5567 4.09785 15.3802 4.4557 15.3024 4.21778C15.3024 4.21778 14.5151 3.82881 14.1624 4.40815C13.9915 4.68894 13.6727 3.9247 13.1253 4.2703C13.0944 4.22924 13.0638 4.18961 13.0312 4.14995C13.4513 4.10033 13.8468 4.00501 13.622 3.32721C13.4025 2.66554 14.3008 2.68399 14.1384 2.49355C14.1384 2.49355 13.2618 2.43192 13.1559 3.10185C13.1044 3.42756 12.5154 2.83672 12.1406 3.37318C11.8801 7.97735 8.53319 5.86897 7.47771 8.61376L7.47762 8.61354Z" fill="white"/>
</g>
<g filter="url(#filter3_d_2_2468)">
<path d="M23.2698 9.24686C23.2698 12.1688 20.9011 14.5375 17.9791 14.5375C15.0572 14.5375 12.6885 12.1688 12.6885 9.24686C12.6885 6.3249 15.0572 3.95621 17.9791 3.95621C20.9011 3.95621 23.2698 6.3249 23.2698 9.24686V9.24686Z" fill="#ECECEC"/>
<path d="M21.4549 11.2544C21.4549 14.1764 18.6437 16.5451 15.1759 16.5451C11.7081 16.5451 8.89697 14.1764 8.89697 11.2544C8.89697 8.33243 11.7081 5.96375 15.1759 5.96375C18.6437 5.96375 21.4549 8.33243 21.4549 11.2544V11.2544Z" fill="#ECECEC"/>
<path d="M16.7684 10.4582C16.7684 12.9226 14.7707 14.9203 12.3064 14.9203C9.84206 14.9203 7.84436 12.9226 7.84436 10.4582C7.84436 7.99391 9.84206 5.99622 12.3064 5.99622C14.7707 5.99622 16.7684 7.99391 16.7684 10.4582V10.4582Z" fill="#ECECEC"/>
<path d="M15.03 11.7011C15.03 13.9366 13.0503 15.7488 10.6082 15.7488C8.16606 15.7488 6.18637 13.9366 6.18637 11.7011C6.18637 9.46566 8.16606 7.65347 10.6082 7.65347C13.0503 7.65347 15.03 9.46566 15.03 11.7011V11.7011Z" fill="#ECECEC"/>
<path d="M9.62935 11.8605C9.62935 13.3743 8.40218 14.6015 6.88837 14.6015C5.37457 14.6015 4.1474 13.3743 4.1474 11.8605C4.1474 10.3467 5.37457 9.11951 6.88837 9.11951C8.40218 9.11951 9.62935 10.3467 9.62935 11.8605V11.8605Z" fill="#ECECEC"/>
<path d="M25.788 11.8603C25.788 13.8494 24.1755 15.4618 22.1865 15.4618C20.1974 15.4618 18.585 13.8494 18.585 11.8603C18.585 9.87128 20.1974 8.25885 22.1865 8.25885C24.1755 8.25885 25.788 9.87128 25.788 11.8603V11.8603Z" fill="#ECECEC"/>
<path d="M23.78 11.1277C23.78 13.1167 22.1676 14.7292 20.1786 14.7292C18.1895 14.7292 16.5771 13.1167 16.5771 11.1277C16.5771 9.13862 18.1895 7.52618 20.1786 7.52618C22.1676 7.52618 23.78 9.13862 23.78 11.1277V11.1277Z" fill="#ECECEC"/>
<g filter="url(#filter4_f_2_2468)">
<path d="M25.2942 10.6171C25.7723 11.8567 25.9277 13.4383 24.704 13.4383C23.4803 13.4383 20.7036 12.287 20.7036 11.0633C20.7036 9.83959 21.6956 8.8476 22.9193 8.8476C24.143 8.8476 24.8162 9.37744 25.2943 10.6171H25.2942Z" fill="#F8F8F8"/>
</g>
<g filter="url(#filter5_f_2_2468)">
<path d="M21.8799 8.2589C21.8799 10.3605 19.748 9.87818 17.6464 9.87818C15.5448 9.87818 14.2693 10.3605 14.2693 8.2589C14.2693 6.15727 15.973 4.45355 18.0746 4.45355C20.1763 4.45355 21.8799 6.15725 21.8799 8.2589H21.8799Z" fill="#D1D1D1"/>
</g>
<g filter="url(#filter6_f_2_2468)">
<path d="M14.5258 11.7013C14.5258 13.6818 12.7719 15.2873 10.6084 15.2873C8.44478 15.2873 6.69089 13.6818 6.69089 11.7013C6.69089 9.72086 8.44478 8.11539 10.6084 8.11539C12.7719 8.11539 14.5258 9.72086 14.5258 11.7013V11.7013Z" fill="#CCCCCC"/>
</g>
<g filter="url(#filter7_f_2_2468)">
<path d="M9.00906 11.9058C9.00906 13.2814 7.96353 14.3965 6.67379 14.3965C5.38406 14.3965 4.33853 13.2814 4.33853 11.9058C4.33853 10.5303 5.38406 9.41519 6.67379 9.41519C7.96353 9.41519 9.00906 10.5303 9.00906 11.9058V11.9058Z" fill="#CFCFCF"/>
</g>
<g opacity="0.86831" filter="url(#filter8_f_2_2468)">
<path d="M12.5502 13.4744C12.5502 14.7749 11.5552 15.3361 10.2547 15.3361C8.9542 15.3361 7.91968 15.1891 7.91968 13.8886C7.91968 12.5882 8.75698 12.5594 10.0575 12.5594C11.3579 12.5594 12.5502 12.174 12.5502 13.4744Z" fill="#BDBDBD"/>
</g>
<g opacity="0.81481" filter="url(#filter9_f_2_2468)">
<path d="M19.321 13.3939C19.321 15.3146 17.2203 16.1435 15.2996 16.1435C13.379 16.1435 11.851 15.9263 11.851 14.0056C11.851 12.0849 12.8688 11.1519 13.4984 12.9665C14.2022 14.9948 15.9856 14.3128 19.321 13.3939L19.321 13.3939Z" fill="#BDBDBD"/>
</g>
<g filter="url(#filter10_f_2_2468)">
<path d="M10.7076 11.332C10.7076 12.7279 9.7001 13.8594 8.45725 13.8594C7.21439 13.8594 6.20688 12.7279 6.20688 11.332C6.20688 9.93613 7.21439 8.80457 8.45725 8.80457C9.7001 8.80457 10.7076 9.93613 10.7076 11.332V11.332Z" fill="#E9E9E9"/>
</g>
<g filter="url(#filter11_f_2_2468)">
<path d="M16.0005 9.96466C16.0005 11.969 14.3757 13.5938 12.3714 13.5938C10.3671 13.5938 8.74231 11.969 8.74231 9.96466C8.74231 7.96036 10.3671 6.33557 12.3714 6.33557C14.3757 6.33557 16.0005 7.96036 16.0005 9.96466V9.96466Z" fill="#C4C4C4"/>
</g>
<g filter="url(#filter12_f_2_2468)">
<path d="M17.189 8.79251C17.189 9.95877 15.6173 10.9042 13.6785 10.9042C11.7397 10.9042 10.168 9.95877 10.168 8.79251C10.168 7.62625 11.7397 6.68079 13.6785 6.68079C15.6173 6.68079 17.189 7.62625 17.189 8.79251V8.79251Z" fill="#E7E7E7"/>
</g>
<g opacity="0.81893" filter="url(#filter13_f_2_2468)">
<path d="M7.12907 10.0365C7.36117 10.4684 7.47232 10.8938 7.48005 11.6805C7.49208 12.9049 7.8365 13.0953 8.12134 13.1526C8.41885 13.2126 9.01963 12.3761 8.94812 11.8764C8.67505 10.334 8.24715 8.74123 6.40826 9.25169C6.40826 9.25169 6.89695 9.60448 7.12905 10.0364L7.12907 10.0365Z" fill="white"/>
</g>
<g opacity="0.93827" filter="url(#filter14_f_2_2468)">
<path d="M22.2401 8.42175C22.2401 10.0702 20.8935 11.4741 19.4365 11.4741C17.9795 11.4741 20.3014 7.67464 16.9928 6.12882C15.4993 5.43104 17.7072 4.33588 19.1435 4.58052C21.0148 4.89923 22.2401 6.77324 22.2401 8.42166V8.42175Z" fill="#FCFCFC"/>
</g>
<g opacity="0.97062" filter="url(#filter15_f_2_2468)">
<path d="M24.2223 14.4399C24.2223 15.732 20.4837 14.9362 19.8908 14.5767C19.3431 14.7131 15.3399 17.2702 16.1961 15.5275C16.7659 14.3679 19.2022 14.7975 19.6946 14.0492C20.728 14.6982 20.9992 14.5677 23.005 14.5752L24.222 14.4399L24.2223 14.4399Z" fill="#BDBDBD"/>
</g>
<g opacity="0.92181" filter="url(#filter16_f_2_2468)">
<path d="M12.706 7.51201C13.0383 8.00401 13.1974 8.4886 13.2084 9.38477C13.2257 10.7795 13.3131 10.5455 13.7209 10.611C14.1468 10.6793 15.8181 10.3575 15.7158 9.78831C15.3249 8.03134 14.3066 6.0367 11.6741 6.61826C11.6741 6.61826 12.3737 7.02012 12.706 7.51212L12.706 7.51201Z" fill="white"/>
</g>
<g opacity="0.72428" filter="url(#filter17_f_2_2468)">
<path d="M18.2643 9.24279C19.0995 10.2211 19.4125 12.6528 18.7857 13.1575C18.2572 11.6007 17.6366 10.4982 15.7021 10.1875C14.6119 10.0125 14.9702 8.74169 15.6974 8.37178C16.6449 7.88986 17.429 8.2645 18.2642 9.24278L18.2643 9.24279Z" fill="#FCFCFC"/>
</g>
</g>
<g filter="url(#filter18_d_2_2468)">
<path d="M7.92326 20.5864C7.47847 21.2714 6.56263 21.4661 5.87768 21.0213C5.19273 20.5766 4.99802 19.6607 5.4428 18.9758C5.88757 18.2908 6.69718 18.8431 8.02084 17.7209C8.33921 18.6853 8.36804 19.9015 7.92326 20.5864V20.5864Z" fill="#00C7FF" fill-opacity="0.46364"/>
<g filter="url(#filter19_f_2_2468)">
<path d="M7.24243 20.3712C6.93922 20.8381 6.33219 20.9821 5.88657 20.6927C5.44095 20.4033 5.32551 19.7902 5.6287 19.3233C5.9319 18.8564 6.53895 18.7124 6.98457 19.0018C7.43019 19.2911 7.54563 19.9042 7.24243 20.3712Z" fill="#00369E" fill-opacity="0.46275"/>
</g>
<g opacity="0.6937" filter="url(#filter20_f_2_2468)">
<path d="M7.89653 20.6274C7.45434 21.3084 6.4494 21.4072 5.86067 21.0249C5.27194 20.6426 4.98673 19.6327 5.38945 19.0577C5.98885 18.202 6.80948 20.1423 7.62939 18.9968C8.44929 17.8512 8.44671 19.6231 7.89655 20.6275L7.89653 20.6274Z" fill="url(#paint1_radial_2_2468)"/>
</g>
</g>
<g filter="url(#filter21_d_2_2468)">
<path d="M13.7795 25.0585C13.1917 26.3699 11.6522 26.9565 10.3409 26.3687C9.0296 25.781 8.44299 24.2415 9.0307 22.9302C9.61842 21.6189 11.1756 22.3598 13.1728 20.0501C13.9876 21.6407 14.3672 23.7472 13.7795 25.0585V25.0585Z" fill="#00C7FF" fill-opacity="0.46364"/>
<g filter="url(#filter22_f_2_2468)">
<path d="M12.5375 24.8687C12.1368 25.7627 11.1205 26.1774 10.2673 25.795C9.41421 25.4126 9.04742 24.378 9.44806 23.4841C9.8487 22.5902 10.8651 22.1754 11.7182 22.5578C12.5713 22.9402 12.9381 23.9748 12.5375 24.8687Z" fill="#00369E" fill-opacity="0.46275"/>
</g>
<g opacity="0.6937" filter="url(#filter23_f_2_2468)">
<path d="M13.7441 25.137C13.1598 26.4407 11.4394 26.8847 10.3123 26.3796C9.18524 25.8744 8.4158 24.1959 8.96019 23.0872C9.77046 21.437 11.7228 24.5881 12.8379 22.3744C13.9531 20.1606 14.4286 23.2419 13.7442 25.137L13.7441 25.137Z" fill="url(#paint2_radial_2_2468)"/>
</g>
</g>
<g filter="url(#filter24_d_2_2468)">
<path d="M12.1623 18.5967C11.9148 19.0746 11.3267 19.2614 10.8488 19.0138C10.3709 18.7663 10.1841 18.1782 10.4317 17.7003C10.6792 17.2224 11.2458 17.5324 12.0416 16.711C12.3126 17.3231 12.4099 18.1188 12.1623 18.5967V18.5967Z" fill="#00C7FF" fill-opacity="0.46364"/>
<g filter="url(#filter25_f_2_2468)">
<path d="M11.7019 18.4994C11.5332 18.8252 11.1443 18.9588 10.8334 18.7977C10.5225 18.6367 10.4073 18.242 10.576 17.9162C10.7448 17.5905 11.1336 17.4569 11.4445 17.618C11.7554 17.779 11.8707 18.1737 11.7019 18.4994Z" fill="#00369E" fill-opacity="0.46275"/>
</g>
<g opacity="0.6937" filter="url(#filter26_f_2_2468)">
<path d="M12.1475 18.6253C11.9014 19.1005 11.2487 19.23 10.8379 19.0173C10.4271 18.8045 10.175 18.1605 10.402 17.7575C10.7399 17.1576 11.4033 18.3773 11.8671 17.5731C12.331 16.7689 12.4436 17.9312 12.1475 18.6253L12.1475 18.6253Z" fill="url(#paint3_radial_2_2468)"/>
</g>
</g>
<g filter="url(#filter27_d_2_2468)">
<path d="M20.5394 20.053C20.1498 21.1116 18.9758 21.6539 17.9173 21.2643C16.8587 20.8748 16.3164 19.7008 16.7059 18.6422C17.0955 17.5837 18.3548 18.08 19.7944 16.1636C20.5182 17.3653 20.9289 18.9944 20.5394 20.053V20.053Z" fill="#00C7FF" fill-opacity="0.46364"/>
<g filter="url(#filter28_f_2_2468)">
<path d="M19.5566 19.9713C19.291 20.6929 18.5174 21.0724 17.8287 20.819C17.14 20.5655 16.797 19.7751 17.0626 19.0535C17.3282 18.3319 18.1017 17.9523 18.7904 18.2058C19.4791 18.4592 19.8221 19.2497 19.5566 19.9713Z" fill="#00369E" fill-opacity="0.46275"/>
</g>
<g opacity="0.6937" filter="url(#filter29_f_2_2468)">
<path d="M20.5159 20.1164C20.1286 21.1688 18.8054 21.6092 17.8955 21.2744C16.9856 20.9395 16.2926 19.6665 16.6592 18.769C17.2048 17.4331 18.9035 19.7955 19.6574 18.0018C20.4113 16.2081 20.9498 18.5954 20.516 20.1164L20.5159 20.1164Z" fill="url(#paint4_radial_2_2468)"/>
</g>
</g>
<defs>
<filter id="filter0_d_2_2468" x="1.06473" y="0.971283" width="18.7393" height="18.7389" filterUnits="userSpaceOnUse" color-interpolation-filters="sRGB">
<feFlood flood-opacity="0" result="BackgroundImageFix"/>
<feColorMatrix in="SourceAlpha" type="matrix" values="0 0 0 0 0 0 0 0 0 0 0 0 0 0 0 0 0 0 127 0" result="hardAlpha"/>
<feOffset dy="4"/>
<feGaussianBlur stdDeviation="2"/>
<feComposite in2="hardAlpha" operator="out"/>
<feColorMatrix type="matrix" values="0 0 0 0 0 0 0 0 0 0 0 0 0 0 0 0 0 0 0.25 0"/>
<feBlend mode="normal" in2="BackgroundImageFix" result="effect1_dropShadow_2_2468"/>
<feBlend mode="normal" in="SourceGraphic" in2="effect1_dropShadow_2_2468" result="shape"/>
</filter>
<filter id="filter1_d_2_2468" x="0.986755" y="0.936005" width="18.7393" height="18.7395" filterUnits="userSpaceOnUse" color-interpolation-filters="sRGB">
<feFlood flood-opacity="0" result="BackgroundImageFix"/>
<feColorMatrix in="SourceAlpha" type="matrix" values="0 0 0 0 0 0 0 0 0 0 0 0 0 0 0 0 0 0 127 0" result="hardAlpha"/>
<feOffset dy="4"/>
<feGaussianBlur stdDeviation="2"/>
<feComposite in2="hardAlpha" operator="out"/>
<feColorMatrix type="matrix" values="0 0 0 0 0 0 0 0 0 0 0 0 0 0 0 0 0 0 0.25 0"/>
<feBlend mode="normal" in2="BackgroundImageFix" result="effect1_dropShadow_2_2468"/>
<feBlend mode="normal" in="SourceGraphic" in2="effect1_dropShadow_2_2468" result="shape"/>
</filter>
<filter id="filter2_d_2_2468" x="2.69257" y="2.49207" width="17.0321" height="17.1827" filterUnits="userSpaceOnUse" color-interpolation-filters="sRGB">
<feFlood flood-opacity="0" result="BackgroundImageFix"/>
<feColorMatrix in="SourceAlpha" type="matrix" values="0 0 0 0 0 0 0 0 0 0 0 0 0 0 0 0 0 0 127 0" result="hardAlpha"/>
<feOffset dy="4"/>
<feGaussianBlur stdDeviation="2"/>
<feComposite in2="hardAlpha" operator="out"/>
<feColorMatrix type="matrix" values="0 0 0 0 0 0 0 0 0 0 0 0 0 0 0 0 0 0 0.25 0"/>
<feBlend mode="normal" in2="BackgroundImageFix" result="effect1_dropShadow_2_2468"/>
<feBlend mode="normal" in="SourceGraphic" in2="effect1_dropShadow_2_2468" result="shape"/>
</filter>
<filter id="filter3_d_2_2468" x="0.1474" y="3.95621" width="29.6406" height="20.5888" filterUnits="userSpaceOnUse" color-interpolation-filters="sRGB">
<feFlood flood-opacity="0" result="BackgroundImageFix"/>
<feColorMatrix in="SourceAlpha" type="matrix" values="0 0 0 0 0 0 0 0 0 0 0 0 0 0 0 0 0 0 127 0" result="hardAlpha"/>
<feOffset dy="4"/>
<feGaussianBlur stdDeviation="2"/>
<feComposite in2="hardAlpha" operator="out"/>
<feColorMatrix type="matrix" values="0 0 0 0 0 0 0 0 0 0 0 0 0 0 0 0 0 0 0.25 0"/>
<feBlend mode="normal" in2="BackgroundImageFix" result="effect1_dropShadow_2_2468"/>
<feBlend mode="normal" in="SourceGraphic" in2="effect1_dropShadow_2_2468" result="shape"/>
</filter>
<filter id="filter4_f_2_2468" x="20.1295" y="8.27349" width="6.09261" height="5.73894" filterUnits="userSpaceOnUse" color-interpolation-filters="sRGB">
<feFlood flood-opacity="0" result="BackgroundImageFix"/>
<feBlend mode="normal" in="SourceGraphic" in2="BackgroundImageFix" result="shape"/>
<feGaussianBlur stdDeviation="0.287052" result="effect1_foregroundBlur_2_2468"/>
</filter>
<filter id="filter5_f_2_2468" x="13.0676" y="3.25187" width="10.0141" height="7.87575" filterUnits="userSpaceOnUse" color-interpolation-filters="sRGB">
<feFlood flood-opacity="0" result="BackgroundImageFix"/>
<feBlend mode="normal" in="SourceGraphic" in2="BackgroundImageFix" result="shape"/>
<feGaussianBlur stdDeviation="0.600843" result="effect1_foregroundBlur_2_2468"/>
</filter>
<filter id="filter6_f_2_2468" x="5.62765" y="7.05215" width="9.9614" height="9.29838" filterUnits="userSpaceOnUse" color-interpolation-filters="sRGB">
<feFlood flood-opacity="0" result="BackgroundImageFix"/>
<feBlend mode="normal" in="SourceGraphic" in2="BackgroundImageFix" result="shape"/>
<feGaussianBlur stdDeviation="0.531618" result="effect1_foregroundBlur_2_2468"/>
</filter>
<filter id="filter7_f_2_2468" x="3.86986" y="8.94652" width="5.60787" height="5.9186" filterUnits="userSpaceOnUse" color-interpolation-filters="sRGB">
<feFlood flood-opacity="0" result="BackgroundImageFix"/>
<feBlend mode="normal" in="SourceGraphic" in2="BackgroundImageFix" result="shape"/>
<feGaussianBlur stdDeviation="0.234335" result="effect1_foregroundBlur_2_2468"/>
</filter>
<filter id="filter8_f_2_2468" x="7.17608" y="11.7624" width="6.11774" height="4.31726" filterUnits="userSpaceOnUse" color-interpolation-filters="sRGB">
<feFlood flood-opacity="0" result="BackgroundImageFix"/>
<feBlend mode="normal" in="SourceGraphic" in2="BackgroundImageFix" result="shape"/>
<feGaussianBlur stdDeviation="0.371797" result="effect1_foregroundBlur_2_2468"/>
</filter>
<filter id="filter9_f_2_2468" x="10.7527" y="10.8932" width="9.66654" height="6.34851" filterUnits="userSpaceOnUse" color-interpolation-filters="sRGB">
<feFlood flood-opacity="0" result="BackgroundImageFix"/>
<feBlend mode="normal" in="SourceGraphic" in2="BackgroundImageFix" result="shape"/>
<feGaussianBlur stdDeviation="0.549118" result="effect1_foregroundBlur_2_2468"/>
</filter>
<filter id="filter10_f_2_2468" x="5.22203" y="7.81972" width="6.47043" height="7.02456" filterUnits="userSpaceOnUse" color-interpolation-filters="sRGB">
<feFlood flood-opacity="0" result="BackgroundImageFix"/>
<feBlend mode="normal" in="SourceGraphic" in2="BackgroundImageFix" result="shape"/>
<feGaussianBlur stdDeviation="0.492423" result="effect1_foregroundBlur_2_2468"/>
</filter>
<filter id="filter11_f_2_2468" x="7.74321" y="5.33647" width="9.25638" height="9.25638" filterUnits="userSpaceOnUse" color-interpolation-filters="sRGB">
<feFlood flood-opacity="0" result="BackgroundImageFix"/>
<feBlend mode="normal" in="SourceGraphic" in2="BackgroundImageFix" result="shape"/>
<feGaussianBlur stdDeviation="0.49955" result="effect1_foregroundBlur_2_2468"/>
</filter>
<filter id="filter12_f_2_2468" x="8.80684" y="5.31965" width="9.74329" height="6.94572" filterUnits="userSpaceOnUse" color-interpolation-filters="sRGB">
<feFlood flood-opacity="0" result="BackgroundImageFix"/>
<feBlend mode="normal" in="SourceGraphic" in2="BackgroundImageFix" result="shape"/>
<feGaussianBlur stdDeviation="0.680566" result="effect1_foregroundBlur_2_2468"/>
</filter>
<filter id="filter13_f_2_2468" x="5.8384" y="8.58465" width="3.68545" height="5.14092" filterUnits="userSpaceOnUse" color-interpolation-filters="sRGB">
<feFlood flood-opacity="0" result="BackgroundImageFix"/>
<feBlend mode="normal" in="SourceGraphic" in2="BackgroundImageFix" result="shape"/>
<feGaussianBlur stdDeviation="0.284933" result="effect1_foregroundBlur_2_2468"/>
</filter>
<filter id="filter14_f_2_2468" x="15.3118" y="3.3623" width="8.11159" height="9.29509" filterUnits="userSpaceOnUse" color-interpolation-filters="sRGB">
<feFlood flood-opacity="0" result="BackgroundImageFix"/>
<feBlend mode="normal" in="SourceGraphic" in2="BackgroundImageFix" result="shape"/>
<feGaussianBlur stdDeviation="0.591633" result="effect1_foregroundBlur_2_2468"/>
</filter>
<filter id="filter15_f_2_2468" x="15.3378" y="13.3105" width="9.62327" height="3.56163" filterUnits="userSpaceOnUse" color-interpolation-filters="sRGB">
<feFlood flood-opacity="0" result="BackgroundImageFix"/>
<feBlend mode="normal" in="SourceGraphic" in2="BackgroundImageFix" result="shape"/>
<feGaussianBlur stdDeviation="0.369373" result="effect1_foregroundBlur_2_2468"/>
</filter>
<filter id="filter16_f_2_2468" x="10.7277" y="5.56892" width="5.939" height="5.99756" filterUnits="userSpaceOnUse" color-interpolation-filters="sRGB">
<feFlood flood-opacity="0" result="BackgroundImageFix"/>
<feBlend mode="normal" in="SourceGraphic" in2="BackgroundImageFix" result="shape"/>
<feGaussianBlur stdDeviation="0.473198" result="effect1_foregroundBlur_2_2468"/>
</filter>
<filter id="filter17_f_2_2468" x="13.8142" y="6.96472" width="6.50028" height="7.39048" filterUnits="userSpaceOnUse" color-interpolation-filters="sRGB">
<feFlood flood-opacity="0" result="BackgroundImageFix"/>
<feBlend mode="normal" in="SourceGraphic" in2="BackgroundImageFix" result="shape"/>
<feGaussianBlur stdDeviation="0.598849" result="effect1_foregroundBlur_2_2468"/>
</filter>
<filter id="filter18_d_2_2468" x="1.20157" y="17.7209" width="11.08" height="11.5392" filterUnits="userSpaceOnUse" color-interpolation-filters="sRGB">
<feFlood flood-opacity="0" result="BackgroundImageFix"/>
<feColorMatrix in="SourceAlpha" type="matrix" values="0 0 0 0 0 0 0 0 0 0 0 0 0 0 0 0 0 0 127 0" result="hardAlpha"/>
<feOffset dy="4"/>
<feGaussianBlur stdDeviation="2"/>
<feComposite in2="hardAlpha" operator="out"/>
<feColorMatrix type="matrix" values="0 0 0 0 0 0 0 0 0 0 0 0 0 0 0 0 0 0 0.25 0"/>
<feBlend mode="normal" in2="BackgroundImageFix" result="effect1_dropShadow_2_2468"/>
<feBlend mode="normal" in="SourceGraphic" in2="effect1_dropShadow_2_2468" result="shape"/>
</filter>
<filter id="filter19_f_2_2468" x="4.54231" y="17.9352" width="3.78654" height="3.82405" filterUnits="userSpaceOnUse" color-interpolation-filters="sRGB">
<feFlood flood-opacity="0" result="BackgroundImageFix"/>
<feBlend mode="normal" in="SourceGraphic" in2="BackgroundImageFix" result="shape"/>
<feGaussianBlur stdDeviation="0.458629" result="effect1_foregroundBlur_2_2468"/>
</filter>
<filter id="filter20_f_2_2468" x="5.18903" y="18.612" width="3.10507" height="2.64737" filterUnits="userSpaceOnUse" color-interpolation-filters="sRGB">
<feFlood flood-opacity="0" result="BackgroundImageFix"/>
<feBlend mode="normal" in="SourceGraphic" in2="BackgroundImageFix" result="shape"/>
<feGaussianBlur stdDeviation="0.00627067" result="effect1_foregroundBlur_2_2468"/>
</filter>
<filter id="filter21_d_2_2468" x="4.78137" y="20.0501" width="13.2831" height="14.5468" filterUnits="userSpaceOnUse" color-interpolation-filters="sRGB">
<feFlood flood-opacity="0" result="BackgroundImageFix"/>
<feColorMatrix in="SourceAlpha" type="matrix" values="0 0 0 0 0 0 0 0 0 0 0 0 0 0 0 0 0 0 127 0" result="hardAlpha"/>
<feOffset dy="4"/>
<feGaussianBlur stdDeviation="2"/>
<feComposite in2="hardAlpha" operator="out"/>
<feColorMatrix type="matrix" values="0 0 0 0 0 0 0 0 0 0 0 0 0 0 0 0 0 0 0.25 0"/>
<feBlend mode="normal" in2="BackgroundImageFix" result="effect1_dropShadow_2_2468"/>
<feBlend mode="normal" in="SourceGraphic" in2="effect1_dropShadow_2_2468" result="shape"/>
</filter>
<filter id="filter22_f_2_2468" x="7.67185" y="20.8015" width="6.64184" height="6.74969" filterUnits="userSpaceOnUse" color-interpolation-filters="sRGB">
<feFlood flood-opacity="0" result="BackgroundImageFix"/>
<feBlend mode="normal" in="SourceGraphic" in2="BackgroundImageFix" result="shape"/>
<feGaussianBlur stdDeviation="0.806975" result="effect1_foregroundBlur_2_2468"/>
</filter>
<filter id="filter23_f_2_2468" x="8.75931" y="21.5834" width="5.32471" height="5.02158" filterUnits="userSpaceOnUse" color-interpolation-filters="sRGB">
<feFlood flood-opacity="0" result="BackgroundImageFix"/>
<feBlend mode="normal" in="SourceGraphic" in2="BackgroundImageFix" result="shape"/>
<feGaussianBlur stdDeviation="0.0110335" result="effect1_foregroundBlur_2_2468"/>
</filter>
<filter id="filter24_d_2_2468" x="6.31647" y="16.711" width="9.99475" height="10.4122" filterUnits="userSpaceOnUse" color-interpolation-filters="sRGB">
<feFlood flood-opacity="0" result="BackgroundImageFix"/>
<feColorMatrix in="SourceAlpha" type="matrix" values="0 0 0 0 0 0 0 0 0 0 0 0 0 0 0 0 0 0 127 0" result="hardAlpha"/>
<feOffset dy="4"/>
<feGaussianBlur stdDeviation="2"/>
<feComposite in2="hardAlpha" operator="out"/>
<feColorMatrix type="matrix" values="0 0 0 0 0 0 0 0 0 0 0 0 0 0 0 0 0 0 0.25 0"/>
<feBlend mode="normal" in2="BackgroundImageFix" result="effect1_dropShadow_2_2468"/>
<feBlend mode="normal" in="SourceGraphic" in2="effect1_dropShadow_2_2468" result="shape"/>
</filter>
<filter id="filter25_f_2_2468" x="9.89384" y="16.9452" width="2.49027" height="2.52531" filterUnits="userSpaceOnUse" color-interpolation-filters="sRGB">
<feFlood flood-opacity="0" result="BackgroundImageFix"/>
<feBlend mode="normal" in="SourceGraphic" in2="BackgroundImageFix" result="shape"/>
<feGaussianBlur stdDeviation="0.302241" result="effect1_foregroundBlur_2_2468"/>
</filter>
<filter id="filter26_f_2_2468" x="10.3082" y="17.292" width="2.01128" height="1.83266" filterUnits="userSpaceOnUse" color-interpolation-filters="sRGB">
<feFlood flood-opacity="0" result="BackgroundImageFix"/>
<feBlend mode="normal" in="SourceGraphic" in2="BackgroundImageFix" result="shape"/>
<feGaussianBlur stdDeviation="0.00413243" result="effect1_foregroundBlur_2_2468"/>
</filter>
<filter id="filter27_d_2_2468" x="12.5592" y="16.1636" width="12.1303" height="13.2269" filterUnits="userSpaceOnUse" color-interpolation-filters="sRGB">
<feFlood flood-opacity="0" result="BackgroundImageFix"/>
<feColorMatrix in="SourceAlpha" type="matrix" values="0 0 0 0 0 0 0 0 0 0 0 0 0 0 0 0 0 0 127 0" result="hardAlpha"/>
<feOffset dy="4"/>
<feGaussianBlur stdDeviation="2"/>
<feComposite in2="hardAlpha" operator="out"/>
<feColorMatrix type="matrix" values="0 0 0 0 0 0 0 0 0 0 0 0 0 0 0 0 0 0 0.25 0"/>
<feBlend mode="normal" in2="BackgroundImageFix" result="effect1_dropShadow_2_2468"/>
<feBlend mode="normal" in="SourceGraphic" in2="effect1_dropShadow_2_2468" result="shape"/>
</filter>
<filter id="filter28_f_2_2468" x="15.7059" y="16.8603" width="5.20738" height="5.30421" filterUnits="userSpaceOnUse" color-interpolation-filters="sRGB">
<feFlood flood-opacity="0" result="BackgroundImageFix"/>
<feBlend mode="normal" in="SourceGraphic" in2="BackgroundImageFix" result="shape"/>
<feGaussianBlur stdDeviation="0.633433" result="effect1_foregroundBlur_2_2468"/>
</filter>
<filter id="filter29_f_2_2468" x="16.5419" y="17.3442" width="4.14637" height="4.05765" filterUnits="userSpaceOnUse" color-interpolation-filters="sRGB">
<feFlood flood-opacity="0" result="BackgroundImageFix"/>
<feBlend mode="normal" in="SourceGraphic" in2="BackgroundImageFix" result="shape"/>
<feGaussianBlur stdDeviation="0.0086607" result="effect1_foregroundBlur_2_2468"/>
</filter>
<radialGradient id="paint0_radial_2_2468" cx="0" cy="0" r="1" gradientUnits="userSpaceOnUse" gradientTransform="translate(7.48662 2.05283) scale(8.03693 8.03693)">
<stop stop-color="#FFA700"/>
<stop offset="1" stop-color="#FFA700" stop-opacity="0"/>
</radialGradient>
<radialGradient id="paint1_radial_2_2468" cx="0" cy="0" r="1" gradientUnits="userSpaceOnUse" gradientTransform="translate(6.75198 19.6743) rotate(32.9977) scale(1.47906 1.61868)">
<stop stop-color="#E5F9FF" stop-opacity="0.29434"/>
<stop offset="0.83069" stop-color="#F2FCFF" stop-opacity="0.21176"/>
<stop offset="1" stop-color="white" stop-opacity="0"/>
</radialGradient>
<radialGradient id="paint2_radial_2_2468" cx="0" cy="0" r="1" gradientUnits="userSpaceOnUse" gradientTransform="translate(11.4961 23.79) rotate(24.1413) scale(2.60246 2.84813)">
<stop stop-color="#E5F9FF" stop-opacity="0.29434"/>
<stop offset="0.83069" stop-color="#F2FCFF" stop-opacity="0.21176"/>
<stop offset="1" stop-color="white" stop-opacity="0"/>
</radialGradient>
<radialGradient id="paint3_radial_2_2468" cx="0" cy="0" r="1" gradientUnits="userSpaceOnUse" gradientTransform="translate(11.3354 18.074) rotate(27.3829) scale(0.974714 1.06673)">
<stop stop-color="#E5F9FF" stop-opacity="0.29434"/>
<stop offset="0.83069" stop-color="#F2FCFF" stop-opacity="0.21176"/>
<stop offset="1" stop-color="white" stop-opacity="0"/>
</radialGradient>
<radialGradient id="paint4_radial_2_2468" cx="0" cy="0" r="1" gradientUnits="userSpaceOnUse" gradientTransform="translate(18.6829 19.1827) rotate(20.2041) scale(2.0428 2.23564)">
<stop stop-color="#E5F9FF" stop-opacity="0.29434"/>
<stop offset="0.83069" stop-color="#F2FCFF" stop-opacity="0.21176"/>
<stop offset="1" stop-color="white" stop-opacity="0"/>
</radialGradient>
</defs>
</svg>
