<svg width="23" height="26" viewBox="0 0 23 26" fill="none" xmlns="http://www.w3.org/2000/svg">
<g filter="url(#filter0_f_2_2464)">
<path d="M19.7408 6.77686C19.7408 9.69883 17.3721 12.0675 14.4501 12.0675C11.5281 12.0675 9.15945 9.69883 9.15945 6.77686C9.15945 3.8549 11.5281 1.48621 14.4501 1.48621C17.3721 1.48621 19.7408 3.8549 19.7408 6.77686V6.77686Z" fill="#ECECEC"/>
<path d="M17.9259 8.7844C17.9259 11.7064 15.1147 14.0751 11.6469 14.0751C8.17911 14.0751 5.36795 11.7064 5.36795 8.7844C5.36795 5.86243 8.17911 3.49374 11.6469 3.49374C15.1147 3.49374 17.9259 5.86243 17.9259 8.7844V8.7844Z" fill="#ECECEC"/>
<path d="M13.2394 7.98823C13.2394 10.4526 11.2417 12.4502 8.77735 12.4502C6.31303 12.4502 4.31534 10.4526 4.31534 7.98823C4.31534 5.52391 6.31303 3.52621 8.77735 3.52621C11.2417 3.52621 13.2394 5.52391 13.2394 7.98823V7.98823Z" fill="#ECECEC"/>
<path d="M11.501 9.23114C11.501 11.4666 9.52126 13.2788 7.07915 13.2788C4.63704 13.2788 2.65735 11.4666 2.65735 9.23114C2.65735 6.99566 4.63704 5.18347 7.07915 5.18347C9.52126 5.18347 11.501 6.99566 11.501 9.23114V9.23114Z" fill="#ECECEC"/>
<path d="M6.10033 9.39048C6.10033 10.9043 4.87316 12.1315 3.35935 12.1315C1.84554 12.1315 0.618378 10.9043 0.618378 9.39048C0.618378 7.87667 1.84554 6.64951 3.35935 6.64951C4.87316 6.64951 6.10033 7.87667 6.10033 9.39048V9.39048Z" fill="#ECECEC"/>
<path d="M22.2589 9.39035C22.2589 11.3794 20.6465 12.9918 18.6574 12.9918C16.6684 12.9918 15.0559 11.3794 15.0559 9.39035C15.0559 7.40128 16.6684 5.78885 18.6574 5.78885C20.6465 5.78885 22.2589 7.40128 22.2589 9.39035V9.39035Z" fill="#ECECEC"/>
<path d="M20.251 8.65768C20.251 10.6467 18.6386 12.2592 16.6495 12.2592C14.6605 12.2592 13.048 10.6467 13.048 8.65768C13.048 6.66862 14.6605 5.05618 16.6495 5.05618C18.6386 5.05618 20.251 6.66862 20.251 8.65768V8.65768Z" fill="#ECECEC"/>
<g filter="url(#filter1_f_2_2464)">
<path d="M21.7652 8.14708C22.2433 9.38672 22.3986 10.9683 21.175 10.9683C19.9513 10.9683 17.1746 9.81698 17.1746 8.59328C17.1746 7.36958 18.1666 6.37759 19.3902 6.37759C20.6139 6.37759 21.2872 6.90744 21.7653 8.14708H21.7652Z" fill="#F8F8F8"/>
</g>
<g filter="url(#filter2_f_2_2464)">
<path d="M18.3509 5.7889C18.3509 7.89055 16.219 7.40818 14.1174 7.40818C12.0158 7.40818 10.7402 7.89052 10.7402 5.7889C10.7402 3.68727 12.4439 1.98355 14.5456 1.98355C16.6472 1.98355 18.3509 3.68725 18.3509 5.7889H18.3509Z" fill="#D1D1D1"/>
</g>
<g filter="url(#filter3_f_2_2464)">
<path d="M10.9968 9.23135C10.9968 11.2118 9.2429 12.8173 7.07933 12.8173C4.91576 12.8173 3.16187 11.2118 3.16187 9.23135C3.16187 7.25086 4.91576 5.64539 7.07933 5.64539C9.2429 5.64539 10.9968 7.25086 10.9968 9.23135V9.23135Z" fill="#CCCCCC"/>
</g>
<g filter="url(#filter4_f_2_2464)">
<path d="M5.48004 9.43583C5.48004 10.8114 4.43451 11.9265 3.14477 11.9265C1.85503 11.9265 0.809509 10.8114 0.809509 9.43583C0.809509 8.06028 1.85503 6.94519 3.14477 6.94519C4.43451 6.94519 5.48004 8.06028 5.48004 9.43583V9.43583Z" fill="#CFCFCF"/>
</g>
<g opacity="0.86831" filter="url(#filter5_f_2_2464)">
<path d="M9.02124 11.0044C9.02124 12.3049 8.02617 12.8661 6.72569 12.8661C5.42521 12.8661 4.39069 12.7191 4.39069 11.4186C4.39069 10.1182 5.22799 10.0894 6.52847 10.0894C7.82895 10.0894 9.02124 9.70398 9.02124 11.0044Z" fill="#BDBDBD"/>
</g>
<g opacity="0.81481" filter="url(#filter6_f_2_2464)">
<path d="M15.792 10.9239C15.792 12.8446 13.6913 13.6735 11.7706 13.6735C9.84993 13.6735 8.32196 13.4563 8.32196 11.5356C8.32196 9.61492 9.33978 8.68191 9.96938 10.4965C10.6731 12.5248 12.4566 11.8428 15.792 10.9239L15.792 10.9239Z" fill="#BDBDBD"/>
</g>
<g filter="url(#filter7_f_2_2464)">
<path d="M7.17859 8.86199C7.17859 10.2579 6.17108 11.3894 4.92822 11.3894C3.68537 11.3894 2.67786 10.2579 2.67786 8.86199C2.67786 7.46612 3.68537 6.33456 4.92822 6.33456C6.17108 6.33456 7.17859 7.46612 7.17859 8.86199V8.86199Z" fill="#E9E9E9"/>
</g>
<g filter="url(#filter8_f_2_2464)">
<path d="M12.4715 7.49466C12.4715 9.49896 10.8467 11.1238 8.84238 11.1238C6.83807 11.1238 5.21329 9.49896 5.21329 7.49466C5.21329 5.49036 6.83807 3.86557 8.84238 3.86557C10.8467 3.86557 12.4715 5.49036 12.4715 7.49466V7.49466Z" fill="#C4C4C4"/>
</g>
<g filter="url(#filter9_f_2_2464)">
<path d="M13.66 6.32251C13.66 7.48877 12.0883 8.43424 10.1495 8.43424C8.21067 8.43424 6.63898 7.48877 6.63898 6.32251C6.63898 5.15625 8.21067 4.21078 10.1495 4.21078C12.0883 4.21078 13.66 5.15625 13.66 6.32251V6.32251Z" fill="#E7E7E7"/>
</g>
<g opacity="0.81893" filter="url(#filter10_f_2_2464)">
<path d="M3.60005 7.56646C3.83215 7.99838 3.9433 8.42379 3.95102 9.21053C3.96306 10.4349 4.30747 10.6253 4.59232 10.6826C4.88983 10.7426 5.49061 9.90612 5.4191 9.40641C5.14603 7.86399 4.71813 6.27123 2.87924 6.78168C2.87924 6.78168 3.36793 7.13448 3.60002 7.5664L3.60005 7.56646Z" fill="white"/>
</g>
<g opacity="0.93827" filter="url(#filter11_f_2_2464)">
<path d="M18.7111 5.95175C18.7111 7.60021 17.3645 9.00412 15.9075 9.00412C14.4505 9.00412 16.7724 5.20464 13.4638 3.65882C11.9703 2.96104 14.1782 1.86588 15.6145 2.11052C17.4858 2.42923 18.7111 4.30324 18.7111 5.95166V5.95175Z" fill="#FCFCFC"/>
</g>
<g opacity="0.97062" filter="url(#filter12_f_2_2464)">
<path d="M20.6933 11.9699C20.6933 13.2619 16.9546 12.4661 16.3617 12.1067C15.814 12.243 11.8109 14.8002 12.6671 13.0575C13.2369 11.8979 15.6732 12.3275 16.1656 11.5792C17.1989 12.2282 17.4702 12.0977 19.4759 12.1052L20.6929 11.9699L20.6933 11.9699Z" fill="#BDBDBD"/>
</g>
<g opacity="0.92181" filter="url(#filter13_f_2_2464)">
<path d="M9.17697 5.04201C9.50923 5.53401 9.66835 6.0186 9.67942 6.91477C9.69664 8.30945 9.78407 8.07555 10.1919 8.14101C10.6178 8.2093 12.2891 7.88749 12.1868 7.31831C11.7958 5.56134 10.7776 3.5667 8.14508 4.14826C8.14508 4.14826 8.84469 4.55012 9.17695 5.04212L9.17697 5.04201Z" fill="white"/>
</g>
<g opacity="0.72428" filter="url(#filter14_f_2_2464)">
<path d="M14.7353 6.77279C15.5705 7.75107 15.8835 10.1828 15.2567 10.6875C14.7282 9.13072 14.1076 8.02824 12.1731 7.71754C11.0828 7.54246 11.4411 6.27169 12.1684 5.90178C13.1159 5.41986 13.9 5.7945 14.7352 6.77278L14.7353 6.77279Z" fill="#FCFCFC"/>
</g>
</g>
<g filter="url(#filter15_f_2_2464)">
<path d="M4.39726 18.1165C3.95247 18.8014 3.03663 18.9961 2.35168 18.5513C1.66673 18.1066 1.47202 17.1907 1.91679 16.5058C2.36157 15.8208 3.17118 16.3732 4.49484 15.2509C4.81321 16.2154 4.84204 17.4315 4.39726 18.1165V18.1165Z" fill="#00C7FF" fill-opacity="0.46364"/>
<g filter="url(#filter16_f_2_2464)">
<path d="M3.71643 17.9012C3.41322 18.3681 2.80619 18.5121 2.36057 18.2227C1.91495 17.9334 1.7995 17.3202 2.1027 16.8533C2.4059 16.3864 3.01295 16.2424 3.45857 16.5318C3.90418 16.8212 4.01963 17.4343 3.71643 17.9012Z" fill="#00369E" fill-opacity="0.46275"/>
</g>
<g opacity="0.6937" filter="url(#filter17_f_2_2464)">
<path d="M4.37053 18.1574C3.92834 18.8384 2.9234 18.9372 2.33467 18.5549C1.74594 18.1726 1.46073 17.1627 1.86345 16.5877C2.46285 15.732 3.28348 17.6723 4.10339 16.5268C4.92329 15.3812 4.92071 17.1531 4.37055 18.1575L4.37053 18.1574Z" fill="url(#paint0_radial_2_2464)"/>
</g>
</g>
<g filter="url(#filter18_f_2_2464)">
<path d="M10.2555 22.5889C9.66774 23.9003 8.12824 24.4869 6.81693 23.8992C5.50561 23.3114 4.919 21.7719 5.50672 20.4606C6.09443 19.1493 7.65162 19.8902 9.64885 17.5805C10.4636 19.1711 10.8432 21.2776 10.2555 22.5889V22.5889Z" fill="#00C7FF" fill-opacity="0.46364"/>
<g filter="url(#filter19_f_2_2464)">
<path d="M9.01349 22.3991C8.61284 23.2931 7.59647 23.7078 6.74334 23.3254C5.89022 22.943 5.52343 21.9084 5.92407 21.0145C6.32471 20.1206 7.3411 19.7058 8.19422 20.0882C9.04734 20.4706 9.41413 21.5052 9.01349 22.3991Z" fill="#00369E" fill-opacity="0.46275"/>
</g>
<g opacity="0.6937" filter="url(#filter20_f_2_2464)">
<path d="M10.2201 22.6674C9.63584 23.9711 7.91546 24.4151 6.78836 23.91C5.66125 23.4048 4.89182 21.7263 5.43621 20.6176C6.24648 18.9674 8.19883 22.1185 9.31395 19.9048C10.4291 17.6911 10.9046 20.7724 10.2202 22.6674L10.2201 22.6674Z" fill="url(#paint1_radial_2_2464)"/>
</g>
</g>
<g filter="url(#filter21_f_2_2464)">
<path d="M8.63432 16.1267C8.38677 16.6046 7.79868 16.7914 7.32077 16.5438C6.84287 16.2963 6.65612 15.7082 6.90366 15.2303C7.1512 14.7524 7.7178 15.0624 8.51355 14.241C8.78454 14.853 8.88187 15.6488 8.63432 16.1267V16.1267Z" fill="#00C7FF" fill-opacity="0.46364"/>
<g filter="url(#filter22_f_2_2464)">
<path d="M8.17392 16.0294C8.00517 16.3552 7.61633 16.4887 7.30541 16.3277C6.9945 16.1667 6.87925 15.772 7.048 15.4462C7.21675 15.1204 7.60559 14.9869 7.91651 15.1479C8.22742 15.309 8.34267 15.7036 8.17392 16.0294Z" fill="#00369E" fill-opacity="0.46275"/>
</g>
<g opacity="0.6937" filter="url(#filter23_f_2_2464)">
<path d="M8.61946 16.1553C8.37336 16.6304 7.72064 16.76 7.30988 16.5472C6.89911 16.3345 6.64694 15.6905 6.87399 15.2875C7.21192 14.6876 7.87524 15.9072 8.33911 15.1031C8.80298 14.2989 8.91554 15.4611 8.61948 16.1553L8.61946 16.1553Z" fill="url(#paint2_radial_2_2464)"/>
</g>
</g>
<g filter="url(#filter24_f_2_2464)">
<path d="M17.0094 17.5826C16.6198 18.6412 15.4458 19.1835 14.3873 18.7939C13.3287 18.4044 12.7864 17.2304 13.1759 16.1719C13.5655 15.1133 14.8248 15.6096 16.2644 13.6932C16.9882 14.8949 17.3989 16.524 17.0094 17.5826V17.5826Z" fill="#00C7FF" fill-opacity="0.46364"/>
<g filter="url(#filter25_f_2_2464)">
<path d="M16.0266 17.5009C15.761 18.2225 14.9874 18.602 14.2987 18.3486C13.6101 18.0951 13.2671 17.3047 13.5326 16.5831C13.7982 15.8615 14.5717 15.4819 15.2604 15.7354C15.9491 15.9888 16.2921 16.7793 16.0266 17.5009Z" fill="#00369E" fill-opacity="0.46275"/>
</g>
<g opacity="0.6937" filter="url(#filter26_f_2_2464)">
<path d="M16.9859 17.6459C16.5986 18.6984 15.2754 19.1388 14.3655 18.8039C13.4556 18.4691 12.7626 17.1961 13.1292 16.2986C13.6748 14.9627 15.3735 17.3251 16.1274 15.5314C16.8813 13.7377 17.4198 16.125 16.986 17.646L16.9859 17.6459Z" fill="url(#paint3_radial_2_2464)"/>
</g>
</g>
<defs>
<filter id="filter0_f_2_2464" x="0.439898" y="1.30773" width="21.9975" height="12.9458" filterUnits="userSpaceOnUse" color-interpolation-filters="sRGB">
<feFlood flood-opacity="0" result="BackgroundImageFix"/>
<feBlend mode="normal" in="SourceGraphic" in2="BackgroundImageFix" result="shape"/>
<feGaussianBlur stdDeviation="0.08924" result="effect1_foregroundBlur_2_2464"/>
</filter>
<filter id="filter1_f_2_2464" x="16.6005" y="5.80349" width="6.09261" height="5.73894" filterUnits="userSpaceOnUse" color-interpolation-filters="sRGB">
<feFlood flood-opacity="0" result="BackgroundImageFix"/>
<feBlend mode="normal" in="SourceGraphic" in2="BackgroundImageFix" result="shape"/>
<feGaussianBlur stdDeviation="0.287052" result="effect1_foregroundBlur_2_2464"/>
</filter>
<filter id="filter2_f_2_2464" x="9.53855" y="0.781865" width="10.0141" height="7.87575" filterUnits="userSpaceOnUse" color-interpolation-filters="sRGB">
<feFlood flood-opacity="0" result="BackgroundImageFix"/>
<feBlend mode="normal" in="SourceGraphic" in2="BackgroundImageFix" result="shape"/>
<feGaussianBlur stdDeviation="0.600843" result="effect1_foregroundBlur_2_2464"/>
</filter>
<filter id="filter3_f_2_2464" x="2.09863" y="4.58215" width="9.9614" height="9.29839" filterUnits="userSpaceOnUse" color-interpolation-filters="sRGB">
<feFlood flood-opacity="0" result="BackgroundImageFix"/>
<feBlend mode="normal" in="SourceGraphic" in2="BackgroundImageFix" result="shape"/>
<feGaussianBlur stdDeviation="0.531618" result="effect1_foregroundBlur_2_2464"/>
</filter>
<filter id="filter4_f_2_2464" x="0.34084" y="6.47652" width="5.60787" height="5.9186" filterUnits="userSpaceOnUse" color-interpolation-filters="sRGB">
<feFlood flood-opacity="0" result="BackgroundImageFix"/>
<feBlend mode="normal" in="SourceGraphic" in2="BackgroundImageFix" result="shape"/>
<feGaussianBlur stdDeviation="0.234335" result="effect1_foregroundBlur_2_2464"/>
</filter>
<filter id="filter5_f_2_2464" x="3.64709" y="9.29245" width="6.11774" height="4.31725" filterUnits="userSpaceOnUse" color-interpolation-filters="sRGB">
<feFlood flood-opacity="0" result="BackgroundImageFix"/>
<feBlend mode="normal" in="SourceGraphic" in2="BackgroundImageFix" result="shape"/>
<feGaussianBlur stdDeviation="0.371797" result="effect1_foregroundBlur_2_2464"/>
</filter>
<filter id="filter6_f_2_2464" x="7.22372" y="8.42319" width="9.66654" height="6.3485" filterUnits="userSpaceOnUse" color-interpolation-filters="sRGB">
<feFlood flood-opacity="0" result="BackgroundImageFix"/>
<feBlend mode="normal" in="SourceGraphic" in2="BackgroundImageFix" result="shape"/>
<feGaussianBlur stdDeviation="0.549118" result="effect1_foregroundBlur_2_2464"/>
</filter>
<filter id="filter7_f_2_2464" x="1.69301" y="5.34972" width="6.47043" height="7.02456" filterUnits="userSpaceOnUse" color-interpolation-filters="sRGB">
<feFlood flood-opacity="0" result="BackgroundImageFix"/>
<feBlend mode="normal" in="SourceGraphic" in2="BackgroundImageFix" result="shape"/>
<feGaussianBlur stdDeviation="0.492423" result="effect1_foregroundBlur_2_2464"/>
</filter>
<filter id="filter8_f_2_2464" x="4.21419" y="2.86647" width="9.25638" height="9.25638" filterUnits="userSpaceOnUse" color-interpolation-filters="sRGB">
<feFlood flood-opacity="0" result="BackgroundImageFix"/>
<feBlend mode="normal" in="SourceGraphic" in2="BackgroundImageFix" result="shape"/>
<feGaussianBlur stdDeviation="0.49955" result="effect1_foregroundBlur_2_2464"/>
</filter>
<filter id="filter9_f_2_2464" x="5.27784" y="2.84965" width="9.74329" height="6.94572" filterUnits="userSpaceOnUse" color-interpolation-filters="sRGB">
<feFlood flood-opacity="0" result="BackgroundImageFix"/>
<feBlend mode="normal" in="SourceGraphic" in2="BackgroundImageFix" result="shape"/>
<feGaussianBlur stdDeviation="0.680566" result="effect1_foregroundBlur_2_2464"/>
</filter>
<filter id="filter10_f_2_2464" x="2.30938" y="6.11464" width="3.68545" height="5.14092" filterUnits="userSpaceOnUse" color-interpolation-filters="sRGB">
<feFlood flood-opacity="0" result="BackgroundImageFix"/>
<feBlend mode="normal" in="SourceGraphic" in2="BackgroundImageFix" result="shape"/>
<feGaussianBlur stdDeviation="0.284933" result="effect1_foregroundBlur_2_2464"/>
</filter>
<filter id="filter11_f_2_2464" x="11.7828" y="0.892296" width="8.11159" height="9.29509" filterUnits="userSpaceOnUse" color-interpolation-filters="sRGB">
<feFlood flood-opacity="0" result="BackgroundImageFix"/>
<feBlend mode="normal" in="SourceGraphic" in2="BackgroundImageFix" result="shape"/>
<feGaussianBlur stdDeviation="0.591633" result="effect1_foregroundBlur_2_2464"/>
</filter>
<filter id="filter12_f_2_2464" x="11.8087" y="10.8405" width="9.62327" height="3.56163" filterUnits="userSpaceOnUse" color-interpolation-filters="sRGB">
<feFlood flood-opacity="0" result="BackgroundImageFix"/>
<feBlend mode="normal" in="SourceGraphic" in2="BackgroundImageFix" result="shape"/>
<feGaussianBlur stdDeviation="0.369373" result="effect1_foregroundBlur_2_2464"/>
</filter>
<filter id="filter13_f_2_2464" x="7.19868" y="3.09892" width="5.939" height="5.99756" filterUnits="userSpaceOnUse" color-interpolation-filters="sRGB">
<feFlood flood-opacity="0" result="BackgroundImageFix"/>
<feBlend mode="normal" in="SourceGraphic" in2="BackgroundImageFix" result="shape"/>
<feGaussianBlur stdDeviation="0.473198" result="effect1_foregroundBlur_2_2464"/>
</filter>
<filter id="filter14_f_2_2464" x="10.2852" y="4.49472" width="6.50028" height="7.39048" filterUnits="userSpaceOnUse" color-interpolation-filters="sRGB">
<feFlood flood-opacity="0" result="BackgroundImageFix"/>
<feBlend mode="normal" in="SourceGraphic" in2="BackgroundImageFix" result="shape"/>
<feGaussianBlur stdDeviation="0.598849" result="effect1_foregroundBlur_2_2464"/>
</filter>
<filter id="filter15_f_2_2464" x="1.56907" y="15.1444" width="3.29298" height="3.75217" filterUnits="userSpaceOnUse" color-interpolation-filters="sRGB">
<feFlood flood-opacity="0" result="BackgroundImageFix"/>
<feBlend mode="normal" in="SourceGraphic" in2="BackgroundImageFix" result="shape"/>
<feGaussianBlur stdDeviation="0.0532496" result="effect1_foregroundBlur_2_2464"/>
</filter>
<filter id="filter16_f_2_2464" x="1.0163" y="15.4652" width="3.78654" height="3.82408" filterUnits="userSpaceOnUse" color-interpolation-filters="sRGB">
<feFlood flood-opacity="0" result="BackgroundImageFix"/>
<feBlend mode="normal" in="SourceGraphic" in2="BackgroundImageFix" result="shape"/>
<feGaussianBlur stdDeviation="0.458629" result="effect1_foregroundBlur_2_2464"/>
</filter>
<filter id="filter17_f_2_2464" x="1.66303" y="16.142" width="3.10507" height="2.64735" filterUnits="userSpaceOnUse" color-interpolation-filters="sRGB">
<feFlood flood-opacity="0" result="BackgroundImageFix"/>
<feBlend mode="normal" in="SourceGraphic" in2="BackgroundImageFix" result="shape"/>
<feGaussianBlur stdDeviation="0.00627067" result="effect1_foregroundBlur_2_2464"/>
</filter>
<filter id="filter18_f_2_2464" x="5.07" y="17.3931" width="5.65786" height="6.92161" filterUnits="userSpaceOnUse" color-interpolation-filters="sRGB">
<feFlood flood-opacity="0" result="BackgroundImageFix"/>
<feBlend mode="normal" in="SourceGraphic" in2="BackgroundImageFix" result="shape"/>
<feGaussianBlur stdDeviation="0.0936946" result="effect1_foregroundBlur_2_2464"/>
</filter>
<filter id="filter19_f_2_2464" x="4.14786" y="18.3319" width="6.64184" height="6.74971" filterUnits="userSpaceOnUse" color-interpolation-filters="sRGB">
<feFlood flood-opacity="0" result="BackgroundImageFix"/>
<feBlend mode="normal" in="SourceGraphic" in2="BackgroundImageFix" result="shape"/>
<feGaussianBlur stdDeviation="0.806975" result="effect1_foregroundBlur_2_2464"/>
</filter>
<filter id="filter20_f_2_2464" x="5.23532" y="19.1138" width="5.32471" height="5.0216" filterUnits="userSpaceOnUse" color-interpolation-filters="sRGB">
<feFlood flood-opacity="0" result="BackgroundImageFix"/>
<feBlend mode="normal" in="SourceGraphic" in2="BackgroundImageFix" result="shape"/>
<feGaussianBlur stdDeviation="0.0110335" result="effect1_foregroundBlur_2_2464"/>
</filter>
<filter id="filter21_f_2_2464" x="6.71827" y="14.1708" width="2.13512" height="2.55255" filterUnits="userSpaceOnUse" color-interpolation-filters="sRGB">
<feFlood flood-opacity="0" result="BackgroundImageFix"/>
<feBlend mode="normal" in="SourceGraphic" in2="BackgroundImageFix" result="shape"/>
<feGaussianBlur stdDeviation="0.035092" result="effect1_foregroundBlur_2_2464"/>
</filter>
<filter id="filter22_f_2_2464" x="6.36582" y="14.4752" width="2.49027" height="2.52531" filterUnits="userSpaceOnUse" color-interpolation-filters="sRGB">
<feFlood flood-opacity="0" result="BackgroundImageFix"/>
<feBlend mode="normal" in="SourceGraphic" in2="BackgroundImageFix" result="shape"/>
<feGaussianBlur stdDeviation="0.302241" result="effect1_foregroundBlur_2_2464"/>
</filter>
<filter id="filter23_f_2_2464" x="6.78019" y="14.8219" width="2.01128" height="1.83266" filterUnits="userSpaceOnUse" color-interpolation-filters="sRGB">
<feFlood flood-opacity="0" result="BackgroundImageFix"/>
<feBlend mode="normal" in="SourceGraphic" in2="BackgroundImageFix" result="shape"/>
<feGaussianBlur stdDeviation="0.00413243" result="effect1_foregroundBlur_2_2464"/>
</filter>
<filter id="filter24_f_2_2464" x="12.8821" y="13.5461" width="4.42452" height="5.52113" filterUnits="userSpaceOnUse" color-interpolation-filters="sRGB">
<feFlood flood-opacity="0" result="BackgroundImageFix"/>
<feBlend mode="normal" in="SourceGraphic" in2="BackgroundImageFix" result="shape"/>
<feGaussianBlur stdDeviation="0.0735454" result="effect1_foregroundBlur_2_2464"/>
</filter>
<filter id="filter25_f_2_2464" x="12.1759" y="14.3899" width="5.20738" height="5.30421" filterUnits="userSpaceOnUse" color-interpolation-filters="sRGB">
<feFlood flood-opacity="0" result="BackgroundImageFix"/>
<feBlend mode="normal" in="SourceGraphic" in2="BackgroundImageFix" result="shape"/>
<feGaussianBlur stdDeviation="0.633433" result="effect1_foregroundBlur_2_2464"/>
</filter>
<filter id="filter26_f_2_2464" x="13.0119" y="14.8738" width="4.14637" height="4.05764" filterUnits="userSpaceOnUse" color-interpolation-filters="sRGB">
<feFlood flood-opacity="0" result="BackgroundImageFix"/>
<feBlend mode="normal" in="SourceGraphic" in2="BackgroundImageFix" result="shape"/>
<feGaussianBlur stdDeviation="0.0086607" result="effect1_foregroundBlur_2_2464"/>
</filter>
<radialGradient id="paint0_radial_2_2464" cx="0" cy="0" r="1" gradientUnits="userSpaceOnUse" gradientTransform="translate(3.22598 17.2043) rotate(32.9977) scale(1.47906 1.61868)">
<stop stop-color="#E5F9FF" stop-opacity="0.29434"/>
<stop offset="0.83069" stop-color="#F2FCFF" stop-opacity="0.21176"/>
<stop offset="1" stop-color="white" stop-opacity="0"/>
</radialGradient>
<radialGradient id="paint1_radial_2_2464" cx="0" cy="0" r="1" gradientUnits="userSpaceOnUse" gradientTransform="translate(7.97207 21.3204) rotate(24.1413) scale(2.60246 2.84813)">
<stop stop-color="#E5F9FF" stop-opacity="0.29434"/>
<stop offset="0.83069" stop-color="#F2FCFF" stop-opacity="0.21176"/>
<stop offset="1" stop-color="white" stop-opacity="0"/>
</radialGradient>
<radialGradient id="paint2_radial_2_2464" cx="0" cy="0" r="1" gradientUnits="userSpaceOnUse" gradientTransform="translate(7.80735 15.604) rotate(27.3829) scale(0.974714 1.06673)">
<stop stop-color="#E5F9FF" stop-opacity="0.29434"/>
<stop offset="0.83069" stop-color="#F2FCFF" stop-opacity="0.21176"/>
<stop offset="1" stop-color="white" stop-opacity="0"/>
</radialGradient>
<radialGradient id="paint3_radial_2_2464" cx="0" cy="0" r="1" gradientUnits="userSpaceOnUse" gradientTransform="translate(15.1529 16.7123) rotate(20.2041) scale(2.0428 2.23564)">
<stop stop-color="#E5F9FF" stop-opacity="0.29434"/>
<stop offset="0.83069" stop-color="#F2FCFF" stop-opacity="0.21176"/>
<stop offset="1" stop-color="white" stop-opacity="0"/>
</radialGradient>
</defs>
</svg>
