<svg width="24" height="29" viewBox="0 0 24 29" fill="none" xmlns="http://www.w3.org/2000/svg">
<g filter="url(#filter0_f_2_2465)">
<path d="M20.2698 6.91889C20.2698 9.84086 17.9011 12.2095 14.9791 12.2095C12.0572 12.2095 9.68848 9.84086 9.68848 6.91889C9.68848 3.99692 12.0572 1.62823 14.9791 1.62823C17.9011 1.62823 20.2698 3.99692 20.2698 6.91889V6.91889Z" fill="#ECECEC"/>
<path d="M18.4549 8.92643C18.4549 11.8484 15.6437 14.2171 12.1759 14.2171C8.70813 14.2171 5.89697 11.8484 5.89697 8.92643C5.89697 6.00446 8.70813 3.63577 12.1759 3.63577C15.6437 3.63577 18.4549 6.00446 18.4549 8.92643V8.92643Z" fill="#ECECEC"/>
<path d="M13.7684 8.13026C13.7684 10.5946 11.7707 12.5923 9.30638 12.5923C6.84206 12.5923 4.84436 10.5946 4.84436 8.13026C4.84436 5.66594 6.84206 3.66824 9.30638 3.66824C11.7707 3.66824 13.7684 5.66594 13.7684 8.13026V8.13026Z" fill="#ECECEC"/>
<path d="M12.03 9.37317C12.03 11.6086 10.0503 13.4208 7.60818 13.4208C5.16606 13.4208 3.18637 11.6086 3.18637 9.37317C3.18637 7.13769 5.16606 5.3255 7.60818 5.3255C10.0503 5.3255 12.03 7.13769 12.03 9.37317V9.37317Z" fill="#ECECEC"/>
<path d="M6.62935 9.53251C6.62935 11.0463 5.40218 12.2735 3.88837 12.2735C2.37457 12.2735 1.1474 11.0463 1.1474 9.53251C1.1474 8.0187 2.37457 6.79153 3.88837 6.79153C5.40218 6.79153 6.62935 8.0187 6.62935 9.53251V9.53251Z" fill="#ECECEC"/>
<path d="M22.788 9.53237C22.788 11.5214 21.1755 13.1339 19.1865 13.1339C17.1974 13.1339 15.585 11.5214 15.585 9.53237C15.585 7.54331 17.1974 5.93088 19.1865 5.93088C21.1755 5.93088 22.788 7.54331 22.788 9.53237V9.53237Z" fill="#ECECEC"/>
<path d="M20.78 8.79971C20.78 10.7888 19.1676 12.4012 17.1786 12.4012C15.1895 12.4012 13.5771 10.7888 13.5771 8.79971C13.5771 6.81064 15.1895 5.19821 17.1786 5.19821C19.1676 5.19821 20.78 6.81064 20.78 8.79971V8.79971Z" fill="#ECECEC"/>
<g filter="url(#filter1_f_2_2465)">
<path d="M22.2942 8.28911C22.7723 9.52874 22.9277 11.1104 21.704 11.1104C20.4803 11.1104 17.7036 9.95901 17.7036 8.73531C17.7036 7.51161 18.6956 6.51962 19.9193 6.51962C21.143 6.51962 21.8162 7.04947 22.2943 8.28911H22.2942Z" fill="#F8F8F8"/>
</g>
<g filter="url(#filter2_f_2_2465)">
<path d="M18.8799 5.93093C18.8799 8.03257 16.748 7.55021 14.6464 7.55021C12.5448 7.55021 11.2693 8.03255 11.2693 5.93093C11.2693 3.8293 12.973 2.12558 15.0746 2.12558C17.1763 2.12558 18.8799 3.82928 18.8799 5.93093H18.8799Z" fill="#D1D1D1"/>
</g>
<g filter="url(#filter3_f_2_2465)">
<path d="M11.5258 9.37337C11.5258 11.3539 9.77192 12.9593 7.60835 12.9593C5.44478 12.9593 3.69089 11.3539 3.69089 9.37337C3.69089 7.39289 5.44478 5.78741 7.60835 5.78741C9.77192 5.78741 11.5258 7.39289 11.5258 9.37337V9.37337Z" fill="#CCCCCC"/>
</g>
<g filter="url(#filter4_f_2_2465)">
<path d="M6.00906 9.57786C6.00906 10.9534 4.96353 12.0685 3.67379 12.0685C2.38406 12.0685 1.33853 10.9534 1.33853 9.57786C1.33853 8.20231 2.38406 7.08722 3.67379 7.08722C4.96353 7.08722 6.00906 8.20231 6.00906 9.57786V9.57786Z" fill="#CFCFCF"/>
</g>
<g opacity="0.86831" filter="url(#filter5_f_2_2465)">
<path d="M9.55026 11.1465C9.55026 12.4469 8.5552 13.0081 7.25471 13.0081C5.95423 13.0081 4.91971 12.8611 4.91971 11.5606C4.91971 10.2602 5.75701 10.2315 7.05749 10.2315C8.35797 10.2315 9.55026 9.84601 9.55026 11.1465Z" fill="#BDBDBD"/>
</g>
<g opacity="0.81481" filter="url(#filter6_f_2_2465)">
<path d="M16.321 11.0659C16.321 12.9866 14.2203 13.8155 12.2996 13.8155C10.379 13.8155 8.85098 13.5983 8.85098 11.6776C8.85098 9.75694 9.8688 8.82394 10.4984 10.6385C11.2022 12.6668 12.9856 11.9848 16.321 11.066L16.321 11.0659Z" fill="#BDBDBD"/>
</g>
<g filter="url(#filter7_f_2_2465)">
<path d="M7.70761 9.00402C7.70761 10.3999 6.7001 11.5315 5.45725 11.5315C4.21439 11.5315 3.20688 10.3999 3.20688 9.00402C3.20688 7.60815 4.21439 6.47659 5.45725 6.47659C6.7001 6.47659 7.70761 7.60815 7.70761 9.00402V9.00402Z" fill="#E9E9E9"/>
</g>
<g filter="url(#filter8_f_2_2465)">
<path d="M13.0005 7.63669C13.0005 9.64099 11.3757 11.2658 9.3714 11.2658C7.3671 11.2658 5.74231 9.64099 5.74231 7.63669C5.74231 5.63239 7.3671 4.0076 9.3714 4.0076C11.3757 4.0076 13.0005 5.63239 13.0005 7.63669V7.63669Z" fill="#C4C4C4"/>
</g>
<g filter="url(#filter9_f_2_2465)">
<path d="M14.189 6.46454C14.189 7.6308 12.6173 8.57626 10.6785 8.57626C8.73969 8.57626 7.168 7.6308 7.168 6.46454C7.168 5.29828 8.73969 4.35281 10.6785 4.35281C12.6173 4.35281 14.189 5.29828 14.189 6.46454V6.46454Z" fill="#E7E7E7"/>
</g>
<g opacity="0.81893" filter="url(#filter10_f_2_2465)">
<path d="M4.12907 7.70849C4.36117 8.14041 4.47232 8.56582 4.48005 9.35256C4.49208 10.5769 4.8365 10.7673 5.12134 10.8247C5.41885 10.8846 6.01963 10.0481 5.94812 9.54844C5.67505 8.00602 5.24715 6.41326 3.40826 6.92371C3.40826 6.92371 3.89695 7.27651 4.12905 7.70843L4.12907 7.70849Z" fill="white"/>
</g>
<g opacity="0.93827" filter="url(#filter11_f_2_2465)">
<path d="M19.2401 6.09377C19.2401 7.74224 17.8935 9.14615 16.4365 9.14615C14.9795 9.14615 17.3014 5.34667 13.9928 3.80085C12.4993 3.10307 14.7072 2.00791 16.1435 2.25255C18.0148 2.57126 19.2401 4.44527 19.2401 6.09369V6.09377Z" fill="#FCFCFC"/>
</g>
<g opacity="0.97062" filter="url(#filter12_f_2_2465)">
<path d="M21.2223 12.112C21.2223 13.404 17.4836 12.6082 16.8908 12.2487C16.3431 12.3851 12.3399 14.9422 13.1961 13.1995C13.7659 12.04 16.2022 12.4696 16.6946 11.7213C17.7279 12.3702 17.9992 12.2398 20.005 12.2472L21.2219 12.112L21.2223 12.112Z" fill="#BDBDBD"/>
</g>
<g opacity="0.92181" filter="url(#filter13_f_2_2465)">
<path d="M9.70599 5.18404C10.0383 5.67604 10.1974 6.16062 10.2084 7.0568C10.2257 8.45148 10.3131 8.21758 10.7209 8.28304C11.1468 8.35133 12.8181 8.02952 12.7158 7.46034C12.3249 5.70337 11.3066 3.70873 8.6741 4.29028C8.6741 4.29028 9.37371 4.69215 9.70598 5.18415L9.70599 5.18404Z" fill="white"/>
</g>
<g opacity="0.72428" filter="url(#filter14_f_2_2465)">
<path d="M15.2643 6.91482C16.0995 7.8931 16.4125 10.3248 15.7857 10.8295C15.2572 9.27275 14.6366 8.17027 12.7021 7.85957C11.6119 7.68449 11.9702 6.41372 12.6974 6.0438C13.6449 5.56189 14.429 5.93653 15.2642 6.91481L15.2643 6.91482Z" fill="#FCFCFC"/>
</g>
</g>
<g filter="url(#filter15_f_2_2465)">
<g filter="url(#filter16_f_2_2465)">
<path d="M9.96057 19.2736L10.3793 19.4309L8.91623 23.3274L8.49746 23.1701L9.96057 19.2736Z" fill="#00C7FF" fill-opacity="0.46364"/>
<path d="M10.0172 20.0636L10.6755 19.9369L10.6793 20.6238L9.87859 20.5101L10.0172 20.0636L10.0172 20.0636Z" fill="#00C7FF" fill-opacity="0.46364"/>
<path d="M9.7624 19.9673L9.35017 19.4386L8.89515 19.9533L9.57282 20.3947L9.76239 19.9673L9.7624 19.9673Z" fill="#00C7FF" fill-opacity="0.46364"/>
<path d="M12.3891 21.3406L12.574 21.7479L8.78423 23.4685L8.5993 23.0612L12.3891 21.3406Z" fill="#00C7FF" fill-opacity="0.46364"/>
<path d="M11.8705 21.9392L12.4257 22.3151L11.9426 22.8036L11.4568 22.157L11.8705 21.9392L11.8705 21.9392Z" fill="#00C7FF" fill-opacity="0.46364"/>
<path d="M11.7585 21.691L11.8408 21.0256L11.1552 21.0678L11.3222 21.8591L11.7585 21.691L11.7585 21.691Z" fill="#00C7FF" fill-opacity="0.46364"/>
<path d="M12.6444 24.5193L12.4871 24.9381L8.59063 23.4749L8.74787 23.0562L12.6444 24.5193Z" fill="#00C7FF" fill-opacity="0.46364"/>
<path d="M11.8544 24.5759L11.9811 25.2342L11.2942 25.238L11.4079 24.4373L11.8544 24.5759L11.8544 24.5759Z" fill="#00C7FF" fill-opacity="0.46364"/>
<path d="M11.9507 24.3211L12.4794 23.9089L11.9647 23.4538L11.5233 24.1315L11.9507 24.3211L11.9507 24.3211Z" fill="#00C7FF" fill-opacity="0.46364"/>
<path d="M10.5774 26.9476L10.1701 27.1326L8.44941 23.3428L8.85671 23.1578L10.5774 26.9476Z" fill="#00C7FF" fill-opacity="0.46364"/>
<path d="M9.97875 26.429L9.60284 26.9842L9.11439 26.5011L9.76099 26.0153L9.97874 26.4291L9.97875 26.429Z" fill="#00C7FF" fill-opacity="0.46364"/>
<path d="M10.227 26.317L10.8923 26.3994L10.8501 25.7137L10.0588 25.8807L10.227 26.317L10.227 26.317Z" fill="#00C7FF" fill-opacity="0.46364"/>
<path d="M7.3985 27.2033L6.97973 27.046L8.44284 23.1495L8.86161 23.3068L7.3985 27.2033Z" fill="#00C7FF" fill-opacity="0.46364"/>
<path d="M7.3419 26.4133L6.68355 26.54L6.67974 25.853L7.48048 25.9667L7.34189 26.4133L7.3419 26.4133Z" fill="#00C7FF" fill-opacity="0.46364"/>
<path d="M7.59667 26.5095L8.0089 27.0383L8.46392 26.5236L7.78625 26.0822L7.59668 26.5095L7.59667 26.5095Z" fill="#00C7FF" fill-opacity="0.46364"/>
<path d="M4.97031 25.1363L4.78538 24.729L8.57518 23.0084L8.7601 23.4157L4.97031 25.1363Z" fill="#00C7FF" fill-opacity="0.46364"/>
<path d="M5.4889 24.5377L4.93375 24.1618L5.41683 23.6733L5.90263 24.3199L5.48889 24.5377L5.4889 24.5377Z" fill="#00C7FF" fill-opacity="0.46364"/>
<path d="M5.60095 24.7859L5.51857 25.4513L6.20425 25.4091L6.0372 24.6177L5.60095 24.7859L5.60095 24.7859Z" fill="#00C7FF" fill-opacity="0.46364"/>
<path d="M4.71487 21.9575L4.87212 21.5388L8.76863 23.0019L8.61138 23.4206L4.71487 21.9575Z" fill="#00C7FF" fill-opacity="0.46364"/>
<path d="M5.50486 21.901L5.37812 21.2426L6.0651 21.2388L5.9514 22.0395L5.50486 21.9009L5.50486 21.901Z" fill="#00C7FF" fill-opacity="0.46364"/>
<path d="M5.40858 22.1557L4.87984 22.568L5.39453 23.023L5.83597 22.3453L5.40857 22.1557L5.40858 22.1557Z" fill="#00C7FF" fill-opacity="0.46364"/>
<path d="M6.78183 19.5292L7.18913 19.3442L8.90979 23.134L8.50249 23.319L6.78183 19.5292Z" fill="#00C7FF" fill-opacity="0.46364"/>
<path d="M7.38044 20.0478L7.75635 19.4926L8.24481 19.9757L7.59821 20.4615L7.38045 20.0477L7.38044 20.0478Z" fill="#00C7FF" fill-opacity="0.46364"/>
<path d="M7.13224 20.1598L6.46687 20.0774L6.50907 20.7631L7.30039 20.5961L7.13222 20.1598L7.13224 20.1598Z" fill="#00C7FF" fill-opacity="0.46364"/>
<path d="M9.56398 20.9659L10.244 20.8745L10.2158 21.5925L10.9384 21.6545L10.4972 22.4399L9.7718 22.6594L9.92175 21.9353L9.23496 22.1408L9.56403 20.9659L9.56398 20.9659Z" fill="#00C7FF" fill-opacity="0.46364"/>
<path d="M10.8787 22.1953L11.4242 22.6114L10.8965 23.0992L11.3636 23.654L10.4963 23.8973L9.82812 23.5397L10.4461 23.1337L9.81519 22.7934L10.8787 22.1953L10.8787 22.1953Z" fill="#00C7FF" fill-opacity="0.46364"/>
<path d="M10.939 23.9943L11.0304 24.6742L10.3123 24.646L10.2504 25.3687L9.46498 24.9274L9.24544 24.2021L9.96951 24.352L9.76407 23.6652L10.939 23.9943L10.939 23.9943Z" fill="#00C7FF" fill-opacity="0.46364"/>
<path d="M9.70954 25.309L9.29338 25.8544L8.80561 25.3268L8.25084 25.7939L8.00749 24.9265L8.36515 24.2584L8.7711 24.8764L9.11147 24.2455L9.70956 25.3089L9.70954 25.309Z" fill="#00C7FF" fill-opacity="0.46364"/>
<path d="M7.91058 25.3692L7.23059 25.4606L7.2588 24.7426L6.53618 24.6806L6.9774 23.8952L7.70276 23.6757L7.5528 24.3998L8.23959 24.1943L7.91052 25.3692L7.91058 25.3692Z" fill="#00C7FF" fill-opacity="0.46364"/>
<path d="M6.59587 24.1398L6.05041 23.7237L6.57809 23.2359L6.11095 22.6811L6.97832 22.4378L7.64646 22.7954L7.02844 23.2014L7.65938 23.5417L6.59593 24.1398L6.59587 24.1398Z" fill="#00C7FF" fill-opacity="0.46364"/>
<path d="M6.53562 22.3408L6.44419 21.6609L7.16225 21.6891L7.22421 20.9664L8.0096 21.4077L8.22914 22.133L7.50507 21.9831L7.71051 22.6699L6.5356 22.3408L6.53562 22.3408Z" fill="#00C7FF" fill-opacity="0.46364"/>
<path d="M7.76502 21.0261L8.18117 20.4807L8.66895 21.0083L9.22372 20.5412L9.46707 21.4086L9.10941 22.0767L8.70346 21.4587L8.36308 22.0896L7.765 21.0262L7.76502 21.0261Z" fill="#00C7FF" fill-opacity="0.46364"/>
</g>
<path d="M10.4136 19.4748L9.99616 19.3169L9.7566 19.957L9.38717 19.4814L8.93036 19.997L9.58234 20.422L9.3728 20.9811L9.25973 20.5858L8.70535 21.0526L8.21557 20.525L7.91799 20.9157L7.70697 20.4504L8.28031 20.0184L7.79284 19.5369L7.49287 19.9778L7.22462 19.3869L6.81747 19.5734L7.10056 20.1945L6.50185 20.1193L6.54372 20.8078L7.30547 20.6453L7.54099 21.1687L7.25973 21.009L7.19676 21.7331L6.47917 21.7059L6.54452 22.1962L5.99839 21.992L6.10009 21.2836L5.41235 21.2867L5.51271 21.8093L4.90717 21.5808L4.75079 22.0019L5.39095 22.2415L4.91535 22.6109L5.42835 23.0667L5.85337 22.4147L6.446 22.6379L6.14615 22.7236L6.61297 23.278L6.08537 23.7677L6.44156 24.0392L5.88433 24.2911L5.45233 23.7178L4.96824 24.2042L5.41176 24.5052L4.82078 24.7735L5.00472 25.1796L5.62841 24.8975L5.55432 25.4936L6.23919 25.4533L6.08022 24.69L6.76675 24.3794L6.57199 24.7246L7.29351 24.7866L7.26632 25.5042L7.62912 25.4562L7.42436 25.9961L6.71498 25.897L6.71801 26.5847L7.24426 26.4828L7.01474 27.0909L7.43326 27.2463L7.67281 26.6061L8.04483 27.0827L8.49905 26.5661L7.84708 26.1411L8.1482 25.3423L8.28653 25.8382L8.84092 25.3714L9.3281 25.898L9.51447 25.6547L9.72244 26.1127L9.1491 26.5447L9.63915 27.0273L9.93806 26.5889L10.2048 27.1763L10.6119 26.9897L10.3288 26.3686L10.9276 26.4438L10.8846 25.7579L10.1239 25.9179L9.76065 25.1166L10.285 25.4114L10.3469 24.6898L11.0671 24.7181L11.0254 24.4211L11.431 24.5712L11.3283 25.2821L12.016 25.2791L11.9167 24.7538L12.5222 24.9823L12.6802 24.5649L12.0374 24.3242L12.5141 23.9522L12 23.4991L11.576 24.1484L10.8108 23.861L11.3986 23.6968L10.9318 23.1424L11.4583 22.6552L11.1779 22.4417L11.5466 22.2757L11.9786 22.849L12.4612 22.359L12.0202 22.059L12.6076 21.7923L12.4247 21.3836L11.801 21.6656L11.8751 21.0695L11.1892 21.1124L11.3502 21.8705L10.7146 22.1597L10.9743 21.6994L10.2502 21.6364L10.2799 20.9199L9.85027 20.9768L10.0024 20.566L10.7144 20.6662L10.7103 19.981L10.1841 20.0829L10.4136 19.4748L10.4136 19.4748ZM9.95758 21.9779L9.83595 22.5577L9.13642 22.8781L9.41125 22.1439L9.95759 21.9779L9.95758 21.9779ZM8.73886 21.5028L9.0154 21.9255L8.72948 22.6944L8.43768 22.0577L8.73885 21.5028L8.73886 21.5028ZM10.0588 22.9495L10.4805 23.1784L9.9387 23.533L9.30217 23.2919L10.0588 22.9495L10.0588 22.9495ZM7.97169 22.1149L8.30942 22.8606L7.72455 22.6405L7.54085 22.0268L7.97169 22.1149L7.97169 22.1149ZM8.12978 23.2722L7.5762 23.5226L7.06314 23.2445L7.42762 23.0074L8.12977 23.2722L8.12978 23.2722ZM9.88404 23.9925L10.0053 24.3972L9.37484 24.2669L9.11884 23.705L9.88404 23.9925ZM8.29195 23.6875L8.06291 24.3019L7.58974 24.4435L7.68644 23.9619L8.29195 23.6876L8.29195 23.6875ZM8.70101 23.8661L9.00965 24.5428L8.80743 24.9212L8.48726 24.4355L8.70101 23.8661Z" fill="url(#paint0_radial_2_2465)"/>
<path d="M6.31611 24.0107L5.75888 24.2626L5.32688 23.6892L4.84279 24.1756L5.28631 24.4767L4.69533 24.7449L4.87927 25.151L5.50296 24.869L5.42887 25.4651L6.11374 25.4248L5.95478 24.6615L6.6413 24.3508L6.44654 24.6961L7.16807 24.758L7.14088 25.4756L7.50368 25.4276L7.29891 25.9675L6.58953 25.8684L6.59256 26.5562L7.11881 26.4543L6.88929 27.0624L7.30781 27.2177L7.54737 26.5775L7.91938 27.0542L8.37361 26.5376L7.72163 26.1125L8.02275 25.3138L8.16108 25.8097L8.71547 25.3429L9.20265 25.8694L9.38903 25.6261L9.59699 26.0842L9.02365 26.5162L9.5137 26.9987L9.81261 26.5604L10.0793 27.1477L10.4865 26.9612L10.2034 26.3401L10.8021 26.4152L10.7592 25.7293L9.99849 25.8893L9.6352 25.088L10.1595 25.3828L10.2215 24.6613L10.9416 24.6895L10.9 24.3925L11.3056 24.5426L11.2028 25.2535L11.8906 25.2505L11.7912 24.7253L12.3968 24.9538L12.5547 24.5363L11.912 24.2957L12.3886 23.9237L11.8745 23.4705L11.4506 24.1199L10.6854 23.8324L11.2731 23.6683L10.8063 23.1139L11.3329 22.6267L11.0524 22.4132L11.4211 22.2471L11.8532 22.8205L12.3357 22.3304L11.8948 22.0304L12.4821 21.7637L12.2992 21.355L11.6755 21.6371L11.7496 21.0409L11.0637 21.0839L11.2248 21.842L10.5891 22.1312C10.5891 22.1312 9.65993 21.8938 8.58869 23.2543C7.6514 24.4448 6.31602 24.0107 6.31602 24.0107L6.31611 24.0107Z" fill="white" fill-opacity="0.51364"/>
<g filter="url(#filter17_f_2_2465)">
<path d="M20.3677 17.0148L20.6036 17.2411L18.4977 19.4354L18.2618 19.2091L20.3677 17.0148Z" fill="#00C7FF" fill-opacity="0.46364"/>
<path d="M20.1779 17.5615L20.6565 17.6662L20.461 18.1286L19.9561 17.8214L20.178 17.5615L20.1779 17.5615Z" fill="#00C7FF" fill-opacity="0.46364"/>
<path d="M20.0347 17.4234L19.9103 16.9495L19.4564 17.1639L19.7841 17.6557L20.0346 17.4234L20.0347 17.4234Z" fill="#00C7FF" fill-opacity="0.46364"/>
<path d="M21.4023 19.1029L21.409 19.4297L18.3683 19.4922L18.3616 19.1654L21.4023 19.1029Z" fill="#00C7FF" fill-opacity="0.46364"/>
<path d="M20.8815 19.3553L21.1458 19.7677L20.6806 19.9564L20.5409 19.3822L20.8815 19.3553L20.8815 19.3553Z" fill="#00C7FF" fill-opacity="0.46364"/>
<path d="M20.8778 19.1563L21.125 18.7333L20.6524 18.5639L20.5364 19.1434L20.8778 19.1563L20.8778 19.1563Z" fill="#00C7FF" fill-opacity="0.46364"/>
<path d="M20.6571 21.3107L20.4308 21.5466L18.2364 19.4407L18.4628 19.2048L20.6571 21.3107Z" fill="#00C7FF" fill-opacity="0.46364"/>
<path d="M20.1104 21.1209L20.0057 21.5995L19.5433 21.404L19.8505 20.8991L20.1104 21.1209L20.1104 21.1209Z" fill="#00C7FF" fill-opacity="0.46364"/>
<path d="M20.2485 20.9776L20.7224 20.8533L20.508 20.3994L20.0162 20.7271L20.2485 20.9776L20.2485 20.9776Z" fill="#00C7FF" fill-opacity="0.46364"/>
<path d="M18.5691 22.3452L18.2423 22.3519L18.1798 19.3112L18.5066 19.3045L18.5691 22.3452Z" fill="#00C7FF" fill-opacity="0.46364"/>
<path d="M18.3167 21.8244L17.9043 22.0887L17.7156 21.6235L18.2898 21.4838L18.3167 21.8244L18.3167 21.8244Z" fill="#00C7FF" fill-opacity="0.46364"/>
<path d="M18.5157 21.8207L18.9387 22.0679L19.1081 21.5953L18.5286 21.4793L18.5157 21.8207L18.5157 21.8207Z" fill="#00C7FF" fill-opacity="0.46364"/>
<path d="M16.361 21.6002L16.1252 21.3739L18.2311 19.1795L18.4669 19.4059L16.361 21.6002Z" fill="#00C7FF" fill-opacity="0.46364"/>
<path d="M16.5508 21.0535L16.0722 20.9487L16.2677 20.4864L16.7726 20.7936L16.5508 21.0535L16.5508 21.0535Z" fill="#00C7FF" fill-opacity="0.46364"/>
<path d="M16.6941 21.1916L16.8184 21.6655L17.2723 21.4511L16.9446 20.9593L16.6941 21.1916L16.6941 21.1916Z" fill="#00C7FF" fill-opacity="0.46364"/>
<path d="M15.3266 19.5123L15.3199 19.1855L18.3606 19.1229L18.3674 19.4497L15.3266 19.5123Z" fill="#00C7FF" fill-opacity="0.46364"/>
<path d="M15.8475 19.2599L15.5831 18.8474L16.0483 18.6587L16.188 19.233L15.8475 19.2599L15.8475 19.2599Z" fill="#00C7FF" fill-opacity="0.46364"/>
<path d="M15.8511 19.4588L15.604 19.8818L16.0765 20.0512L16.1925 19.4717L15.8511 19.4589L15.8511 19.4588Z" fill="#00C7FF" fill-opacity="0.46364"/>
<path d="M16.0717 17.3043L16.2981 17.0685L18.4924 19.1744L18.2661 19.4102L16.0717 17.3043Z" fill="#00C7FF" fill-opacity="0.46364"/>
<path d="M16.6185 17.4941L16.7232 17.0155L17.1856 17.211L16.8783 17.7159L16.6185 17.4941L16.6185 17.4941Z" fill="#00C7FF" fill-opacity="0.46364"/>
<path d="M16.4804 17.6374L16.0065 17.7617L16.2209 18.2156L16.7127 17.8879L16.4804 17.6374L16.4804 17.6374Z" fill="#00C7FF" fill-opacity="0.46364"/>
<path d="M18.1597 16.2698L18.4865 16.2631L18.5491 19.3038L18.2223 19.3105L18.1597 16.2698Z" fill="#00C7FF" fill-opacity="0.46364"/>
<path d="M18.4121 16.7906L18.8246 16.5262L19.0133 16.9914L18.439 17.1312L18.4121 16.7906L18.4121 16.7906Z" fill="#00C7FF" fill-opacity="0.46364"/>
<path d="M18.2132 16.7943L17.7902 16.5471L17.6208 17.0197L18.2003 17.1357L18.2132 16.7943L18.2132 16.7943Z" fill="#00C7FF" fill-opacity="0.46364"/>
<path d="M19.6135 18.0367L20.0964 18.1714L19.8704 18.6453L20.3378 18.8953L19.815 19.2954L19.2647 19.2337L19.5742 18.7908L19.0538 18.7307L19.6135 18.0367L19.6135 18.0367Z" fill="#00C7FF" fill-opacity="0.46364"/>
<path d="M20.1418 19.2412L20.388 19.6779L19.8931 19.8533L20.0468 20.3605L19.3942 20.2738L19.0487 19.841L19.5807 19.7466L19.2552 19.3361L20.1417 19.2412L20.1418 19.2412Z" fill="#00C7FF" fill-opacity="0.46364"/>
<path d="M19.6635 20.4665L19.5288 20.9494L19.0548 20.7234L18.8048 21.1907L18.4047 20.668L18.4665 20.1177L18.9094 20.4272L18.9695 19.9068L19.6635 20.4665L19.6635 20.4665Z" fill="#00C7FF" fill-opacity="0.46364"/>
<path d="M18.4589 20.9947L18.0222 21.241L17.8469 20.746L17.3397 20.8997L17.4264 20.2472L17.8592 19.9017L17.9536 20.4337L18.364 20.1082L18.459 20.9947L18.4589 20.9947Z" fill="#00C7FF" fill-opacity="0.46364"/>
<path d="M17.2337 20.5165L16.7507 20.3818L16.9767 19.9078L16.5094 19.6578L17.0321 19.2577L17.5824 19.3194L17.273 19.7624L17.7934 19.8225L17.2336 20.5164L17.2337 20.5165Z" fill="#00C7FF" fill-opacity="0.46364"/>
<path d="M16.7054 19.3119L16.4592 18.8752L16.9541 18.6999L16.8004 18.1927L17.453 18.2794L17.7985 18.7122L17.2665 18.8065L17.5919 19.217L16.7055 19.3119L16.7054 19.3119Z" fill="#00C7FF" fill-opacity="0.46364"/>
<path d="M17.1837 18.0866L17.3184 17.6037L17.7924 17.8297L18.0423 17.3624L18.4425 17.8851L18.3807 18.4354L17.9378 18.126L17.8777 18.6463L17.1837 18.0866L17.1837 18.0866Z" fill="#00C7FF" fill-opacity="0.46364"/>
<path d="M18.3882 17.5584L18.8249 17.3121L19.0003 17.8071L19.5075 17.6534L19.4208 18.306L18.988 18.6514L18.8936 18.1194L18.4831 18.4449L18.3882 17.5584L18.3882 17.5584Z" fill="#00C7FF" fill-opacity="0.46364"/>
</g>
<path d="M20.6139 17.2805L20.3791 17.054L20.0337 17.4148L19.9228 16.9889L19.4674 17.2034L19.7826 17.6768L19.4807 17.9917L19.5188 17.6937L19.012 17.8473L18.8352 17.3518L18.5228 17.5283L18.5153 17.1551L19.0248 17.0303L18.8363 16.5665L18.5078 16.776L18.4981 16.3019L18.1709 16.3097L18.1819 16.8084L17.8016 16.5853L17.6311 17.0597L18.1895 17.1701L18.1967 17.5895L18.0539 17.4012L17.8028 17.8692L17.3288 17.6441L17.2313 17.9921L16.9236 17.6975L17.1961 17.2512L16.7334 17.0549L16.6501 17.4348L16.3094 17.1068L16.083 17.3444L16.4438 17.6899L16.0179 17.8008L16.2309 18.2547L16.7043 17.9395L17.0379 18.2603L16.8118 18.2313L16.9654 18.7382L16.4699 18.9149L16.6308 19.1999L16.184 19.2083L16.0593 18.6988L15.594 18.8858L15.805 19.2158L15.3309 19.2255L15.3373 19.5512L15.8374 19.5417L15.6157 19.9206L16.0872 20.091L16.2005 19.5327L16.7511 19.522L16.5208 19.6977L16.9874 19.9473L16.7622 20.4213L17.0196 20.4937L16.7265 20.7971L16.2787 20.526L16.0825 20.9887L16.4652 21.072L16.1357 21.4141L16.372 21.6391L16.7174 21.2784L16.8297 21.7057L17.2837 21.4898L16.9685 21.0164L17.401 20.5669L17.3509 20.9398L17.8577 20.7862L18.033 21.2802L18.2283 21.1706L18.2358 21.5381L17.7263 21.6628L17.9162 22.1281L18.2433 21.92L18.253 22.3913L18.5802 22.3834L18.5692 21.8848L18.9495 22.1079L19.1185 21.6349L18.5616 21.523L18.5487 20.8803L18.8158 21.2294L19.0654 20.7628L19.5408 20.9894L19.5985 20.778L19.8275 20.9957L19.5535 21.4434L20.0162 21.6397L20.1009 21.2584L20.4416 21.5864L20.668 21.3516L20.3059 21.0047L20.7332 20.8924L20.5187 20.4399L20.0468 20.7537L19.6159 20.34L20.0579 20.3993L19.9043 19.8924L20.3983 19.7171L20.2716 19.4929L20.567 19.4877L20.6918 19.9973L21.1571 19.8074L20.9475 19.4788L21.4188 19.4691L21.4138 19.142L20.9137 19.1515L21.1354 18.7726L20.6624 18.6036L20.552 19.1591L20.0418 19.17L20.3489 18.9358L19.8809 18.6847L20.1075 18.2122L19.8026 18.1265L20.0232 17.8946L20.4723 18.1671L20.6672 17.7059L20.2844 17.6226L20.6139 17.2805L20.6139 17.2805ZM19.5859 18.8296L19.3371 19.1839L18.775 19.1973L19.1713 18.7836L19.5859 18.8297L19.5859 18.8296ZM18.9047 18.1592L18.9684 18.5228L18.5548 18.9566L18.5424 18.4449L18.9046 18.1592L18.9047 18.1592ZM19.3737 19.5112L19.5909 19.7865L19.1249 19.8683L18.767 19.5229L19.3737 19.5112L19.3737 19.5112ZM18.2131 18.349L18.2248 18.9471L17.8956 18.6307L17.9492 18.1656L18.2131 18.349L18.2131 18.349ZM17.9855 19.1717L17.5416 19.1801L17.2773 18.8455L17.5904 18.7914L17.9855 19.1717L17.9855 19.1717ZM18.9557 20.1611L18.9204 20.4678L18.5347 20.1985L18.5248 19.7474L18.9557 20.1611ZM17.9746 19.4973L17.6437 19.8437L17.2852 19.8024L17.4889 19.5069L17.9746 19.4973L17.9746 19.4973ZM18.1978 19.7351L18.2099 20.2785L17.965 20.4742L17.8901 20.0558L18.1978 19.7351Z" fill="url(#paint1_radial_2_2465)"/>
<path d="M16.5548 19.1445L16.1081 19.153L15.9833 18.6435L15.518 18.8305L15.729 19.1605L15.2549 19.1702L15.2613 19.4959L15.7614 19.4864L15.5397 19.8653L16.0112 20.0356L16.1246 19.4773L16.6751 19.4667L16.4448 19.6424L16.9114 19.892L16.6862 20.3659L16.9436 20.4383L16.6505 20.7418L16.2027 20.4707L16.0065 20.9334L16.3892 21.0167L16.0597 21.3588L16.296 21.5838L16.6414 21.223L16.7537 21.6503L17.2077 21.4344L16.8925 20.9611L17.325 20.5116L17.2749 20.8844L17.7817 20.7308L17.957 21.2249L18.1523 21.1152L18.1598 21.4828L17.6503 21.6075L17.8402 22.0728L18.1673 21.8647L18.177 22.3359L18.5042 22.3281L18.4932 21.8294L18.8735 22.0525L19.0425 21.5796L18.4856 21.4677L18.4727 20.8249L18.7398 21.174L18.9894 20.7074L19.4648 20.9341L19.5225 20.7226L19.7515 20.9404L19.4775 21.3881L19.9402 21.5843L20.025 21.2031L20.3657 21.5311L20.5921 21.2963L20.2299 20.9494L20.6572 20.8371L20.4427 20.3846L19.9708 20.6983L19.5399 20.2847L19.9819 20.3439L19.8283 19.8371L20.3223 19.6618L20.1956 19.4376L20.491 19.4324L20.6158 19.9419L21.0811 19.752L20.8715 19.4235L21.3428 19.4138L21.3378 19.0866L20.8377 19.0962L21.0594 18.7173L20.5864 18.5483L20.476 19.1038L19.9658 19.1147C19.9658 19.1147 19.4104 18.6873 18.2988 19.292C17.3262 19.821 16.5548 19.1445 16.5548 19.1445L16.5548 19.1445Z" fill="white" fill-opacity="0.51364"/>
<g filter="url(#filter18_f_2_2465)">
<path d="M4.41766 15.1423L4.67159 15.2402L3.76071 17.6029L3.50678 17.505L4.41766 15.1423Z" fill="#00C7FF" fill-opacity="0.46364"/>
<path d="M4.44786 15.6232L4.84906 15.5496L4.84771 15.9676L4.36118 15.8941L4.44787 15.6232L4.44786 15.6232Z" fill="#00C7FF" fill-opacity="0.46364"/>
<path d="M4.29341 15.5633L4.04545 15.2394L3.76589 15.5501L4.1758 15.8223L4.29341 15.5633L4.29341 15.5633Z" fill="#00C7FF" fill-opacity="0.46364"/>
<path d="M5.88403 16.4128L5.99436 16.6615L3.67962 17.6881L3.5693 17.4393L5.88403 16.4128Z" fill="#00C7FF" fill-opacity="0.46364"/>
<path d="M5.56535 16.7742L5.90107 17.0058L5.60458 17.3004L5.31249 16.9044L5.56535 16.7742L5.56535 16.7742Z" fill="#00C7FF" fill-opacity="0.46364"/>
<path d="M5.49851 16.6226L5.55217 16.2182L5.1348 16.2402L5.23221 16.7225L5.4985 16.6226L5.49851 16.6226Z" fill="#00C7FF" fill-opacity="0.46364"/>
<path d="M6.02243 18.3479L5.92454 18.6018L3.56186 17.6909L3.65975 17.437L6.02243 18.3479Z" fill="#00C7FF" fill-opacity="0.46364"/>
<path d="M5.54151 18.3781L5.6151 18.7793L5.19715 18.778L5.27059 18.2914L5.54151 18.3781L5.54151 18.3781Z" fill="#00C7FF" fill-opacity="0.46364"/>
<path d="M5.60145 18.2236L5.92531 17.9757L5.61462 17.6961L5.34246 18.106L5.60146 18.2236L5.60145 18.2236Z" fill="#00C7FF" fill-opacity="0.46364"/>
<path d="M4.75195 19.8142L4.50318 19.9245L3.47661 17.6098L3.72539 17.4995L4.75195 19.8142Z" fill="#00C7FF" fill-opacity="0.46364"/>
<path d="M4.39055 19.4955L4.1589 19.8312L3.86432 19.5347L4.26028 19.2426L4.39055 19.4955L4.39055 19.4955Z" fill="#00C7FF" fill-opacity="0.46364"/>
<path d="M4.54217 19.4287L4.94651 19.4823L4.9245 19.0649L4.4422 19.1624L4.54218 19.4286L4.54217 19.4287Z" fill="#00C7FF" fill-opacity="0.46364"/>
<path d="M2.81671 19.9527L2.56279 19.8548L3.47367 17.4922L3.72759 17.5901L2.81671 19.9527Z" fill="#00C7FF" fill-opacity="0.46364"/>
<path d="M2.78651 19.4718L2.38532 19.5454L2.38667 19.1275L2.8732 19.2009L2.78651 19.4718L2.78651 19.4718Z" fill="#00C7FF" fill-opacity="0.46364"/>
<path d="M2.94096 19.5318L3.18893 19.8556L3.46849 19.545L3.05857 19.2728L2.94097 19.5318L2.94096 19.5318Z" fill="#00C7FF" fill-opacity="0.46364"/>
<path d="M1.35052 18.6823L1.2402 18.4336L3.55493 17.407L3.66526 17.6558L1.35052 18.6823Z" fill="#00C7FF" fill-opacity="0.46364"/>
<path d="M1.66921 18.3209L1.33349 18.0893L1.62998 17.7947L1.92207 18.1907L1.66921 18.3209L1.66921 18.3209Z" fill="#00C7FF" fill-opacity="0.46364"/>
<path d="M1.73605 18.4725L1.68239 18.8769L2.09976 18.8549L2.00235 18.3726L1.73605 18.4725L1.73605 18.4725Z" fill="#00C7FF" fill-opacity="0.46364"/>
<path d="M1.21207 16.7471L1.30996 16.4932L3.67264 17.4041L3.57474 17.658L1.21207 16.7471Z" fill="#00C7FF" fill-opacity="0.46364"/>
<path d="M1.69299 16.7169L1.6194 16.3157L2.03735 16.3171L1.96391 16.8036L1.69299 16.7169L1.69299 16.7169Z" fill="#00C7FF" fill-opacity="0.46364"/>
<path d="M1.63304 16.8714L1.30918 17.1194L1.61987 17.3989L1.89204 16.989L1.63304 16.8714L1.63304 16.8714Z" fill="#00C7FF" fill-opacity="0.46364"/>
<path d="M2.48248 15.2808L2.73125 15.1705L3.75782 17.4852L3.50905 17.5956L2.48248 15.2808Z" fill="#00C7FF" fill-opacity="0.46364"/>
<path d="M2.84388 15.5995L3.07553 15.2638L3.37011 15.5603L2.97415 15.8524L2.84389 15.5995L2.84388 15.5995Z" fill="#00C7FF" fill-opacity="0.46364"/>
<path d="M2.69227 15.6664L2.28793 15.6127L2.30994 16.0301L2.79224 15.9327L2.69226 15.6664L2.69227 15.6664Z" fill="#00C7FF" fill-opacity="0.46364"/>
<path d="M4.16739 16.1697L4.58155 16.1177L4.56056 16.5544L4.99985 16.596L4.72723 17.0714L4.28478 17.2011L4.37987 16.7614L3.96096 16.8827L4.16742 16.1697L4.16739 16.1697Z" fill="#00C7FF" fill-opacity="0.46364"/>
<path d="M4.96064 16.9247L5.29026 17.1807L4.96664 17.4747L5.24787 17.8147L4.7189 17.9581L4.31433 17.7369L4.69247 17.4933L4.31045 17.2828L4.96061 16.9246L4.96064 16.9247Z" fill="#00C7FF" fill-opacity="0.46364"/>
<path d="M4.9877 18.0194L5.03969 18.4336L4.60301 18.4126L4.56145 18.8519L4.08601 18.5792L3.95632 18.1368L4.39601 18.2319L4.27469 17.813L4.98771 18.0194L4.9877 18.0194Z" fill="#00C7FF" fill-opacity="0.46364"/>
<path d="M4.23275 18.8127L3.97667 19.1423L3.68274 18.8187L3.34275 19.0999L3.19933 18.5709L3.42048 18.1664L3.66415 18.5445L3.87458 18.1625L4.23276 18.8126L4.23275 18.8127Z" fill="#00C7FF" fill-opacity="0.46364"/>
<path d="M3.13802 18.8397L2.72385 18.8917L2.74485 18.455L2.30556 18.4135L2.57817 17.938L3.02062 17.8083L2.92553 18.248L3.34444 18.1267L3.13798 18.8397L3.13802 18.8397Z" fill="#00C7FF" fill-opacity="0.46364"/>
<path d="M2.34474 18.0848L2.01513 17.8287L2.33874 17.5348L2.05752 17.1948L2.58649 17.0514L2.99105 17.2725L2.61291 17.5162L2.99493 17.7266L2.34478 18.0848L2.34474 18.0848Z" fill="#00C7FF" fill-opacity="0.46364"/>
<path d="M2.3177 16.99L2.26571 16.5759L2.70239 16.5969L2.74395 16.1576L3.21939 16.4302L3.34908 16.8726L2.90938 16.7776L3.0307 17.1965L2.31769 16.99L2.3177 16.99Z" fill="#00C7FF" fill-opacity="0.46364"/>
<path d="M3.07264 16.1968L3.32872 15.8672L3.62265 16.1908L3.96264 15.9096L4.10606 16.4385L3.88491 16.8431L3.64124 16.4649L3.43081 16.847L3.07263 16.1968L3.07264 16.1968Z" fill="#00C7FF" fill-opacity="0.46364"/>
</g>
<path d="M4.69221 15.2671L4.43908 15.1688L4.28993 15.557L4.06772 15.2657L3.78707 15.5769L4.18144 15.8389L4.05098 16.1779L3.9843 15.9368L3.64455 16.2179L3.3494 15.8943L3.16628 16.1304L3.04038 15.8462L3.39148 15.5865L3.0975 15.2909L2.91266 15.5576L2.75262 15.1966L2.50393 15.3079L2.67283 15.6873L2.30901 15.6384L2.33081 16.0575L2.79509 15.9626L2.93558 16.2823L2.76532 16.1837L2.72315 16.6239L2.28674 16.6035L2.32388 16.9021L1.99273 16.7749L2.05838 16.3445L1.63997 16.3427L1.69824 16.6612L1.33107 16.519L1.23369 16.7743L1.62186 16.9235L1.33055 17.1457L1.64021 17.4257L1.90225 17.0313L2.26159 17.1703L2.07872 17.2208L2.35976 17.5606L2.03618 17.8557L2.25142 18.0228L1.91108 18.173L1.65133 17.8219L1.35423 18.1153L1.62245 18.3008L1.26149 18.4608L1.37122 18.7088L1.75215 18.5406L1.7039 18.9028L2.12076 18.882L2.02813 18.4168L2.44744 18.2314L2.32711 18.4404L2.76573 18.4819L2.74536 18.9184L2.96633 18.8911L2.83888 19.2185L2.40785 19.1544L2.40602 19.5728L2.72672 19.5136L2.58384 19.8823L2.83763 19.9791L2.98678 19.5909L3.21055 19.8829L3.48964 19.571L3.09527 19.3089L3.28272 18.8246L3.36423 19.1271L3.70399 18.846L3.99757 19.1689L4.11224 19.0219L4.23632 19.3017L3.88522 19.5614L4.18077 19.8576L4.36495 19.5925L4.52408 19.9513L4.77277 19.84L4.60387 19.4606L4.9677 19.5095L4.94524 19.092L4.48161 19.1853L4.26488 18.6959L4.58229 18.878L4.62381 18.4394L5.06179 18.4604L5.03802 18.2795L5.28397 18.373L5.21767 18.8049L5.63608 18.8068L5.57846 18.4867L5.94563 18.6289L6.04393 18.3758L5.65419 18.226L5.94615 18.0022L5.63583 17.7238L5.37445 18.1166L4.91046 17.9376L5.2689 17.8409L4.98786 17.5011L5.31079 17.2076L5.14134 17.0762L5.36653 16.9771L5.62628 17.3282L5.92246 17.0327L5.65581 16.8478L6.01456 16.6887L5.90547 16.4391L5.52454 16.6073L5.57279 16.2451L5.15528 16.2675L5.24922 16.7296L4.86098 16.9021L5.02142 16.6235L4.58124 16.5813L4.60317 16.1455L4.34147 16.1779L4.43625 15.9288L4.86885 15.9935L4.87002 15.5767L4.54932 15.6359L4.6922 15.2671L4.69221 15.2671ZM4.40142 16.7875L4.32433 17.1396L3.89706 17.3308L4.06817 16.8856L4.40142 16.7875L4.40142 16.7875ZM3.66254 16.492L3.82851 16.7506L3.65047 17.2168L3.47635 16.8279L3.66253 16.492L3.66254 16.492ZM4.45781 17.3791L4.71314 17.5206L4.38164 17.7334L3.99568 17.5834L4.45781 17.3791L4.45781 17.3791ZM3.19256 16.8602L3.39404 17.3157L3.0394 17.1787L2.93091 16.8043L3.19256 16.8602L3.19256 16.8602ZM3.28256 17.5652L2.94444 17.7145L2.6338 17.5426L2.8568 17.4003L3.28255 17.5652L3.28256 17.5652ZM4.34594 18.0127L4.41757 18.2595L4.0347 18.1769L3.88196 17.8337L4.34594 18.0127ZM3.379 17.8187L3.23638 18.1912L2.94777 18.2748L3.00917 17.9824L3.379 17.8187L3.379 17.8187ZM3.6269 17.9295L3.81106 18.3428L3.68602 18.5719L3.49383 18.2748L3.6269 17.9295Z" fill="url(#paint2_radial_2_2465)"/>
<path d="M2.17526 18.0047L1.83493 18.155L1.57517 17.8039L1.27807 18.0972L1.54629 18.2827L1.18533 18.4428L1.29507 18.6908L1.676 18.5225L1.62775 18.8848L2.04461 18.8639L1.95197 18.3987L2.37128 18.2134L2.25096 18.4224L2.68957 18.4639L2.66921 18.9003L2.89018 18.8731L2.76272 19.2004L2.33169 19.1363L2.32987 19.5548L2.65056 19.4956L2.50769 19.8643L2.76147 19.961L2.91062 19.5729L3.1344 19.8648L3.41348 19.5529L3.01911 19.2909L3.20656 18.8066L3.28807 19.109L3.62783 18.828L3.92141 19.1509L4.03609 19.0039L4.16016 19.2836L3.80906 19.5434L4.10462 19.8396L4.2888 19.5745L4.44793 19.9332L4.69662 19.8219L4.52771 19.4426L4.89154 19.4915L4.86908 19.074L4.40545 19.1672L4.18872 18.6778L4.50614 18.86L4.54765 18.4213L4.98563 18.4424L4.96186 18.2615L5.20782 18.3549L5.14151 18.7869L5.55992 18.7887L5.50231 18.4687L5.86947 18.6109L5.96777 18.3578L5.57803 18.208L5.86999 17.9842L5.55968 17.7057L5.29829 18.0985L4.83431 17.9196L5.19275 17.8228L4.91171 17.4831L5.23463 17.1895L5.06518 17.0581L5.29037 16.9591L5.55013 17.3102L5.84631 17.0146L5.57966 16.8298L5.9384 16.6706L5.82932 16.421L5.44839 16.5893L5.49664 16.227L5.07912 16.2495L5.17306 16.7115L4.78482 16.8841C4.78482 16.8841 4.2208 16.7347 3.56184 17.5567C2.98529 18.2759 2.17521 18.0047 2.17521 18.0047L2.17526 18.0047Z" fill="white" fill-opacity="0.51364"/>
<g filter="url(#filter19_f_2_2465)">
<path d="M9.64728 14.5707L9.8338 14.6426L9.1647 16.3782L8.97817 16.3063L9.64728 14.5707Z" fill="#00C7FF" fill-opacity="0.46364"/>
<path d="M9.66946 14.924L9.96417 14.8699L9.96318 15.177L9.60578 15.123L9.66947 14.924L9.66946 14.924Z" fill="#00C7FF" fill-opacity="0.46364"/>
<path d="M9.556 14.88L9.37385 14.6421L9.16849 14.8703L9.46961 15.0702L9.556 14.88L9.556 14.88Z" fill="#00C7FF" fill-opacity="0.46364"/>
<path d="M10.7245 15.504L10.8055 15.6867L9.10515 16.4408L9.02411 16.2581L10.7245 15.504Z" fill="#00C7FF" fill-opacity="0.46364"/>
<path d="M10.4904 15.7694L10.737 15.9396L10.5192 16.156L10.3046 15.8651L10.4904 15.7694L10.4904 15.7694Z" fill="#00C7FF" fill-opacity="0.46364"/>
<path d="M10.4413 15.6581L10.4807 15.3611L10.1741 15.3772L10.2456 15.7315L10.4413 15.6581L10.4413 15.6581Z" fill="#00C7FF" fill-opacity="0.46364"/>
<path d="M10.8261 16.9255L10.7542 17.112L9.01861 16.4429L9.09052 16.2564L10.8261 16.9255Z" fill="#00C7FF" fill-opacity="0.46364"/>
<path d="M10.4728 16.9477L10.5269 17.2424L10.2199 17.2414L10.2738 16.884L10.4728 16.9477L10.4728 16.9477Z" fill="#00C7FF" fill-opacity="0.46364"/>
<path d="M10.5169 16.8342L10.7548 16.652L10.5265 16.4467L10.3266 16.7478L10.5169 16.8342L10.5169 16.8342Z" fill="#00C7FF" fill-opacity="0.46364"/>
<path d="M9.89285 18.0025L9.71011 18.0836L8.95602 16.3832L9.13876 16.3022L9.89285 18.0025Z" fill="#00C7FF" fill-opacity="0.46364"/>
<path d="M9.62737 17.7685L9.4572 18.0151L9.24081 17.7973L9.53167 17.5827L9.62736 17.7685L9.62737 17.7685Z" fill="#00C7FF" fill-opacity="0.46364"/>
<path d="M9.73874 17.7193L10.0358 17.7588L10.0196 17.4522L9.6653 17.5237L9.73874 17.7193L9.73874 17.7193Z" fill="#00C7FF" fill-opacity="0.46364"/>
<path d="M8.47128 18.1043L8.28476 18.0324L8.95387 16.2969L9.14039 16.3688L8.47128 18.1043Z" fill="#00C7FF" fill-opacity="0.46364"/>
<path d="M8.4491 17.7511L8.15439 17.8051L8.15538 17.4981L8.51278 17.5521L8.44909 17.7511L8.4491 17.7511Z" fill="#00C7FF" fill-opacity="0.46364"/>
<path d="M8.56256 17.7951L8.74471 18.033L8.95007 17.8048L8.64895 17.6048L8.56256 17.7951L8.56256 17.7951Z" fill="#00C7FF" fill-opacity="0.46364"/>
<path d="M7.39423 17.1711L7.31318 16.9884L9.01353 16.2343L9.09457 16.417L7.39423 17.1711Z" fill="#00C7FF" fill-opacity="0.46364"/>
<path d="M7.62831 16.9057L7.38169 16.7355L7.59949 16.5191L7.81405 16.81L7.6283 16.9057L7.62831 16.9057Z" fill="#00C7FF" fill-opacity="0.46364"/>
<path d="M7.67743 17.017L7.63801 17.314L7.94459 17.2979L7.87304 16.9436L7.67743 17.017L7.67743 17.017Z" fill="#00C7FF" fill-opacity="0.46364"/>
<path d="M7.29254 15.7496L7.36445 15.5631L9.10002 16.2322L9.02811 16.4187L7.29254 15.7496Z" fill="#00C7FF" fill-opacity="0.46364"/>
<path d="M7.6458 15.7274L7.59174 15.4327L7.89875 15.4337L7.84481 15.7911L7.6458 15.7274L7.6458 15.7274Z" fill="#00C7FF" fill-opacity="0.46364"/>
<path d="M7.60176 15.8409L7.36386 16.023L7.59208 16.2284L7.79201 15.9273L7.60175 15.8409L7.60176 15.8409Z" fill="#00C7FF" fill-opacity="0.46364"/>
<path d="M8.22574 14.6725L8.40848 14.5914L9.16257 16.2918L8.97983 16.3728L8.22574 14.6725Z" fill="#00C7FF" fill-opacity="0.46364"/>
<path d="M8.49122 14.9066L8.66139 14.66L8.87778 14.8778L8.58692 15.0923L8.49123 14.9066L8.49122 14.9066Z" fill="#00C7FF" fill-opacity="0.46364"/>
<path d="M8.37986 14.9557L8.08284 14.9163L8.09901 15.2229L8.45329 15.1513L8.37985 14.9557L8.37986 14.9557Z" fill="#00C7FF" fill-opacity="0.46364"/>
<path d="M9.46344 15.3254L9.76767 15.2872L9.75225 15.608L10.0749 15.6385L9.87468 15.9878L9.54967 16.0831L9.61952 15.7601L9.3118 15.8492L9.46346 15.3254L9.46344 15.3254Z" fill="#00C7FF" fill-opacity="0.46364"/>
<path d="M10.0462 15.88L10.2883 16.0681L10.0506 16.284L10.2572 16.5338L9.86858 16.6391L9.5714 16.4767L9.84917 16.2977L9.56855 16.1431L10.0461 15.88L10.0462 15.88Z" fill="#00C7FF" fill-opacity="0.46364"/>
<path d="M10.066 16.6842L10.1042 16.9884L9.78342 16.973L9.7529 17.2957L9.40365 17.0954L9.30838 16.7704L9.63137 16.8402L9.54225 16.5325L10.066 16.6842L10.066 16.6842Z" fill="#00C7FF" fill-opacity="0.46364"/>
<path d="M9.51147 17.2669L9.32336 17.509L9.10745 17.2713L8.8577 17.4779L8.75235 17.0893L8.9148 16.7921L9.09379 17.0699L9.24837 16.7893L9.51148 17.2668L9.51147 17.2669Z" fill="#00C7FF" fill-opacity="0.46364"/>
<path d="M8.70729 17.2867L8.40306 17.3249L8.41848 17.0041L8.09579 16.9736L8.29605 16.6244L8.62106 16.5291L8.55121 16.8521L8.85893 16.763L8.70727 17.2867L8.70729 17.2867Z" fill="#00C7FF" fill-opacity="0.46364"/>
<path d="M8.12459 16.7322L7.88246 16.5441L8.12018 16.3282L7.9136 16.0784L8.30216 15.9731L8.59935 16.1355L8.32157 16.3145L8.6022 16.4691L8.12461 16.7322L8.12459 16.7322Z" fill="#00C7FF" fill-opacity="0.46364"/>
<path d="M8.10472 15.928L8.06653 15.6238L8.38731 15.6392L8.41783 15.3165L8.76708 15.5168L8.86235 15.8418L8.53936 15.7719L8.62848 16.0796L8.10472 15.928L8.10472 15.928Z" fill="#00C7FF" fill-opacity="0.46364"/>
<path d="M8.65925 15.3453L8.84736 15.1032L9.06328 15.3409L9.31303 15.1343L9.41838 15.5229L9.25593 15.8201L9.07693 15.5423L8.92235 15.8229L8.65924 15.3453L8.65925 15.3453Z" fill="#00C7FF" fill-opacity="0.46364"/>
</g>
<path d="M9.84896 14.6624L9.66302 14.5902L9.55345 14.8753L9.39022 14.6614L9.18406 14.89L9.47376 15.0825L9.37793 15.3315L9.32895 15.1544L9.07937 15.3608L8.86256 15.1231L8.72805 15.2966L8.63557 15.0878L8.89348 14.897L8.67752 14.6799L8.54174 14.8758L8.42418 14.6106L8.2415 14.6924L8.36557 14.9711L8.09832 14.9351L8.11433 15.243L8.45538 15.1733L8.55858 15.4082L8.43351 15.3357L8.40254 15.659L8.08196 15.6441L8.10925 15.8634L7.86599 15.77L7.91421 15.4539L7.60686 15.4525L7.64966 15.6865L7.37995 15.582L7.30841 15.7696L7.59355 15.8791L7.37957 16.0424L7.60704 16.248L7.79953 15.9584L8.06349 16.0604L7.92915 16.0975L8.1356 16.3471L7.8979 16.5639L8.05601 16.6866L7.80601 16.797L7.6152 16.5391L7.39696 16.7546L7.59399 16.8908L7.32884 17.0084L7.40945 17.1906L7.68927 17.067L7.65382 17.3331L7.96004 17.3178L7.89199 16.9761L8.20001 16.8399L8.11162 16.9935L8.43381 17.0239L8.41885 17.3445L8.58117 17.3245L8.48755 17.565L8.17092 17.5179L8.16958 17.8253L8.40516 17.7818L8.30021 18.0526L8.48663 18.1237L8.59619 17.8386L8.76057 18.053L8.96558 17.8239L8.67589 17.6314L8.81358 17.2757L8.87346 17.4978L9.12304 17.2914L9.33869 17.5286L9.42293 17.4206L9.51407 17.6261L9.25616 17.8169L9.47327 18.0345L9.60857 17.8398L9.72546 18.1033L9.90814 18.0215L9.78407 17.7429L10.0513 17.7788L10.0348 17.4721L9.69426 17.5406L9.53505 17.1811L9.76822 17.3149L9.79871 16.9927L10.1204 17.0081L10.103 16.8752L10.2837 16.9439L10.2349 17.2612L10.5423 17.2625L10.5 17.0274L10.7697 17.1319L10.8419 16.946L10.5556 16.8359L10.7701 16.6715L10.5421 16.467L10.3501 16.7556L10.0093 16.6241L10.2726 16.553L10.0661 16.3035L10.3034 16.0878L10.1789 15.9913L10.3443 15.9185L10.5351 16.1764L10.7527 15.9593L10.5568 15.8236L10.8203 15.7067L10.7402 15.5233L10.4604 15.6469L10.4958 15.3808L10.1891 15.3973L10.2581 15.7367L9.97293 15.8635L10.0908 15.6588L9.76744 15.6278L9.78355 15.3077L9.59132 15.3314L9.66093 15.1485L9.97871 15.196L9.97957 14.8898L9.744 14.9333L9.84895 14.6624L9.84896 14.6624ZM9.63535 15.7792L9.57873 16.0379L9.26486 16.1783L9.39055 15.8513L9.63535 15.7792L9.63535 15.7792ZM9.09259 15.5622L9.21451 15.7521L9.08372 16.0946L8.95582 15.8089L9.09258 15.5622L9.09259 15.5622ZM9.67678 16.2138L9.86433 16.3178L9.62082 16.4741L9.33731 16.3639L9.67678 16.2138L9.67678 16.2138ZM8.74735 15.8327L8.89535 16.1672L8.63484 16.0666L8.55515 15.7916L8.74735 15.8327L8.74735 15.8327ZM8.81346 16.3505L8.56509 16.4602L8.33691 16.3339L8.50071 16.2294L8.81346 16.3505L8.81346 16.3505ZM9.59459 16.6792L9.64721 16.8606L9.36597 16.7999L9.25377 16.5478L9.59459 16.6792ZM8.88431 16.5367L8.77955 16.8104L8.56754 16.8718L8.61264 16.657L8.88431 16.5367L8.88431 16.5367ZM9.06641 16.6181L9.20169 16.9217L9.10984 17.09L8.96866 16.8717L9.06641 16.6181Z" fill="url(#paint3_radial_2_2465)"/>
<path d="M8.00004 16.6734L7.75004 16.7838L7.55923 16.5259L7.34099 16.7413L7.53802 16.8776L7.27286 16.9952L7.35347 17.1774L7.6333 17.0538L7.59785 17.3199L7.90407 17.3045L7.83602 16.9628L8.14404 16.8267L8.05565 16.9802L8.37784 17.0107L8.36288 17.3313L8.5252 17.3112L8.43158 17.5517L8.11495 17.5046L8.11361 17.812L8.34919 17.7685L8.24424 18.0394L8.43066 18.1104L8.54022 17.8253L8.7046 18.0398L8.90961 17.8107L8.61992 17.6182L8.75761 17.2624L8.81749 17.4846L9.06707 17.2781L9.28272 17.5153L9.36696 17.4073L9.4581 17.6128L9.20019 17.8037L9.4173 18.0212L9.5526 17.8265L9.66949 18.09L9.85217 18.0083L9.72809 17.7296L9.99535 17.7655L9.97886 17.4588L9.63829 17.5273L9.47908 17.1678L9.71225 17.3016L9.74274 16.9794L10.0645 16.9949L10.047 16.862L10.2277 16.9306L10.179 17.2479L10.4863 17.2493L10.444 17.0142L10.7137 17.1187L10.7859 16.9327L10.4996 16.8227L10.7141 16.6583L10.4862 16.4538L10.2941 16.7423L9.95331 16.6108L10.2166 16.5398L10.0102 16.2902L10.2474 16.0745L10.1229 15.978L10.2883 15.9053L10.4791 16.1632L10.6967 15.9461L10.5008 15.8103L10.7643 15.6934L10.6842 15.5101L10.4044 15.6336L10.4398 15.3675L10.1331 15.384L10.2022 15.7234L9.91696 15.8502C9.91696 15.8502 9.50264 15.7405 9.01859 16.3443C8.59507 16.8726 8.00001 16.6734 8.00001 16.6734L8.00004 16.6734Z" fill="white" fill-opacity="0.51364"/>
</g>
<defs>
<filter id="filter0_f_2_2465" x="0.96892" y="1.44975" width="21.9975" height="12.9458" filterUnits="userSpaceOnUse" color-interpolation-filters="sRGB">
<feFlood flood-opacity="0" result="BackgroundImageFix"/>
<feBlend mode="normal" in="SourceGraphic" in2="BackgroundImageFix" result="shape"/>
<feGaussianBlur stdDeviation="0.08924" result="effect1_foregroundBlur_2_2465"/>
</filter>
<filter id="filter1_f_2_2465" x="17.1295" y="5.94552" width="6.09261" height="5.73894" filterUnits="userSpaceOnUse" color-interpolation-filters="sRGB">
<feFlood flood-opacity="0" result="BackgroundImageFix"/>
<feBlend mode="normal" in="SourceGraphic" in2="BackgroundImageFix" result="shape"/>
<feGaussianBlur stdDeviation="0.287052" result="effect1_foregroundBlur_2_2465"/>
</filter>
<filter id="filter2_f_2_2465" x="10.0676" y="0.923894" width="10.0141" height="7.87575" filterUnits="userSpaceOnUse" color-interpolation-filters="sRGB">
<feFlood flood-opacity="0" result="BackgroundImageFix"/>
<feBlend mode="normal" in="SourceGraphic" in2="BackgroundImageFix" result="shape"/>
<feGaussianBlur stdDeviation="0.600843" result="effect1_foregroundBlur_2_2465"/>
</filter>
<filter id="filter3_f_2_2465" x="2.62765" y="4.72418" width="9.9614" height="9.29838" filterUnits="userSpaceOnUse" color-interpolation-filters="sRGB">
<feFlood flood-opacity="0" result="BackgroundImageFix"/>
<feBlend mode="normal" in="SourceGraphic" in2="BackgroundImageFix" result="shape"/>
<feGaussianBlur stdDeviation="0.531618" result="effect1_foregroundBlur_2_2465"/>
</filter>
<filter id="filter4_f_2_2465" x="0.869862" y="6.61855" width="5.60787" height="5.9186" filterUnits="userSpaceOnUse" color-interpolation-filters="sRGB">
<feFlood flood-opacity="0" result="BackgroundImageFix"/>
<feBlend mode="normal" in="SourceGraphic" in2="BackgroundImageFix" result="shape"/>
<feGaussianBlur stdDeviation="0.234335" result="effect1_foregroundBlur_2_2465"/>
</filter>
<filter id="filter5_f_2_2465" x="4.17612" y="9.43448" width="6.11774" height="4.31726" filterUnits="userSpaceOnUse" color-interpolation-filters="sRGB">
<feFlood flood-opacity="0" result="BackgroundImageFix"/>
<feBlend mode="normal" in="SourceGraphic" in2="BackgroundImageFix" result="shape"/>
<feGaussianBlur stdDeviation="0.371797" result="effect1_foregroundBlur_2_2465"/>
</filter>
<filter id="filter6_f_2_2465" x="7.75275" y="8.56522" width="9.66654" height="6.34851" filterUnits="userSpaceOnUse" color-interpolation-filters="sRGB">
<feFlood flood-opacity="0" result="BackgroundImageFix"/>
<feBlend mode="normal" in="SourceGraphic" in2="BackgroundImageFix" result="shape"/>
<feGaussianBlur stdDeviation="0.549118" result="effect1_foregroundBlur_2_2465"/>
</filter>
<filter id="filter7_f_2_2465" x="2.22203" y="5.49175" width="6.47043" height="7.02456" filterUnits="userSpaceOnUse" color-interpolation-filters="sRGB">
<feFlood flood-opacity="0" result="BackgroundImageFix"/>
<feBlend mode="normal" in="SourceGraphic" in2="BackgroundImageFix" result="shape"/>
<feGaussianBlur stdDeviation="0.492423" result="effect1_foregroundBlur_2_2465"/>
</filter>
<filter id="filter8_f_2_2465" x="4.74321" y="3.0085" width="9.25638" height="9.25638" filterUnits="userSpaceOnUse" color-interpolation-filters="sRGB">
<feFlood flood-opacity="0" result="BackgroundImageFix"/>
<feBlend mode="normal" in="SourceGraphic" in2="BackgroundImageFix" result="shape"/>
<feGaussianBlur stdDeviation="0.49955" result="effect1_foregroundBlur_2_2465"/>
</filter>
<filter id="filter9_f_2_2465" x="5.80687" y="2.99168" width="9.74329" height="6.94572" filterUnits="userSpaceOnUse" color-interpolation-filters="sRGB">
<feFlood flood-opacity="0" result="BackgroundImageFix"/>
<feBlend mode="normal" in="SourceGraphic" in2="BackgroundImageFix" result="shape"/>
<feGaussianBlur stdDeviation="0.680566" result="effect1_foregroundBlur_2_2465"/>
</filter>
<filter id="filter10_f_2_2465" x="2.8384" y="6.25667" width="3.68545" height="5.14092" filterUnits="userSpaceOnUse" color-interpolation-filters="sRGB">
<feFlood flood-opacity="0" result="BackgroundImageFix"/>
<feBlend mode="normal" in="SourceGraphic" in2="BackgroundImageFix" result="shape"/>
<feGaussianBlur stdDeviation="0.284933" result="effect1_foregroundBlur_2_2465"/>
</filter>
<filter id="filter11_f_2_2465" x="12.3118" y="1.03433" width="8.11159" height="9.29509" filterUnits="userSpaceOnUse" color-interpolation-filters="sRGB">
<feFlood flood-opacity="0" result="BackgroundImageFix"/>
<feBlend mode="normal" in="SourceGraphic" in2="BackgroundImageFix" result="shape"/>
<feGaussianBlur stdDeviation="0.591633" result="effect1_foregroundBlur_2_2465"/>
</filter>
<filter id="filter12_f_2_2465" x="12.3378" y="10.9825" width="9.62327" height="3.56163" filterUnits="userSpaceOnUse" color-interpolation-filters="sRGB">
<feFlood flood-opacity="0" result="BackgroundImageFix"/>
<feBlend mode="normal" in="SourceGraphic" in2="BackgroundImageFix" result="shape"/>
<feGaussianBlur stdDeviation="0.369373" result="effect1_foregroundBlur_2_2465"/>
</filter>
<filter id="filter13_f_2_2465" x="7.72771" y="3.24095" width="5.939" height="5.99756" filterUnits="userSpaceOnUse" color-interpolation-filters="sRGB">
<feFlood flood-opacity="0" result="BackgroundImageFix"/>
<feBlend mode="normal" in="SourceGraphic" in2="BackgroundImageFix" result="shape"/>
<feGaussianBlur stdDeviation="0.473198" result="effect1_foregroundBlur_2_2465"/>
</filter>
<filter id="filter14_f_2_2465" x="10.8142" y="4.63674" width="6.50028" height="7.39048" filterUnits="userSpaceOnUse" color-interpolation-filters="sRGB">
<feFlood flood-opacity="0" result="BackgroundImageFix"/>
<feBlend mode="normal" in="SourceGraphic" in2="BackgroundImageFix" result="shape"/>
<feGaussianBlur stdDeviation="0.598849" result="effect1_foregroundBlur_2_2465"/>
</filter>
<filter id="filter15_f_2_2465" x="0.292933" y="13.6783" width="22.0182" height="14.4603" filterUnits="userSpaceOnUse" color-interpolation-filters="sRGB">
<feFlood flood-opacity="0" result="BackgroundImageFix"/>
<feBlend mode="normal" in="SourceGraphic" in2="BackgroundImageFix" result="shape"/>
<feGaussianBlur stdDeviation="0.4462" result="effect1_foregroundBlur_2_2465"/>
</filter>
<filter id="filter16_f_2_2465" x="4.3896" y="18.9483" width="8.58006" height="8.58021" filterUnits="userSpaceOnUse" color-interpolation-filters="sRGB">
<feFlood flood-opacity="0" result="BackgroundImageFix"/>
<feBlend mode="normal" in="SourceGraphic" in2="BackgroundImageFix" result="shape"/>
<feGaussianBlur stdDeviation="0.162639" result="effect1_foregroundBlur_2_2465"/>
</filter>
<filter id="filter17_f_2_2465" x="15.0822" y="16.0254" width="6.56449" height="6.56423" filterUnits="userSpaceOnUse" color-interpolation-filters="sRGB">
<feFlood flood-opacity="0" result="BackgroundImageFix"/>
<feBlend mode="normal" in="SourceGraphic" in2="BackgroundImageFix" result="shape"/>
<feGaussianBlur stdDeviation="0.118845" result="effect1_foregroundBlur_2_2465"/>
</filter>
<filter id="filter18_f_2_2465" x="1.01417" y="14.9444" width="5.20615" height="5.2062" filterUnits="userSpaceOnUse" color-interpolation-filters="sRGB">
<feFlood flood-opacity="0" result="BackgroundImageFix"/>
<feBlend mode="normal" in="SourceGraphic" in2="BackgroundImageFix" result="shape"/>
<feGaussianBlur stdDeviation="0.0989466" result="effect1_foregroundBlur_2_2465"/>
</filter>
<filter id="filter19_f_2_2465" x="7.14717" y="14.4254" width="3.82427" height="3.82435" filterUnits="userSpaceOnUse" color-interpolation-filters="sRGB">
<feFlood flood-opacity="0" result="BackgroundImageFix"/>
<feBlend mode="normal" in="SourceGraphic" in2="BackgroundImageFix" result="shape"/>
<feGaussianBlur stdDeviation="0.0726837" result="effect1_foregroundBlur_2_2465"/>
</filter>
<radialGradient id="paint0_radial_2_2465" cx="0" cy="0" r="1" gradientUnits="userSpaceOnUse" gradientTransform="translate(8.71403 23.2825) rotate(22.1529) scale(4.16777)">
<stop stop-color="#A8FAFF" stop-opacity="0.76226"/>
<stop offset="0.49735" stop-color="#65F6FF" stop-opacity="0.49804"/>
<stop offset="1" stop-color="#008D9E"/>
</radialGradient>
<radialGradient id="paint1_radial_2_2465" cx="0" cy="0" r="1" gradientUnits="userSpaceOnUse" gradientTransform="translate(18.3748 19.347) rotate(45.3937) scale(3.04551)">
<stop stop-color="#A8FAFF" stop-opacity="0.76226"/>
<stop offset="0.49735" stop-color="#65F6FF" stop-opacity="0.49804"/>
<stop offset="1" stop-color="#008D9E"/>
</radialGradient>
<radialGradient id="paint2_radial_2_2465" cx="0" cy="0" r="1" gradientUnits="userSpaceOnUse" gradientTransform="translate(3.63794 17.5745) rotate(22.6552) scale(2.5356)">
<stop stop-color="#A8FAFF" stop-opacity="0.76226"/>
<stop offset="0.49735" stop-color="#65F6FF" stop-opacity="0.49804"/>
<stop offset="1" stop-color="#008D9E"/>
</radialGradient>
<radialGradient id="paint3_radial_2_2465" cx="0" cy="0" r="1" gradientUnits="userSpaceOnUse" gradientTransform="translate(9.07452 16.3574) rotate(22.6552) scale(1.86259)">
<stop stop-color="#A8FAFF" stop-opacity="0.76226"/>
<stop offset="0.49735" stop-color="#65F6FF" stop-opacity="0.49804"/>
<stop offset="1" stop-color="#008D9E"/>
</radialGradient>
</defs>
</svg>
