<svg width="30" height="24" viewBox="0 0 30 24" fill="none" xmlns="http://www.w3.org/2000/svg">
<g filter="url(#filter0_d_2_2470)">
<path d="M13.7723 5.50957C13.7723 7.47803 12.1766 9.07374 10.2082 9.07374C8.23977 9.07374 6.64401 7.47798 6.64401 5.50957C6.64401 3.54116 8.23977 1.9454 10.2082 1.9454C12.1766 1.9454 13.7723 3.54116 13.7723 5.50957V5.50957Z" fill="#FFCC00"/>
<path d="M10.3831 0.0352783C10.3831 0.0352783 9.70744 0.59734 10.0943 1.15444C10.3114 1.46712 9.16677 1.3921 9.66932 2.40258C9.76852 2.60204 10.7577 3.27091 10.4106 2.75669C10.0635 2.24247 11.7394 1.60366 10.5883 0.994348C9.97213 0.66823 10.6322 0.0605252 10.3831 0.0353108L10.3831 0.0352783Z" fill="#FFCC00"/>
<path d="M12.3811 0.459564C12.3811 0.459564 11.5444 0.728652 11.6953 1.38992C11.7799 1.76105 10.7461 1.26407 10.835 2.3891C10.8525 2.61117 11.5204 3.60103 11.3904 2.99439C11.2604 2.38774 13.0537 2.42096 12.2133 1.42585C11.7635 0.893262 12.6027 0.575953 12.3811 0.459564H12.3811Z" fill="#FFCC00"/>
<path d="M14.0699 1.59315C14.0699 1.59315 13.1931 1.53179 13.0872 2.20171C13.0278 2.5777 12.2529 1.73189 11.9171 2.80929C11.8508 3.02195 12.1026 4.18915 12.2076 3.57769C12.3125 2.96623 13.9648 3.66391 13.5547 2.42765C13.3353 1.766 14.2322 1.78354 14.0699 1.5931L14.0699 1.59315Z" fill="#FFCC00"/>
<path d="M15.2347 3.31793C15.2347 3.31793 14.4472 2.92778 14.0944 3.50711C13.8965 3.83225 13.5015 2.75535 12.7811 3.62408C12.6389 3.79556 12.428 4.97083 12.7576 4.44526C13.0872 3.91968 14.35 5.19322 14.4409 3.89391C14.4895 3.19848 15.3124 3.55583 15.2347 3.31791L15.2347 3.31793Z" fill="#FFCC00"/>
<path d="M15.6566 5.38419C15.6566 5.38419 15.0801 4.72085 14.5315 5.11963C14.2236 5.34345 14.2738 4.1975 13.2745 4.72178C13.0772 4.82527 12.4299 5.82865 12.9365 5.47054C13.443 5.11244 14.118 6.77412 14.7023 5.61003C15.015 4.98697 15.6368 5.6337 15.6567 5.38419H15.6566Z" fill="#FFCC00"/>
<path d="M15.2571 7.43735C15.2571 7.43735 14.9778 6.60402 14.3184 6.76297C13.9484 6.85217 14.4327 5.81236 13.3088 5.91504C13.087 5.93531 12.1054 6.6152 12.7104 6.47785C13.3154 6.3405 13.3042 8.13396 14.2889 7.28144C14.8159 6.82515 15.1435 7.66039 15.2571 7.4374V7.43735Z" fill="#FFCC00"/>
<path d="M14.1064 9.17899C14.1064 9.17899 14.1659 8.3021 13.4957 8.19764C13.1196 8.13899 13.9638 7.36238 12.8857 7.02875C12.6729 6.96289 11.5062 7.21715 12.1179 7.32085C12.7296 7.42455 12.0353 9.07828 13.2707 8.66563C13.9319 8.44478 13.9162 9.34184 14.1064 9.179V9.17899Z" fill="#FFCC00"/>
<path d="M12.2763 10.392C12.2763 10.392 12.6818 9.61222 12.1095 9.24827C11.7883 9.04399 12.8727 8.67016 12.0183 7.93295C11.8496 7.78743 10.6787 7.55349 11.1977 7.89333C11.7167 8.23317 10.4187 9.4708 11.716 9.58709C12.4103 9.64934 12.0369 10.4651 12.2763 10.392L12.2763 10.392Z" fill="#FFCC00"/>
<path d="M10.2877 10.7742C10.2877 10.7742 10.9531 10.2 10.5563 9.64998C10.3336 9.34128 11.4793 9.3956 10.9586 8.39436C10.8558 8.19673 9.85479 7.54582 10.2111 8.0537C10.5673 8.56159 8.90328 9.23055 10.0653 9.81899C10.6872 10.1339 10.0383 10.7535 10.2877 10.7742V10.7742Z" fill="#FFCC00"/>
<path d="M8.31029 10.3971C8.31029 10.3971 9.1404 10.1084 8.97401 9.45088C8.88062 9.08186 9.92589 9.55431 9.81048 8.43169C9.7877 8.21009 9.09671 7.23627 9.24093 7.83969C9.38516 8.4431 7.59166 8.45222 8.45531 9.42721C8.91754 9.94904 8.08606 10.286 8.31033 10.3972L8.31029 10.3971Z" fill="#FFCC00"/>
<path d="M6.64682 9.35208C6.64682 9.35208 7.52521 9.38115 7.60642 8.70777C7.65199 8.32986 8.45739 9.14658 8.75342 8.05758C8.81185 7.84262 8.5173 6.68548 8.43486 7.30035C8.35243 7.91523 6.67566 7.27881 7.13087 8.49914C7.37452 9.15228 6.4775 9.16772 6.64679 9.35208H6.64682Z" fill="#FFCC00"/>
<path d="M8.29159 0.41897C8.29159 0.41897 7.88708 1.19921 8.45984 1.56251C8.7813 1.76638 7.69733 2.1416 8.55273 2.87773C8.72158 3.02303 9.89279 3.25549 9.37335 2.91631C8.8539 2.57713 10.1504 1.33786 8.85296 1.2232C8.15856 1.16184 8.53091 0.345562 8.2916 0.419007L8.29159 0.41897Z" fill="#FFCC00"/>
<path d="M6.52612 1.57115C6.52612 1.57115 6.45312 2.44701 7.12158 2.56181C7.49675 2.62624 6.64073 3.38977 7.71358 3.73992C7.92535 3.80903 9.09579 3.57275 8.48578 3.45965C7.87577 3.34656 8.59533 1.70372 7.35375 2.09733C6.68924 2.30799 6.71871 1.4113 6.52607 1.57114L6.52612 1.57115Z" fill="#FFCC00"/>
<path d="M5.30984 3.38902C5.30984 3.38902 5.59216 4.22133 6.25097 4.06003C6.6207 3.96951 6.14017 5.01107 7.26366 4.90436C7.48542 4.8833 8.46455 4.19986 7.86006 4.3394C7.25557 4.47895 7.26029 2.68545 6.27866 3.54147C5.75327 3.99965 5.42273 3.16559 5.30984 3.38899V3.38902Z" fill="#FFCC00"/>
<path d="M4.91735 5.46186C4.91735 5.46186 5.49855 6.12118 6.04433 5.71852C6.35065 5.49254 6.30848 6.63882 7.30411 6.10753C7.50065 6.00266 8.14091 4.99478 7.63684 5.35643C7.13276 5.71809 6.44619 4.06119 5.8701 5.22935C5.56177 5.85456 4.93538 5.21223 4.91733 5.46188L4.91735 5.46186Z" fill="#FFCC00"/>
<path d="M5.32248 7.45142C5.32248 7.45142 6.10688 7.84786 6.46419 7.27137C6.66473 6.94782 7.05109 8.02785 7.77838 7.16491C7.92194 6.99457 8.14229 5.82101 7.80849 6.34396C7.47469 6.86692 6.22209 5.58327 6.12085 6.88184C6.06666 7.57685 5.24658 7.21293 5.32246 7.45143L5.32248 7.45142Z" fill="#FFCC00"/>
</g>
<g filter="url(#filter1_d_2_2470)">
<path d="M10.3053 0C10.3053 0 9.6296 0.561009 10.0164 1.11815C10.2003 1.38288 9.40739 1.37076 9.46503 1.97373C9.41283 1.9836 9.36105 1.99444 9.30967 2.00655C9.42072 1.61872 9.45582 1.24851 8.77358 1.18816C8.07917 1.12679 8.45272 0.309542 8.21342 0.382924C8.21342 0.382924 7.80913 1.16407 8.3819 1.52733C8.64686 1.69538 7.95666 1.98091 8.18497 2.48794C8.14876 2.51157 8.11303 2.53526 8.07776 2.56015C8.02679 2.18165 7.89904 1.86334 7.27469 2.06125C6.61017 2.27192 6.64018 1.37624 6.44761 1.5361C6.44761 1.5361 6.37432 2.41255 7.04279 2.52731C7.34236 2.57875 6.85749 3.07414 7.19596 3.45074C7.16384 3.49722 7.13398 3.54492 7.10405 3.59296C6.91158 3.29346 6.66813 3.0975 6.20037 3.50544C5.67497 3.96362 5.34388 3.13105 5.23101 3.35446C5.23101 3.35446 5.51311 4.18532 6.17194 4.02403C6.45592 3.9545 6.24085 4.55255 6.63364 4.7855C6.62661 4.82146 6.6199 4.85857 6.61395 4.89491C6.33562 4.7161 6.05145 4.66696 5.79121 5.19468C5.48288 5.8199 4.85749 5.17697 4.83936 5.42662C4.83936 5.42662 5.42043 6.08528 5.96626 5.68263C6.19395 5.51466 6.22826 6.10533 6.64021 6.20121C6.64402 6.2196 6.64924 6.23763 6.65334 6.25591C6.34635 6.20662 6.08663 6.28518 6.04284 6.84671C5.98865 7.54172 5.16829 7.1771 5.24419 7.41563C5.24419 7.41563 6.02905 7.8127 6.38636 7.2362C6.53208 7.00111 6.77486 7.50497 7.17626 7.46814C7.22494 7.54006 7.27796 7.61016 7.33162 7.6782C7.04644 7.76588 6.86242 7.9509 7.05373 8.46376C7.29738 9.11691 6.39866 9.13278 6.56796 9.31717C6.56796 9.31717 7.44735 9.34505 7.52857 8.67166C7.56146 8.39894 7.99086 8.74934 8.33814 8.5557C8.34238 8.55816 8.34703 8.55981 8.35127 8.56226C8.11946 8.74622 8.01663 8.98412 8.37753 9.39158C8.83976 9.91341 8.00665 10.2497 8.23092 10.3609C8.23092 10.3609 9.06248 10.0732 8.89611 9.41566C8.82779 9.14567 9.36802 9.32551 9.61816 9.00211C9.63417 9.00441 9.65023 9.0044 9.6663 9.00649C9.51037 9.26765 9.49308 9.53268 9.98796 9.78329C10.6099 10.0982 9.95952 10.7188 10.209 10.7395C10.209 10.7395 10.8749 10.1648 10.4781 9.61482C10.3105 9.38254 10.9164 9.35548 11.0054 8.92994C11.0232 8.92547 11.0403 8.91937 11.058 8.91462C10.9979 9.23028 11.0637 9.49991 11.6378 9.55138C12.3321 9.61362 11.9586 10.4297 12.198 10.3566C12.198 10.3566 12.604 9.57623 12.0317 9.2122C11.7807 9.0526 12.3869 8.79157 12.2571 8.3326C12.3042 8.29748 12.3518 8.26274 12.3971 8.22539C12.4621 8.56478 12.6155 8.82256 13.1914 8.63019C13.8526 8.40933 13.8372 9.30721 14.0273 9.1444C14.0273 9.1444 14.087 8.26642 13.4168 8.16195C13.1121 8.11444 13.6067 7.59808 13.233 7.22543C13.2515 7.19266 13.2702 7.16036 13.2877 7.12696C13.4822 7.44438 13.7257 7.66753 14.2111 7.24732C14.7382 6.79102 15.0646 7.62567 15.1783 7.40268C15.1783 7.40268 14.8989 6.56979 14.2396 6.72873C13.9307 6.80319 14.217 6.09025 13.6663 5.91257C13.6715 5.86976 13.6757 5.82675 13.6794 5.78347C13.9946 6.0232 14.3222 6.17827 14.6247 5.57559C14.9374 4.95255 15.5589 5.59973 15.5787 5.35021C15.5787 5.35021 15.0026 4.68664 14.454 5.08545C14.1912 5.2765 14.1887 4.47026 13.5722 4.55592C13.5586 4.50487 13.5464 4.45287 13.5306 4.40275C13.9287 4.5115 14.3134 4.55456 14.3621 3.85791C14.4108 3.16249 15.2342 3.52034 15.1564 3.28243C15.1564 3.28243 14.3691 2.89346 14.0164 3.4728C13.8455 3.75359 13.5267 2.98935 12.9793 3.33494C12.9484 3.29389 12.9178 3.25425 12.8852 3.21459C13.3053 3.16498 13.7008 3.06966 13.476 2.39186C13.2565 1.73018 14.1548 1.74863 13.9924 1.55819C13.9924 1.55819 13.1158 1.49656 13.0099 2.16649C12.9585 2.49221 12.3694 1.90136 11.9946 2.43782C11.9602 2.41665 11.9248 2.39439 11.8896 2.37437C12.2621 2.17179 12.5964 1.9364 12.1347 1.38974C11.6849 0.857147 12.5248 0.541166 12.3032 0.424792C12.3032 0.424792 11.4652 0.693474 11.6161 1.35473C11.6889 1.67403 10.9359 1.35185 10.7802 1.97179C10.7408 1.96451 10.7019 1.95587 10.662 1.9499C10.9266 1.62703 11.1346 1.28872 10.5111 0.958697C9.89492 0.632577 10.5544 0.025537 10.3054 0.000259627L10.3053 0Z" fill="url(#paint0_radial_2_2470)"/>
</g>
<g opacity="0.18107" filter="url(#filter2_d_2_2470)">
<path d="M7.33022 7.67753C7.04503 7.76521 6.86101 7.95022 7.05232 8.46309C7.29597 9.11623 6.39726 9.1321 6.56656 9.31649C6.56656 9.31649 7.44594 9.34437 7.52716 8.67099C7.56005 8.39826 7.98946 8.74866 8.33673 8.55502C8.34097 8.55749 8.34562 8.55913 8.34986 8.56158C8.11805 8.74554 8.01522 8.98345 8.37612 9.3909C8.83835 9.91273 8.00524 10.2491 8.22951 10.3603C8.22951 10.3603 9.06107 10.0725 8.8947 9.41499C8.82638 9.14499 9.3666 9.32484 9.61675 9.00144C9.63275 9.00374 9.64882 9.00372 9.66489 9.00581C9.50895 9.26697 9.49167 9.532 9.98655 9.78261C10.6085 10.0975 9.95811 10.7181 10.2075 10.7388C10.2075 10.7388 10.8735 10.1642 10.4767 9.61414C10.3091 9.38187 10.9149 9.3548 11.004 8.92927C11.0217 8.92479 11.0389 8.91869 11.0565 8.91395C10.9965 9.22961 11.0623 9.49923 11.6364 9.5507C12.3307 9.61294 11.9572 10.429 12.1965 10.3559C12.1965 10.3559 12.6026 9.57555 12.0302 9.21152C11.7793 9.05192 12.3855 8.7909 12.2556 8.33193C12.3027 8.29681 12.3504 8.26206 12.3957 8.22471C12.4607 8.5641 12.6141 8.82188 13.19 8.62951C13.8512 8.40866 13.8357 9.30653 14.0259 9.14373C14.0259 9.14373 14.0855 8.26575 13.4154 8.16128C13.1107 8.11377 13.6053 7.59741 13.2316 7.22476C13.2501 7.192 13.2688 7.15969 13.2863 7.1263C13.4808 7.44371 13.7243 7.66686 14.2097 7.24665C14.7367 6.79035 15.0632 7.625 15.1768 7.40201C15.1768 7.40201 14.8975 6.56912 14.2381 6.72806C13.9292 6.80252 14.2155 6.08959 13.6648 5.91191C13.6701 5.86909 13.6743 5.82609 13.678 5.78281C13.9931 6.02254 14.3208 6.1776 14.6232 5.57493C14.936 4.95189 15.5575 5.59907 15.5773 5.34955C15.5773 5.34955 15.0012 4.68598 14.4526 5.08479C14.1898 5.27584 14.1872 4.4696 13.5708 4.55527C13.5572 4.50422 13.545 4.45222 13.5292 4.4021C13.9273 4.51085 14.312 4.55391 14.3607 3.85726C14.4093 3.16184 15.2328 3.51969 15.155 3.28178C15.155 3.28178 14.3677 2.89281 14.015 3.47215C13.8441 3.75294 13.5253 2.9887 12.9779 3.33429C12.947 3.29323 12.9164 3.2536 12.8838 3.21394C13.3039 3.16433 13.6994 3.06901 13.4746 2.39121C13.2551 1.72954 14.1534 1.74799 13.991 1.55755C13.991 1.55755 13.1144 1.49591 13.0085 2.16585C12.957 2.49156 12.368 1.90071 11.9932 2.43718C11.7327 7.04134 8.38579 4.93297 7.33031 7.67775L7.33022 7.67753Z" fill="white"/>
</g>
<g filter="url(#filter3_d_2_2470)">
<path d="M23.1224 8.31086C23.1224 11.2328 20.7537 13.6015 17.8317 13.6015C14.9098 13.6015 12.5411 11.2328 12.5411 8.31086C12.5411 5.38889 14.9098 3.0202 17.8317 3.0202C20.7537 3.0202 23.1224 5.38889 23.1224 8.31086V8.31086Z" fill="#ECECEC"/>
<path d="M21.3075 10.3184C21.3075 13.2404 18.4963 15.6091 15.0285 15.6091C11.5607 15.6091 8.74957 13.2404 8.74957 10.3184C8.74957 7.39643 11.5607 5.02774 15.0285 5.02774C18.4963 5.02774 21.3075 7.39643 21.3075 10.3184V10.3184Z" fill="#ECECEC"/>
<path d="M16.621 9.52226C16.621 11.9866 14.6233 13.9843 12.159 13.9843C9.69466 13.9843 7.69696 11.9866 7.69696 9.52226C7.69696 7.05794 9.69466 5.06024 12.159 5.06024C14.6233 5.06024 16.621 7.05794 16.621 9.52226V9.52226Z" fill="#ECECEC"/>
<path d="M14.8826 10.7651C14.8826 13.0006 12.9029 14.8128 10.4608 14.8128C8.01866 14.8128 6.03897 13.0006 6.03897 10.7651C6.03897 8.52966 8.01866 6.71747 10.4608 6.71747C12.9029 6.71747 14.8826 8.52966 14.8826 10.7651V10.7651Z" fill="#ECECEC"/>
<path d="M9.48195 10.9245C9.48195 12.4383 8.25478 13.6655 6.74097 13.6655C5.22717 13.6655 4 12.4383 4 10.9245C4 9.41067 5.22717 8.1835 6.74097 8.1835C8.25478 8.1835 9.48195 9.41067 9.48195 10.9245V10.9245Z" fill="#ECECEC"/>
<path d="M25.6406 10.9243C25.6406 12.9134 24.0281 14.5258 22.0391 14.5258C20.05 14.5258 18.4376 12.9134 18.4376 10.9243C18.4376 8.93528 20.05 7.32285 22.0391 7.32285C24.0281 7.32285 25.6406 8.93528 25.6406 10.9243V10.9243Z" fill="#ECECEC"/>
<path d="M23.6326 10.1917C23.6326 12.1807 22.0202 13.7932 20.0312 13.7932C18.0421 13.7932 16.4297 12.1807 16.4297 10.1917C16.4297 8.20261 18.0421 6.59018 20.0312 6.59018C22.0202 6.59018 23.6326 8.20261 23.6326 10.1917V10.1917Z" fill="#ECECEC"/>
<g filter="url(#filter4_f_2_2470)">
<path d="M25.1468 9.68107C25.6249 10.9207 25.7803 12.5023 24.5566 12.5023C23.3329 12.5023 20.5562 11.351 20.5562 10.1273C20.5562 8.90358 21.5482 7.91159 22.7719 7.91159C23.9956 7.91159 24.6688 8.44144 25.1469 9.68107H25.1468Z" fill="#F8F8F8"/>
</g>
<g filter="url(#filter5_f_2_2470)">
<path d="M21.7325 7.32289C21.7325 9.42454 19.6006 8.94217 17.499 8.94217C15.3974 8.94217 14.1219 9.42452 14.1219 7.32289C14.1219 5.22127 15.8256 3.51755 17.9272 3.51755C20.0289 3.51755 21.7326 5.22125 21.7326 7.32289H21.7325Z" fill="#D1D1D1"/>
</g>
<g filter="url(#filter6_f_2_2470)">
<path d="M14.3784 10.7653C14.3784 12.7458 12.6245 14.3513 10.461 14.3513C8.29738 14.3513 6.54349 12.7458 6.54349 10.7653C6.54349 8.78486 8.29738 7.17938 10.461 7.17938C12.6245 7.17938 14.3784 8.78486 14.3784 10.7653V10.7653Z" fill="#CCCCCC"/>
</g>
<g filter="url(#filter7_f_2_2470)">
<path d="M8.86166 10.9698C8.86166 12.3454 7.81613 13.4605 6.52639 13.4605C5.23666 13.4605 4.19113 12.3454 4.19113 10.9698C4.19113 9.59428 5.23666 8.47919 6.52639 8.47919C7.81613 8.47919 8.86166 9.59428 8.86166 10.9698V10.9698Z" fill="#CFCFCF"/>
</g>
<g opacity="0.86831" filter="url(#filter8_f_2_2470)">
<path d="M12.4028 12.5385C12.4028 13.8389 11.4078 14.4001 10.1073 14.4001C8.8068 14.4001 7.77228 14.2531 7.77228 12.9526C7.77228 11.6522 8.60958 11.6235 9.91006 11.6235C11.2105 11.6235 12.4028 11.238 12.4028 12.5385Z" fill="#BDBDBD"/>
</g>
<g opacity="0.81481" filter="url(#filter9_f_2_2470)">
<path d="M19.1736 12.4579C19.1736 14.3786 17.0729 15.2074 15.1522 15.2074C13.2316 15.2074 11.7036 14.9903 11.7036 13.0696C11.7036 11.1489 12.7214 10.2159 13.351 12.0305C14.0548 14.0588 15.8382 13.3768 19.1736 12.4579L19.1736 12.4579Z" fill="#BDBDBD"/>
</g>
<g filter="url(#filter10_f_2_2470)">
<path d="M10.5602 10.396C10.5602 11.7919 9.5527 12.9234 8.30985 12.9234C7.06699 12.9234 6.05948 11.7919 6.05948 10.396C6.05948 9.00012 7.06699 7.86856 8.30985 7.86856C9.5527 7.86856 10.5602 9.00012 10.5602 10.396V10.396Z" fill="#E9E9E9"/>
</g>
<g filter="url(#filter11_f_2_2470)">
<path d="M15.8531 9.02866C15.8531 11.033 14.2283 12.6577 12.224 12.6577C10.2197 12.6577 8.59491 11.033 8.59491 9.02866C8.59491 7.02435 10.2197 5.39957 12.224 5.39957C14.2283 5.39957 15.8531 7.02435 15.8531 9.02866V9.02866Z" fill="#C4C4C4"/>
</g>
<g filter="url(#filter12_f_2_2470)">
<path d="M17.0416 7.85651C17.0416 9.02277 15.4699 9.96823 13.5311 9.96823C11.5923 9.96823 10.0206 9.02277 10.0206 7.85651C10.0206 6.69025 11.5923 5.74478 13.5311 5.74478C15.4699 5.74478 17.0416 6.69025 17.0416 7.85651V7.85651Z" fill="#E7E7E7"/>
</g>
<g opacity="0.81893" filter="url(#filter13_f_2_2470)">
<path d="M6.98167 9.10046C7.21377 9.53238 7.32492 9.95779 7.33265 10.7445C7.34468 11.9689 7.6891 12.1592 7.97394 12.2166C8.27145 12.2766 8.87223 11.4401 8.80072 10.9404C8.52765 9.39799 8.09975 7.80523 6.26086 8.31568C6.26086 8.31568 6.74955 8.66847 6.98165 9.1004L6.98167 9.10046Z" fill="white"/>
</g>
<g opacity="0.93827" filter="url(#filter14_f_2_2470)">
<path d="M22.0927 7.48574C22.0927 9.13421 20.7461 10.5381 19.2891 10.5381C17.8321 10.5381 20.154 6.73863 16.8454 5.19282C15.3519 4.49504 17.5598 3.39988 18.9961 3.64451C20.8674 3.96323 22.0927 5.83724 22.0927 7.48566V7.48574Z" fill="#FCFCFC"/>
</g>
<g opacity="0.97062" filter="url(#filter15_f_2_2470)">
<path d="M24.0749 13.5039C24.0749 14.7959 20.3363 14.0001 19.7434 13.6407C19.1957 13.777 15.1925 16.3342 16.0487 14.5915C16.6185 13.4319 19.0548 13.8615 19.5472 13.1132C20.5806 13.7622 20.8518 13.6317 22.8576 13.6392L24.0746 13.5039L24.0749 13.5039Z" fill="#BDBDBD"/>
</g>
<g opacity="0.92181" filter="url(#filter16_f_2_2470)">
<path d="M12.5586 6.57601C12.8909 7.06801 13.05 7.55259 13.061 8.44877C13.0783 9.84345 13.1657 9.60955 13.5735 9.67501C13.9994 9.74329 15.6707 9.42149 15.5684 8.85231C15.1775 7.09533 14.1592 5.10069 11.5267 5.68225C11.5267 5.68225 12.2263 6.08412 12.5586 6.57612L12.5586 6.57601Z" fill="white"/>
</g>
<g opacity="0.72428" filter="url(#filter17_f_2_2470)">
<path d="M18.1169 8.30679C18.9521 9.28507 19.2651 11.7168 18.6383 12.2215C18.1098 10.6647 17.4892 9.56224 15.5547 9.25154C14.4645 9.07646 14.8228 7.80569 15.55 7.43577C16.4975 6.95386 17.2816 7.3285 18.1168 8.30678L18.1169 8.30679Z" fill="#FCFCFC"/>
</g>
</g>
<defs>
<filter id="filter0_d_2_2470" x="0.917328" y="0.0352783" width="18.7393" height="18.7389" filterUnits="userSpaceOnUse" color-interpolation-filters="sRGB">
<feFlood flood-opacity="0" result="BackgroundImageFix"/>
<feColorMatrix in="SourceAlpha" type="matrix" values="0 0 0 0 0 0 0 0 0 0 0 0 0 0 0 0 0 0 127 0" result="hardAlpha"/>
<feOffset dy="4"/>
<feGaussianBlur stdDeviation="2"/>
<feComposite in2="hardAlpha" operator="out"/>
<feColorMatrix type="matrix" values="0 0 0 0 0 0 0 0 0 0 0 0 0 0 0 0 0 0 0.25 0"/>
<feBlend mode="normal" in2="BackgroundImageFix" result="effect1_dropShadow_2_2470"/>
<feBlend mode="normal" in="SourceGraphic" in2="effect1_dropShadow_2_2470" result="shape"/>
</filter>
<filter id="filter1_d_2_2470" x="0.839355" y="0" width="18.7393" height="18.7395" filterUnits="userSpaceOnUse" color-interpolation-filters="sRGB">
<feFlood flood-opacity="0" result="BackgroundImageFix"/>
<feColorMatrix in="SourceAlpha" type="matrix" values="0 0 0 0 0 0 0 0 0 0 0 0 0 0 0 0 0 0 127 0" result="hardAlpha"/>
<feOffset dy="4"/>
<feGaussianBlur stdDeviation="2"/>
<feComposite in2="hardAlpha" operator="out"/>
<feColorMatrix type="matrix" values="0 0 0 0 0 0 0 0 0 0 0 0 0 0 0 0 0 0 0.25 0"/>
<feBlend mode="normal" in2="BackgroundImageFix" result="effect1_dropShadow_2_2470"/>
<feBlend mode="normal" in="SourceGraphic" in2="effect1_dropShadow_2_2470" result="shape"/>
</filter>
<filter id="filter2_d_2_2470" x="2.54517" y="1.55606" width="17.0321" height="17.1827" filterUnits="userSpaceOnUse" color-interpolation-filters="sRGB">
<feFlood flood-opacity="0" result="BackgroundImageFix"/>
<feColorMatrix in="SourceAlpha" type="matrix" values="0 0 0 0 0 0 0 0 0 0 0 0 0 0 0 0 0 0 127 0" result="hardAlpha"/>
<feOffset dy="4"/>
<feGaussianBlur stdDeviation="2"/>
<feComposite in2="hardAlpha" operator="out"/>
<feColorMatrix type="matrix" values="0 0 0 0 0 0 0 0 0 0 0 0 0 0 0 0 0 0 0.25 0"/>
<feBlend mode="normal" in2="BackgroundImageFix" result="effect1_dropShadow_2_2470"/>
<feBlend mode="normal" in="SourceGraphic" in2="effect1_dropShadow_2_2470" result="shape"/>
</filter>
<filter id="filter3_d_2_2470" x="0" y="3.0202" width="29.6406" height="20.5888" filterUnits="userSpaceOnUse" color-interpolation-filters="sRGB">
<feFlood flood-opacity="0" result="BackgroundImageFix"/>
<feColorMatrix in="SourceAlpha" type="matrix" values="0 0 0 0 0 0 0 0 0 0 0 0 0 0 0 0 0 0 127 0" result="hardAlpha"/>
<feOffset dy="4"/>
<feGaussianBlur stdDeviation="2"/>
<feComposite in2="hardAlpha" operator="out"/>
<feColorMatrix type="matrix" values="0 0 0 0 0 0 0 0 0 0 0 0 0 0 0 0 0 0 0.25 0"/>
<feBlend mode="normal" in2="BackgroundImageFix" result="effect1_dropShadow_2_2470"/>
<feBlend mode="normal" in="SourceGraphic" in2="effect1_dropShadow_2_2470" result="shape"/>
</filter>
<filter id="filter4_f_2_2470" x="19.9821" y="7.33749" width="6.09261" height="5.73894" filterUnits="userSpaceOnUse" color-interpolation-filters="sRGB">
<feFlood flood-opacity="0" result="BackgroundImageFix"/>
<feBlend mode="normal" in="SourceGraphic" in2="BackgroundImageFix" result="shape"/>
<feGaussianBlur stdDeviation="0.287052" result="effect1_foregroundBlur_2_2470"/>
</filter>
<filter id="filter5_f_2_2470" x="12.9202" y="2.31586" width="10.0141" height="7.87575" filterUnits="userSpaceOnUse" color-interpolation-filters="sRGB">
<feFlood flood-opacity="0" result="BackgroundImageFix"/>
<feBlend mode="normal" in="SourceGraphic" in2="BackgroundImageFix" result="shape"/>
<feGaussianBlur stdDeviation="0.600843" result="effect1_foregroundBlur_2_2470"/>
</filter>
<filter id="filter6_f_2_2470" x="5.48025" y="6.11615" width="9.9614" height="9.29838" filterUnits="userSpaceOnUse" color-interpolation-filters="sRGB">
<feFlood flood-opacity="0" result="BackgroundImageFix"/>
<feBlend mode="normal" in="SourceGraphic" in2="BackgroundImageFix" result="shape"/>
<feGaussianBlur stdDeviation="0.531618" result="effect1_foregroundBlur_2_2470"/>
</filter>
<filter id="filter7_f_2_2470" x="3.72246" y="8.01052" width="5.60787" height="5.9186" filterUnits="userSpaceOnUse" color-interpolation-filters="sRGB">
<feFlood flood-opacity="0" result="BackgroundImageFix"/>
<feBlend mode="normal" in="SourceGraphic" in2="BackgroundImageFix" result="shape"/>
<feGaussianBlur stdDeviation="0.234335" result="effect1_foregroundBlur_2_2470"/>
</filter>
<filter id="filter8_f_2_2470" x="7.02868" y="10.8265" width="6.11774" height="4.31726" filterUnits="userSpaceOnUse" color-interpolation-filters="sRGB">
<feFlood flood-opacity="0" result="BackgroundImageFix"/>
<feBlend mode="normal" in="SourceGraphic" in2="BackgroundImageFix" result="shape"/>
<feGaussianBlur stdDeviation="0.371797" result="effect1_foregroundBlur_2_2470"/>
</filter>
<filter id="filter9_f_2_2470" x="10.6053" y="9.95718" width="9.66654" height="6.34851" filterUnits="userSpaceOnUse" color-interpolation-filters="sRGB">
<feFlood flood-opacity="0" result="BackgroundImageFix"/>
<feBlend mode="normal" in="SourceGraphic" in2="BackgroundImageFix" result="shape"/>
<feGaussianBlur stdDeviation="0.549118" result="effect1_foregroundBlur_2_2470"/>
</filter>
<filter id="filter10_f_2_2470" x="5.07463" y="6.88371" width="6.47043" height="7.02456" filterUnits="userSpaceOnUse" color-interpolation-filters="sRGB">
<feFlood flood-opacity="0" result="BackgroundImageFix"/>
<feBlend mode="normal" in="SourceGraphic" in2="BackgroundImageFix" result="shape"/>
<feGaussianBlur stdDeviation="0.492423" result="effect1_foregroundBlur_2_2470"/>
</filter>
<filter id="filter11_f_2_2470" x="7.59581" y="4.40047" width="9.25638" height="9.25638" filterUnits="userSpaceOnUse" color-interpolation-filters="sRGB">
<feFlood flood-opacity="0" result="BackgroundImageFix"/>
<feBlend mode="normal" in="SourceGraphic" in2="BackgroundImageFix" result="shape"/>
<feGaussianBlur stdDeviation="0.49955" result="effect1_foregroundBlur_2_2470"/>
</filter>
<filter id="filter12_f_2_2470" x="8.65944" y="4.38365" width="9.74329" height="6.94572" filterUnits="userSpaceOnUse" color-interpolation-filters="sRGB">
<feFlood flood-opacity="0" result="BackgroundImageFix"/>
<feBlend mode="normal" in="SourceGraphic" in2="BackgroundImageFix" result="shape"/>
<feGaussianBlur stdDeviation="0.680566" result="effect1_foregroundBlur_2_2470"/>
</filter>
<filter id="filter13_f_2_2470" x="5.691" y="7.64864" width="3.68545" height="5.14092" filterUnits="userSpaceOnUse" color-interpolation-filters="sRGB">
<feFlood flood-opacity="0" result="BackgroundImageFix"/>
<feBlend mode="normal" in="SourceGraphic" in2="BackgroundImageFix" result="shape"/>
<feGaussianBlur stdDeviation="0.284933" result="effect1_foregroundBlur_2_2470"/>
</filter>
<filter id="filter14_f_2_2470" x="15.1644" y="2.42629" width="8.11159" height="9.29509" filterUnits="userSpaceOnUse" color-interpolation-filters="sRGB">
<feFlood flood-opacity="0" result="BackgroundImageFix"/>
<feBlend mode="normal" in="SourceGraphic" in2="BackgroundImageFix" result="shape"/>
<feGaussianBlur stdDeviation="0.591633" result="effect1_foregroundBlur_2_2470"/>
</filter>
<filter id="filter15_f_2_2470" x="15.1904" y="12.3745" width="9.62327" height="3.56163" filterUnits="userSpaceOnUse" color-interpolation-filters="sRGB">
<feFlood flood-opacity="0" result="BackgroundImageFix"/>
<feBlend mode="normal" in="SourceGraphic" in2="BackgroundImageFix" result="shape"/>
<feGaussianBlur stdDeviation="0.369373" result="effect1_foregroundBlur_2_2470"/>
</filter>
<filter id="filter16_f_2_2470" x="10.5803" y="4.63292" width="5.939" height="5.99756" filterUnits="userSpaceOnUse" color-interpolation-filters="sRGB">
<feFlood flood-opacity="0" result="BackgroundImageFix"/>
<feBlend mode="normal" in="SourceGraphic" in2="BackgroundImageFix" result="shape"/>
<feGaussianBlur stdDeviation="0.473198" result="effect1_foregroundBlur_2_2470"/>
</filter>
<filter id="filter17_f_2_2470" x="13.6668" y="6.02871" width="6.50028" height="7.39048" filterUnits="userSpaceOnUse" color-interpolation-filters="sRGB">
<feFlood flood-opacity="0" result="BackgroundImageFix"/>
<feBlend mode="normal" in="SourceGraphic" in2="BackgroundImageFix" result="shape"/>
<feGaussianBlur stdDeviation="0.598849" result="effect1_foregroundBlur_2_2470"/>
</filter>
<radialGradient id="paint0_radial_2_2470" cx="0" cy="0" r="1" gradientUnits="userSpaceOnUse" gradientTransform="translate(7.33922 1.11682) scale(8.03693 8.03693)">
<stop stop-color="#FFA700"/>
<stop offset="1" stop-color="#FFA700" stop-opacity="0"/>
</radialGradient>
</defs>
</svg>
