<svg width="24" height="15" viewBox="0 0 24 15" fill="none" xmlns="http://www.w3.org/2000/svg">
<g filter="url(#filter0_f_1_1260)">
<path d="M20.212 6.14786C20.212 9.06983 17.8433 11.4385 14.9213 11.4385C11.9993 11.4385 9.63065 9.06983 9.63065 6.14786C9.63065 3.2259 11.9993 0.857208 14.9213 0.857208C17.8433 0.857208 20.212 3.2259 20.212 6.14786V6.14786Z" fill="#ECECEC"/>
<path d="M18.3971 8.1554C18.3971 11.0774 15.5859 13.4461 12.1181 13.4461C8.6503 13.4461 5.83914 11.0774 5.83914 8.1554C5.83914 5.23344 8.6503 2.86475 12.1181 2.86475C15.5859 2.86475 18.3971 5.23344 18.3971 8.1554V8.1554Z" fill="#ECECEC"/>
<path d="M13.7106 7.35923C13.7106 9.82355 11.7129 11.8213 9.24854 11.8213C6.78423 11.8213 4.78653 9.82355 4.78653 7.35923C4.78653 4.89492 6.78423 2.89722 9.24854 2.89722C11.7129 2.89722 13.7106 4.89492 13.7106 7.35923V7.35923Z" fill="#ECECEC"/>
<path d="M11.9722 8.60214C11.9722 10.8376 9.99246 12.6498 7.55035 12.6498C5.10823 12.6498 3.12854 10.8376 3.12854 8.60214C3.12854 6.36666 5.10823 4.55447 7.55035 4.55447C9.99246 4.55447 11.9722 6.36666 11.9722 8.60214V8.60214Z" fill="#ECECEC"/>
<path d="M6.57152 8.76148C6.57152 10.2753 5.34435 11.5025 3.83054 11.5025C2.31674 11.5025 1.08957 10.2753 1.08957 8.76148C1.08957 7.24768 2.31674 6.02051 3.83054 6.02051C5.34435 6.02051 6.57152 7.24768 6.57152 8.76148V8.76148Z" fill="#ECECEC"/>
<path d="M22.7301 8.76135C22.7301 10.7504 21.1177 12.3628 19.1286 12.3628C17.1396 12.3628 15.5271 10.7504 15.5271 8.76135C15.5271 6.77228 17.1396 5.15985 19.1286 5.15985C21.1177 5.15985 22.7301 6.77228 22.7301 8.76135V8.76135Z" fill="#ECECEC"/>
<path d="M20.7222 8.02868C20.7222 10.0177 19.1098 11.6302 17.1207 11.6302C15.1317 11.6302 13.5192 10.0177 13.5192 8.02868C13.5192 6.03962 15.1317 4.42719 17.1207 4.42719C19.1098 4.42719 20.7222 6.03962 20.7222 8.02868V8.02868Z" fill="#ECECEC"/>
<g filter="url(#filter1_f_1_1260)">
<path d="M22.2364 7.51808C22.7145 8.75772 22.8698 10.3393 21.6462 10.3393C20.4225 10.3393 17.6458 9.18798 17.6458 7.96429C17.6458 6.74059 18.6377 5.7486 19.8614 5.7486C21.0851 5.7486 21.7584 6.27844 22.2365 7.51808H22.2364Z" fill="#F8F8F8"/>
</g>
<g filter="url(#filter2_f_1_1260)">
<path d="M18.8221 5.1599C18.8221 7.26155 16.6901 6.77918 14.5886 6.77918C12.487 6.77918 11.2114 7.26153 11.2114 5.1599C11.2114 3.05827 12.9151 1.35455 15.0168 1.35455C17.1184 1.35455 18.8221 3.05825 18.8221 5.1599H18.8221Z" fill="#D1D1D1"/>
</g>
<g filter="url(#filter3_f_1_1260)">
<path d="M11.468 8.60235C11.468 10.5828 9.71409 12.1883 7.55052 12.1883C5.38695 12.1883 3.63306 10.5828 3.63306 8.60235C3.63306 6.62186 5.38695 5.01639 7.55052 5.01639C9.71409 5.01639 11.468 6.62186 11.468 8.60235V8.60235Z" fill="#CCCCCC"/>
</g>
<g filter="url(#filter4_f_1_1260)">
<path d="M5.95123 8.80683C5.95123 10.1824 4.9057 11.2975 3.61596 11.2975C2.32623 11.2975 1.2807 10.1824 1.2807 8.80683C1.2807 7.43128 2.32623 6.31619 3.61596 6.31619C4.9057 6.31619 5.95123 7.43128 5.95123 8.80683V8.80683Z" fill="#CFCFCF"/>
</g>
<g opacity="0.86831" filter="url(#filter5_f_1_1260)">
<path d="M9.49243 10.3754C9.49243 11.6759 8.49736 12.2371 7.19688 12.2371C5.8964 12.2371 4.86188 12.0901 4.86188 10.7896C4.86188 9.48918 5.69918 9.46045 6.99966 9.46045C8.30014 9.46045 9.49243 9.075 9.49243 10.3754Z" fill="#BDBDBD"/>
</g>
<g opacity="0.81481" filter="url(#filter6_f_1_1260)">
<path d="M16.2632 10.2949C16.2632 12.2156 14.1625 13.0444 12.2418 13.0444C10.3211 13.0444 8.79315 12.8273 8.79315 10.9066C8.79315 8.9859 9.81097 8.0529 10.4406 9.8675C11.1443 11.8958 12.9278 11.2138 16.2632 10.2949L16.2632 10.2949Z" fill="#BDBDBD"/>
</g>
<g filter="url(#filter7_f_1_1260)">
<path d="M7.64978 8.233C7.64978 9.62887 6.64227 10.7604 5.39942 10.7604C4.15656 10.7604 3.14905 9.62887 3.14905 8.233C3.14905 6.83713 4.15656 5.70557 5.39942 5.70557C6.64227 5.70557 7.64978 6.83713 7.64978 8.233V8.233Z" fill="#E9E9E9"/>
</g>
<g filter="url(#filter8_f_1_1260)">
<path d="M12.9427 6.86566C12.9427 8.86997 11.3179 10.4948 9.31357 10.4948C7.30926 10.4948 5.68448 8.86997 5.68448 6.86566C5.68448 4.86136 7.30926 3.23657 9.31357 3.23657C11.3179 3.23657 12.9427 4.86136 12.9427 6.86566V6.86566Z" fill="#C4C4C4"/>
</g>
<g filter="url(#filter9_f_1_1260)">
<path d="M14.1312 5.69351C14.1312 6.85977 12.5595 7.80524 10.6207 7.80524C8.68186 7.80524 7.11017 6.85977 7.11017 5.69351C7.11017 4.52725 8.68186 3.58179 10.6207 3.58179C12.5595 3.58179 14.1312 4.52725 14.1312 5.69351V5.69351Z" fill="#E7E7E7"/>
</g>
<g opacity="0.81893" filter="url(#filter10_f_1_1260)">
<path d="M4.07124 6.93746C4.30334 7.36939 4.41449 7.79479 4.42221 8.58153C4.43425 9.80591 4.77867 9.99625 5.06351 10.0536C5.36102 10.1136 5.9618 9.27712 5.89029 8.77742C5.61722 7.23499 5.18932 5.64223 3.35043 6.15269C3.35043 6.15269 3.83912 6.50548 4.07122 6.9374L4.07124 6.93746Z" fill="white"/>
</g>
<g opacity="0.93827" filter="url(#filter11_f_1_1260)">
<path d="M19.1823 5.32275C19.1823 6.97121 17.8357 8.37512 16.3787 8.37512C14.9217 8.37512 17.2436 4.57564 13.935 3.02982C12.4415 2.33205 14.6494 1.23688 16.0857 1.48152C17.957 1.80023 19.1823 3.67424 19.1823 5.32266V5.32275Z" fill="#FCFCFC"/>
</g>
<g opacity="0.97062" filter="url(#filter12_f_1_1260)">
<path d="M21.1645 11.341C21.1645 12.633 17.4258 11.8372 16.833 11.4777C16.2853 11.6141 12.2821 14.1712 13.1383 12.4285C13.7081 11.269 16.1444 11.6985 16.6368 10.9502C17.6701 11.5992 17.9414 11.4687 19.9472 11.4762L21.1641 11.341L21.1645 11.341Z" fill="#BDBDBD"/>
</g>
<g opacity="0.92181" filter="url(#filter13_f_1_1260)">
<path d="M9.64816 4.41301C9.98042 4.90502 10.1395 5.3896 10.1506 6.28577C10.1678 7.68046 10.2553 7.44655 10.6631 7.51202C11.089 7.5803 12.7603 7.25849 12.658 6.68931C12.267 4.93234 11.2488 2.9377 8.61627 3.51926C8.61627 3.51926 9.31588 3.92112 9.64814 4.41313L9.64816 4.41301Z" fill="white"/>
</g>
<g opacity="0.72428" filter="url(#filter14_f_1_1260)">
<path d="M15.2065 6.14379C16.0417 7.12207 16.3547 9.55377 15.7278 10.0585C15.1994 8.50172 14.5787 7.39924 12.6443 7.08855C11.554 6.91346 11.9123 5.64269 12.6396 5.27278C13.5871 4.79086 14.3712 5.16551 15.2064 6.14378L15.2065 6.14379Z" fill="#FCFCFC"/>
</g>
</g>
<defs>
<filter id="filter0_f_1_1260" x="0.911089" y="0.678728" width="21.9975" height="12.9458" filterUnits="userSpaceOnUse" color-interpolation-filters="sRGB">
<feFlood flood-opacity="0" result="BackgroundImageFix"/>
<feBlend mode="normal" in="SourceGraphic" in2="BackgroundImageFix" result="shape"/>
<feGaussianBlur stdDeviation="0.08924" result="effect1_foregroundBlur_1_1260"/>
</filter>
<filter id="filter1_f_1_1260" x="17.0716" y="5.17449" width="6.09261" height="5.73895" filterUnits="userSpaceOnUse" color-interpolation-filters="sRGB">
<feFlood flood-opacity="0" result="BackgroundImageFix"/>
<feBlend mode="normal" in="SourceGraphic" in2="BackgroundImageFix" result="shape"/>
<feGaussianBlur stdDeviation="0.287052" result="effect1_foregroundBlur_1_1260"/>
</filter>
<filter id="filter2_f_1_1260" x="10.0097" y="0.152868" width="10.0141" height="7.87575" filterUnits="userSpaceOnUse" color-interpolation-filters="sRGB">
<feFlood flood-opacity="0" result="BackgroundImageFix"/>
<feBlend mode="normal" in="SourceGraphic" in2="BackgroundImageFix" result="shape"/>
<feGaussianBlur stdDeviation="0.600843" result="effect1_foregroundBlur_1_1260"/>
</filter>
<filter id="filter3_f_1_1260" x="2.56982" y="3.95315" width="9.9614" height="9.29839" filterUnits="userSpaceOnUse" color-interpolation-filters="sRGB">
<feFlood flood-opacity="0" result="BackgroundImageFix"/>
<feBlend mode="normal" in="SourceGraphic" in2="BackgroundImageFix" result="shape"/>
<feGaussianBlur stdDeviation="0.531618" result="effect1_foregroundBlur_1_1260"/>
</filter>
<filter id="filter4_f_1_1260" x="0.812031" y="5.84752" width="5.60787" height="5.91862" filterUnits="userSpaceOnUse" color-interpolation-filters="sRGB">
<feFlood flood-opacity="0" result="BackgroundImageFix"/>
<feBlend mode="normal" in="SourceGraphic" in2="BackgroundImageFix" result="shape"/>
<feGaussianBlur stdDeviation="0.234335" result="effect1_foregroundBlur_1_1260"/>
</filter>
<filter id="filter5_f_1_1260" x="4.11828" y="8.66347" width="6.11774" height="4.31725" filterUnits="userSpaceOnUse" color-interpolation-filters="sRGB">
<feFlood flood-opacity="0" result="BackgroundImageFix"/>
<feBlend mode="normal" in="SourceGraphic" in2="BackgroundImageFix" result="shape"/>
<feGaussianBlur stdDeviation="0.371797" result="effect1_foregroundBlur_1_1260"/>
</filter>
<filter id="filter6_f_1_1260" x="7.69492" y="7.79417" width="9.66654" height="6.3485" filterUnits="userSpaceOnUse" color-interpolation-filters="sRGB">
<feFlood flood-opacity="0" result="BackgroundImageFix"/>
<feBlend mode="normal" in="SourceGraphic" in2="BackgroundImageFix" result="shape"/>
<feGaussianBlur stdDeviation="0.549118" result="effect1_foregroundBlur_1_1260"/>
</filter>
<filter id="filter7_f_1_1260" x="2.1642" y="4.72072" width="6.47043" height="7.02455" filterUnits="userSpaceOnUse" color-interpolation-filters="sRGB">
<feFlood flood-opacity="0" result="BackgroundImageFix"/>
<feBlend mode="normal" in="SourceGraphic" in2="BackgroundImageFix" result="shape"/>
<feGaussianBlur stdDeviation="0.492423" result="effect1_foregroundBlur_1_1260"/>
</filter>
<filter id="filter8_f_1_1260" x="4.68538" y="2.23747" width="9.25638" height="9.25638" filterUnits="userSpaceOnUse" color-interpolation-filters="sRGB">
<feFlood flood-opacity="0" result="BackgroundImageFix"/>
<feBlend mode="normal" in="SourceGraphic" in2="BackgroundImageFix" result="shape"/>
<feGaussianBlur stdDeviation="0.49955" result="effect1_foregroundBlur_1_1260"/>
</filter>
<filter id="filter9_f_1_1260" x="5.74904" y="2.22065" width="9.74329" height="6.94572" filterUnits="userSpaceOnUse" color-interpolation-filters="sRGB">
<feFlood flood-opacity="0" result="BackgroundImageFix"/>
<feBlend mode="normal" in="SourceGraphic" in2="BackgroundImageFix" result="shape"/>
<feGaussianBlur stdDeviation="0.680566" result="effect1_foregroundBlur_1_1260"/>
</filter>
<filter id="filter10_f_1_1260" x="2.78057" y="5.48565" width="3.68545" height="5.14091" filterUnits="userSpaceOnUse" color-interpolation-filters="sRGB">
<feFlood flood-opacity="0" result="BackgroundImageFix"/>
<feBlend mode="normal" in="SourceGraphic" in2="BackgroundImageFix" result="shape"/>
<feGaussianBlur stdDeviation="0.284933" result="effect1_foregroundBlur_1_1260"/>
</filter>
<filter id="filter11_f_1_1260" x="12.254" y="0.263299" width="8.11159" height="9.29509" filterUnits="userSpaceOnUse" color-interpolation-filters="sRGB">
<feFlood flood-opacity="0" result="BackgroundImageFix"/>
<feBlend mode="normal" in="SourceGraphic" in2="BackgroundImageFix" result="shape"/>
<feGaussianBlur stdDeviation="0.591633" result="effect1_foregroundBlur_1_1260"/>
</filter>
<filter id="filter12_f_1_1260" x="12.28" y="10.2115" width="9.62327" height="3.56163" filterUnits="userSpaceOnUse" color-interpolation-filters="sRGB">
<feFlood flood-opacity="0" result="BackgroundImageFix"/>
<feBlend mode="normal" in="SourceGraphic" in2="BackgroundImageFix" result="shape"/>
<feGaussianBlur stdDeviation="0.369373" result="effect1_foregroundBlur_1_1260"/>
</filter>
<filter id="filter13_f_1_1260" x="7.66988" y="2.46992" width="5.939" height="5.99754" filterUnits="userSpaceOnUse" color-interpolation-filters="sRGB">
<feFlood flood-opacity="0" result="BackgroundImageFix"/>
<feBlend mode="normal" in="SourceGraphic" in2="BackgroundImageFix" result="shape"/>
<feGaussianBlur stdDeviation="0.473198" result="effect1_foregroundBlur_1_1260"/>
</filter>
<filter id="filter14_f_1_1260" x="10.7563" y="3.86572" width="6.50028" height="7.39047" filterUnits="userSpaceOnUse" color-interpolation-filters="sRGB">
<feFlood flood-opacity="0" result="BackgroundImageFix"/>
<feBlend mode="normal" in="SourceGraphic" in2="BackgroundImageFix" result="shape"/>
<feGaussianBlur stdDeviation="0.598849" result="effect1_foregroundBlur_1_1260"/>
</filter>
</defs>
</svg>
